<svg width="1246" height="512" viewBox="0 0 1246 512" fill="none" xmlns="http://www.w3.org/2000/svg">
<rect width="1246" height="512" rx="24" fill="#8F87F1"/>
<path d="M726 312C726 201.543 815.543 112 926 112H976C1086.46 112 1176 201.543 1176 312V512H926C815.543 512 726 422.457 726 312V312Z" fill="#FBFBFB"/>
<path d="M531.16 366.059C532.58 352.163 532.023 334.585 549.163 332.132C557.307 330.967 567.641 339.433 570.155 346.55C572.24 352.453 576.937 359.027 572.537 365.138C569.081 369.938 563.025 372.054 557.494 369.275C541.785 361.381 557.357 344.489 567.721 342.295C581.866 339.299 610.87 365.334 603.896 380.453C597.917 393.416 585.736 382.652 589.116 371.734C593.871 356.376 602.522 352.256 618.802 359.549C631.514 365.244 635.999 382.968 632.722 394.701C632.041 397.138 632.02 412.168 630.159 411.457C611.803 404.444 626.897 376.098 640.806 373.266C656.787 370.012 672.994 366.901 687.673 374.377C695.566 378.397 714.763 396.646 709.521 389.505C702.96 380.57 694.913 367.899 694.802 356.253C694.768 352.788 694.395 341.725 695.223 352.264C696.076 363.118 696.574 372.699 699.297 382.674C699.903 384.894 703.897 386.704 705.587 388.084C707.018 389.253 700.063 389.937 699.299 390.174C692.696 392.22 687.958 397.125 683.835 402.467C680.155 407.235 676.787 414.67 672.371 414.425" stroke="black" stroke-width="4" stroke-linecap="round" stroke-linejoin="round"/>
<path d="M1136.71 14.4581C1167.88 21.7611 1162.18 19.8238 1186.45 39.3829C1191.99 43.8501 1200.44 49.6547 1202.02 55.7901C1204.35 64.8443 1184.74 86.4277 1173.7 74.5084C1166.57 66.8053 1168.75 56.7162 1180.43 56.4662C1199.58 56.0563 1213.8 72.6993 1218.86 85.5055C1224.42 99.6044 1218.05 112.312 1202.26 117.479C1195.05 119.839 1183.98 115.646 1190.69 108.761C1204.49 94.5986 1217.68 118.299 1214.92 129.106C1209.96 148.57 1178.06 168.613 1150.23 158.271C1141.53 155.038 1144.61 152.723 1148.45 151.351C1152.35 149.958 1162.32 143.946 1159.58 146.457C1154.79 150.847 1149.04 151.779 1142.56 153.558C1134.2 155.853 1150.91 168.483 1155.71 172.738C1158.23 174.971 1161.8 179.522 1162.32 182.384C1163.36 188.035 1154.17 171.858 1152.72 166.213" stroke="black" stroke-width="5" stroke-linecap="round" stroke-linejoin="round"/>
</svg>
