<svg xmlns="http://www.w3.org/2000/svg" xmlns:xlink="http://www.w3.org/1999/xlink" width="300" zoomAndPan="magnify" viewBox="0 0 224.87999 74.999997" height="100" preserveAspectRatio="xMidYMid meet" version="1.0"><defs><filter x="0%" y="0%" width="100%" height="100%" id="e849300524"><feColorMatrix values="0 0 0 0 1 0 0 0 0 1 0 0 0 0 1 0 0 0 1 0" color-interpolation-filters="sRGB"/></filter><g/><clipPath id="5e206f1b1c"><path d="M 12.757812 13.691406 L 60.503906 13.691406 L 60.503906 60.910156 L 12.757812 60.910156 Z M 12.757812 13.691406 " clip-rule="nonzero"/></clipPath><mask id="99629f7059"><g filter="url(#e849300524)"><rect x="-22.487999" width="269.855988" fill="#000000" y="-7.5" height="89.999996" fill-opacity="0.1"/></g></mask><clipPath id="5d9af4edd0"><path d="M 0.871094 32 L 45 32 L 45 38.511719 L 0.871094 38.511719 Z M 0.871094 32 " clip-rule="nonzero"/></clipPath><clipPath id="0fc9f9ddca"><path d="M 0.871094 16 L 45 16 L 45 23 L 0.871094 23 Z M 0.871094 16 " clip-rule="nonzero"/></clipPath><clipPath id="d233b5c814"><path d="M 0.871094 0.613281 L 45 0.613281 L 45 8 L 0.871094 8 Z M 0.871094 0.613281 " clip-rule="nonzero"/></clipPath><clipPath id="182f95dc27"><rect x="0" width="46" y="0" height="39"/></clipPath><mask id="36a2b9f9ae"><g filter="url(#e849300524)"><rect x="-22.487999" width="269.855988" fill="#000000" y="-7.5" height="89.999996" fill-opacity="0.1"/></g></mask><clipPath id="ebda61e4d9"><path d="M 1 1 L 9 1 L 9 39.589844 L 1 39.589844 Z M 1 1 " clip-rule="nonzero"/></clipPath><clipPath id="f781775d93"><rect x="0" width="10" y="0" height="40"/></clipPath></defs><g clip-path="url(#5e206f1b1c)"><path fill="#69247c" d="M 20.933594 15.71875 L 59.101562 15.71875 C 59.65625 15.71875 60.105469 15.269531 60.105469 14.714844 C 60.105469 14.160156 59.65625 13.710938 59.101562 13.710938 L 20.78125 13.710938 C 16.433594 13.710938 12.914062 17.230469 12.914062 21.574219 C 12.914062 25.917969 16.433594 29.441406 20.78125 29.441406 C 16.433594 29.441406 12.914062 32.960938 12.914062 37.304688 C 12.914062 41.648438 16.433594 45.171875 20.78125 45.171875 C 16.339844 45.171875 12.761719 48.847656 12.917969 53.324219 C 13.070312 57.585938 16.703125 60.902344 20.96875 60.902344 L 59.105469 60.902344 C 59.660156 60.902344 60.105469 60.453125 60.105469 59.898438 C 60.105469 59.34375 59.65625 58.898438 59.105469 58.898438 L 20.9375 58.898438 C 17.660156 58.898438 14.867188 56.214844 14.921875 52.941406 C 14.976562 49.753906 17.582031 47.179688 20.78125 47.179688 L 59.105469 47.179688 C 59.660156 47.179688 60.105469 46.730469 60.105469 46.175781 L 60.105469 44.171875 C 60.105469 43.617188 59.65625 43.167969 59.105469 43.167969 L 20.933594 43.167969 C 17.65625 43.167969 14.867188 40.488281 14.921875 37.210938 C 14.972656 34.027344 17.582031 31.453125 20.78125 31.453125 L 59.101562 31.453125 C 59.65625 31.453125 60.105469 31.003906 60.105469 30.449219 L 60.105469 28.441406 C 60.105469 27.886719 59.65625 27.4375 59.101562 27.4375 L 20.777344 27.4375 C 17.582031 27.4375 14.972656 24.863281 14.917969 21.679688 C 14.867188 18.398438 17.65625 15.71875 20.933594 15.71875 Z M 20.933594 15.71875 " fill-opacity="1" fill-rule="nonzero"/></g><path fill="#faf3e4" d="M 20.78125 27.433594 C 17.546875 27.433594 14.921875 24.804688 14.921875 21.574219 C 14.921875 18.34375 17.550781 15.71875 20.78125 15.71875 L 58.746094 15.71875 L 58.746094 27.4375 L 20.78125 27.4375 Z M 58.746094 43.164062 L 58.746094 31.445312 L 20.78125 31.445312 C 17.546875 31.445312 14.921875 34.074219 14.921875 37.304688 C 14.921875 40.535156 17.550781 43.164062 20.78125 43.164062 Z M 58.746094 58.898438 L 58.746094 47.179688 L 20.78125 47.179688 C 17.546875 47.179688 14.921875 49.808594 14.921875 53.035156 C 14.921875 56.269531 17.550781 58.894531 20.78125 58.894531 L 58.746094 58.894531 Z M 58.746094 58.898438 " fill-opacity="1" fill-rule="nonzero"/><g mask="url(#99629f7059)"><g transform="matrix(1, 0, 0, 1, 14, 15)"><g clip-path="url(#182f95dc27)"><g clip-path="url(#5d9af4edd0)"><path fill="#000000" d="M 0.917969 38.035156 C 0.917969 38.191406 0.929688 38.347656 0.941406 38.5 C 1.179688 35.484375 3.703125 33.101562 6.777344 33.101562 L 44.742188 33.101562 L 44.742188 32.175781 L 6.78125 32.175781 C 3.546875 32.179688 0.917969 34.808594 0.917969 38.035156 Z M 0.917969 38.035156 " fill-opacity="1" fill-rule="nonzero"/></g><g clip-path="url(#0fc9f9ddca)"><path fill="#000000" d="M 0.917969 22.304688 C 0.917969 22.460938 0.929688 22.617188 0.941406 22.769531 C 1.179688 19.753906 3.703125 17.371094 6.777344 17.371094 L 44.742188 17.371094 L 44.742188 16.445312 L 6.78125 16.445312 C 3.546875 16.449219 0.917969 19.074219 0.917969 22.304688 Z M 0.917969 22.304688 " fill-opacity="1" fill-rule="nonzero"/></g><g clip-path="url(#d233b5c814)"><path fill="#000000" d="M 6.78125 0.71875 C 3.546875 0.71875 0.921875 3.347656 0.921875 6.574219 C 0.921875 6.730469 0.933594 6.886719 0.945312 7.039062 C 1.179688 4.023438 3.707031 1.640625 6.78125 1.640625 L 44.746094 1.640625 L 44.746094 0.714844 L 6.78125 0.714844 Z M 6.78125 0.71875 " fill-opacity="1" fill-rule="nonzero"/></g></g></g></g><path fill="#e6b187" d="M 58.746094 19.199219 L 19.890625 19.199219 L 19.890625 19 L 58.746094 19 Z M 58.746094 21.476562 L 19.890625 21.476562 L 19.890625 21.675781 L 58.746094 21.675781 Z M 58.746094 23.953125 L 19.890625 23.953125 L 19.890625 24.152344 L 58.746094 24.152344 Z M 58.746094 34.730469 L 19.890625 34.730469 L 19.890625 34.929688 L 58.746094 34.929688 Z M 58.746094 37.207031 L 19.890625 37.207031 L 19.890625 37.40625 L 58.746094 37.40625 Z M 58.746094 39.683594 L 19.890625 39.683594 L 19.890625 39.882812 L 58.746094 39.882812 Z M 58.746094 50.460938 L 19.890625 50.460938 L 19.890625 50.660156 L 58.746094 50.660156 Z M 58.746094 52.9375 L 19.890625 52.9375 L 19.890625 53.136719 L 58.746094 53.136719 Z M 58.746094 55.414062 L 19.890625 55.414062 L 19.890625 55.613281 L 58.746094 55.613281 Z M 58.746094 55.414062 " fill-opacity="1" fill-rule="nonzero"/><g mask="url(#36a2b9f9ae)"><g transform="matrix(1, 0, 0, 1, 47, 18)"><g clip-path="url(#f781775d93)"><g clip-path="url(#ebda61e4d9)"><path fill="#000000" d="M 8.824219 39.457031 L 4.960938 36.117188 L 1.097656 39.457031 L 1.097656 1 L 8.824219 1 Z M 8.824219 39.457031 " fill-opacity="1" fill-rule="nonzero"/></g></g></g></g><path fill="#e6b187" d="M 54.964844 56.476562 L 51.101562 53.132812 L 47.238281 56.476562 L 47.238281 19 L 54.964844 19 Z M 54.964844 56.476562 " fill-opacity="1" fill-rule="nonzero"/><g fill="#69247c" fill-opacity="1"><g transform="translate(66.975406, 34.421354)"><g><path d="M 1.789062 0 C 1.808594 -1.703125 1.820312 -3.453125 1.832031 -5.25 C 1.839844 -7.046875 1.84375 -8.902344 1.84375 -10.8125 C 1.84375 -12.722656 1.839844 -14.582031 1.832031 -16.390625 C 1.820312 -18.195312 1.808594 -19.949219 1.789062 -21.652344 L 11.664062 -21.652344 C 13.574219 -21.652344 15.203125 -21.398438 16.546875 -20.886719 C 17.886719 -20.375 18.910156 -19.558594 19.609375 -18.433594 C 20.308594 -17.308594 20.660156 -15.796875 20.660156 -13.90625 C 20.660156 -11.085938 19.992188 -9.046875 18.660156 -7.789062 C 17.324219 -6.53125 15.382812 -5.902344 12.828125 -5.902344 L 7.320312 -5.902344 C 7.320312 -5.277344 7.328125 -4.582031 7.335938 -3.816406 C 7.34375 -3.050781 7.355469 -2.324219 7.363281 -1.632812 C 7.375 -0.941406 7.386719 -0.398438 7.40625 0 Z M 7.292969 -9.363281 L 10.839844 -9.363281 C 12.089844 -9.363281 13.101562 -9.671875 13.878906 -10.289062 C 14.652344 -10.902344 15.042969 -12.015625 15.042969 -13.621094 C 15.042969 -15.210938 14.667969 -16.3125 13.921875 -16.929688 C 13.171875 -17.542969 12.128906 -17.851562 10.785156 -17.851562 L 7.320312 -17.851562 Z M 7.292969 -9.363281 "/></g></g></g><g fill="#69247c" fill-opacity="1"><g transform="translate(88.626893, 34.421354)"><g><path d="M 19.242188 -18.363281 C 19.164062 -16.921875 19.121094 -15.4375 19.113281 -13.90625 C 19.105469 -12.375 19.097656 -10.804688 19.097656 -9.195312 C 19.097656 -7.792969 19.105469 -6.277344 19.113281 -4.640625 C 19.121094 -3.003906 19.15625 -1.457031 19.214844 0 L 13.566406 0 L 14.105469 -3.917969 L 13.765625 -3.917969 C 13.421875 -3.101562 12.925781 -2.371094 12.273438 -1.71875 C 11.621094 -1.0625 10.863281 -0.546875 10.003906 -0.171875 C 9.144531 0.207031 8.21875 0.398438 7.238281 0.398438 C 5.855469 0.398438 4.761719 0.105469 3.957031 -0.484375 C 3.15625 -1.070312 2.582031 -1.921875 2.242188 -3.035156 C 1.902344 -4.152344 1.710938 -5.503906 1.675781 -7.09375 C 1.65625 -7.550781 1.644531 -8.167969 1.644531 -8.953125 C 1.644531 -9.738281 1.640625 -10.601562 1.632812 -11.535156 C 1.621094 -12.472656 1.613281 -13.394531 1.601562 -14.304688 C 1.59375 -15.210938 1.585938 -16.03125 1.574219 -16.757812 C 1.566406 -17.488281 1.550781 -18.019531 1.53125 -18.363281 L 7.125 -18.363281 C 7.105469 -17.1875 7.085938 -16.191406 7.066406 -15.367188 C 7.046875 -14.542969 7.039062 -13.800781 7.039062 -13.140625 C 7.039062 -12.476562 7.039062 -11.8125 7.039062 -11.140625 C 7.039062 -10.46875 7.039062 -9.707031 7.039062 -8.855469 C 7.039062 -8.039062 7.113281 -7.265625 7.265625 -6.527344 C 7.417969 -5.789062 7.691406 -5.1875 8.089844 -4.726562 C 8.484375 -4.261719 9.054688 -4.03125 9.789062 -4.03125 C 10.246094 -4.03125 10.722656 -4.175781 11.222656 -4.46875 C 11.726562 -4.761719 12.1875 -5.144531 12.613281 -5.617188 C 13.039062 -6.09375 13.367188 -6.585938 13.59375 -7.09375 C 13.632812 -7.585938 13.65625 -8.074219 13.664062 -8.554688 C 13.675781 -9.039062 13.679688 -9.496094 13.679688 -9.933594 C 13.679688 -11.484375 13.675781 -12.929688 13.664062 -14.273438 C 13.65625 -15.617188 13.621094 -16.980469 13.566406 -18.363281 Z M 19.242188 -18.363281 "/></g></g></g><g fill="#69247c" fill-opacity="1"><g transform="translate(109.824358, 34.421354)"><g><path d="M 9.25 0.339844 C 6.734375 0.339844 4.757812 -0.222656 3.320312 -1.347656 C 1.882812 -2.472656 1.058594 -4.085938 0.851562 -6.1875 L 5.875 -6.640625 C 6.082031 -5.695312 6.496094 -4.941406 7.109375 -4.382812 C 7.722656 -3.828125 8.664062 -3.546875 9.933594 -3.546875 C 10.480469 -3.546875 10.960938 -3.597656 11.367188 -3.703125 C 11.773438 -3.808594 12.144531 -3.933594 12.488281 -4.085938 C 12.675781 -4.371094 12.8125 -4.644531 12.898438 -4.910156 C 12.984375 -5.175781 13.027344 -5.503906 13.027344 -5.902344 C 13.027344 -6.566406 12.699219 -7.023438 12.046875 -7.28125 C 11.394531 -7.535156 10.28125 -7.71875 8.710938 -7.832031 C 6.726562 -7.945312 5.1875 -8.25 4.101562 -8.742188 C 3.011719 -9.234375 2.261719 -9.875 1.84375 -10.671875 C 1.429688 -11.464844 1.21875 -12.375 1.21875 -13.394531 C 1.21875 -14.453125 1.5625 -15.386719 2.242188 -16.191406 C 2.921875 -16.996094 3.882812 -17.625 5.121094 -18.078125 C 6.363281 -18.53125 7.804688 -18.757812 9.449219 -18.757812 C 12.210938 -18.757812 14.328125 -18.222656 15.792969 -17.15625 C 17.257812 -16.085938 18.117188 -14.226562 18.363281 -11.578125 L 13.394531 -11.039062 C 13.207031 -12.230469 12.8125 -13.164062 12.21875 -13.835938 C 11.621094 -14.507812 10.59375 -14.84375 9.136719 -14.84375 C 8.722656 -14.84375 8.335938 -14.800781 7.976562 -14.714844 C 7.613281 -14.628906 7.3125 -14.519531 7.066406 -14.386719 C 6.648438 -13.800781 6.441406 -13.128906 6.441406 -12.375 C 6.441406 -12.015625 6.535156 -11.6875 6.726562 -11.394531 C 6.914062 -11.101562 7.289062 -10.863281 7.847656 -10.683594 C 8.40625 -10.503906 9.214844 -10.367188 10.273438 -10.273438 C 11.996094 -10.160156 13.363281 -9.957031 14.375 -9.664062 C 15.386719 -9.371094 16.132812 -9 16.617188 -8.554688 C 17.097656 -8.113281 17.414062 -7.605469 17.566406 -7.039062 C 17.71875 -6.46875 17.792969 -5.855469 17.792969 -5.195312 C 17.792969 -4.039062 17.429688 -3.046875 16.703125 -2.214844 C 15.972656 -1.382812 14.964844 -0.746094 13.679688 -0.3125 C 12.390625 0.121094 10.917969 0.339844 9.25 0.339844 Z M 9.25 0.339844 "/></g></g></g><g fill="#69247c" fill-opacity="1"><g transform="translate(129.007075, 34.421354)"><g><path d="M 9.109375 0.253906 C 7.3125 0.253906 5.953125 -0.046875 5.039062 -0.652344 C 4.121094 -1.257812 3.5 -2.171875 3.179688 -3.390625 C 2.855469 -4.613281 2.695312 -6.121094 2.695312 -7.917969 L 2.695312 -14.472656 L 0.285156 -14.359375 L 0.285156 -18.417969 L 2.640625 -18.332031 C 2.640625 -18.996094 2.632812 -19.585938 2.625 -20.105469 C 2.617188 -20.628906 2.609375 -21.179688 2.609375 -21.765625 C 3.558594 -21.765625 4.503906 -21.785156 5.449219 -21.824219 C 6.394531 -21.863281 7.339844 -21.910156 8.285156 -21.964844 C 8.269531 -21.207031 8.257812 -20.566406 8.257812 -20.035156 C 8.257812 -19.507812 8.25 -18.9375 8.230469 -18.332031 C 8.628906 -18.332031 9.121094 -18.335938 9.707031 -18.347656 C 10.292969 -18.355469 10.886719 -18.371094 11.492188 -18.390625 C 12.097656 -18.410156 12.621094 -18.417969 13.054688 -18.417969 C 13.035156 -18.078125 13.011719 -17.746094 12.984375 -17.425781 C 12.957031 -17.101562 12.941406 -16.761719 12.941406 -16.402344 C 12.941406 -16.082031 12.929688 -15.753906 12.914062 -15.425781 C 12.894531 -15.09375 12.882812 -14.738281 12.882812 -14.359375 L 8.203125 -14.472656 C 8.203125 -13.773438 8.203125 -12.992188 8.203125 -12.132812 C 8.203125 -11.269531 8.203125 -10.425781 8.203125 -9.59375 C 8.203125 -8.761719 8.203125 -8.011719 8.203125 -7.351562 C 8.203125 -6.421875 8.28125 -5.617188 8.441406 -4.9375 C 8.605469 -4.257812 8.96875 -3.917969 9.535156 -3.917969 C 10.085938 -3.917969 10.679688 -3.949219 11.324219 -4.015625 C 11.964844 -4.082031 12.507812 -4.152344 12.941406 -4.230469 C 12.941406 -3.925781 12.925781 -3.515625 12.898438 -2.992188 C 12.871094 -2.472656 12.847656 -1.953125 12.828125 -1.433594 C 12.808594 -0.914062 12.800781 -0.484375 12.800781 -0.140625 C 12.269531 -0.0273438 11.683594 0.0664062 11.039062 0.140625 C 10.394531 0.21875 9.753906 0.253906 9.109375 0.253906 Z M 9.109375 0.253906 "/></g></g></g><g fill="#69247c" fill-opacity="1"><g transform="translate(142.684691, 34.421354)"><g><path d="M 6.78125 0.398438 C 5.683594 0.398438 4.71875 0.203125 3.886719 -0.183594 C 3.054688 -0.574219 2.402344 -1.121094 1.929688 -1.832031 C 1.457031 -2.539062 1.21875 -3.367188 1.21875 -4.3125 C 1.21875 -6.054688 1.949219 -7.394531 3.40625 -8.328125 C 4.863281 -9.265625 6.90625 -9.734375 9.535156 -9.734375 C 10.101562 -9.734375 10.703125 -9.71875 11.335938 -9.691406 C 11.972656 -9.664062 12.667969 -9.628906 13.421875 -9.59375 L 13.421875 -10.019531 C 13.421875 -10.871094 13.328125 -11.648438 13.140625 -12.359375 C 12.949219 -13.070312 12.585938 -13.636719 12.046875 -14.0625 C 11.507812 -14.488281 10.691406 -14.699219 9.59375 -14.699219 C 8.890625 -14.585938 8.304688 -14.332031 7.832031 -13.933594 C 7.359375 -13.140625 7.039062 -12.042969 6.867188 -10.640625 L 1.589844 -11.410156 C 1.871094 -13.867188 2.789062 -15.710938 4.34375 -16.941406 C 5.894531 -18.171875 7.957031 -18.789062 10.527344 -18.789062 C 12.554688 -18.789062 14.175781 -18.453125 15.394531 -17.78125 C 16.617188 -17.109375 17.496094 -16.132812 18.035156 -14.855469 C 18.574219 -13.578125 18.84375 -12.023438 18.84375 -10.1875 C 18.84375 -9.035156 18.847656 -8.050781 18.859375 -7.238281 C 18.867188 -6.421875 18.871094 -5.582031 18.871094 -4.710938 C 18.890625 -3.726562 18.902344 -2.851562 18.902344 -2.085938 C 18.902344 -1.320312 18.902344 -0.625 18.902344 0 L 13.367188 0 L 13.792969 -4.34375 L 13.421875 -4.34375 C 13.121094 -3.527344 12.679688 -2.757812 12.105469 -2.027344 C 11.527344 -1.300781 10.804688 -0.714844 9.933594 -0.269531 C 9.0625 0.175781 8.011719 0.398438 6.78125 0.398438 Z M 8.742188 -3.6875 C 9.363281 -3.6875 9.941406 -3.8125 10.472656 -4.058594 C 11 -4.304688 11.46875 -4.597656 11.875 -4.9375 C 12.285156 -5.277344 12.625 -5.613281 12.898438 -5.945312 C 13.171875 -6.277344 13.355469 -6.527344 13.453125 -6.699219 L 13.453125 -7.578125 C 13.1875 -7.597656 12.847656 -7.609375 12.429688 -7.621094 C 12.015625 -7.628906 11.671875 -7.632812 11.410156 -7.632812 C 10.691406 -7.632812 9.953125 -7.585938 9.195312 -7.492188 C 8.4375 -7.398438 7.808594 -7.199219 7.308594 -6.894531 C 6.804688 -6.59375 6.554688 -6.109375 6.554688 -5.449219 C 6.554688 -4.804688 6.757812 -4.351562 7.164062 -4.085938 C 7.574219 -3.820312 8.097656 -3.6875 8.742188 -3.6875 Z M 8.742188 -3.6875 "/></g></g></g><g fill="#69247c" fill-opacity="1"><g transform="translate(163.229488, 34.421354)"><g><path d="M 1.929688 0 C 1.949219 -1.703125 1.964844 -3.453125 1.972656 -5.25 C 1.980469 -7.046875 1.988281 -8.921875 1.988281 -10.871094 C 1.988281 -12.816406 1.980469 -14.617188 1.972656 -16.261719 C 1.964844 -17.90625 1.949219 -19.589844 1.929688 -21.3125 L 7.632812 -21.824219 C 7.613281 -20.914062 7.597656 -20.09375 7.578125 -19.355469 C 7.558594 -18.617188 7.535156 -17.859375 7.507812 -17.085938 C 7.476562 -16.308594 7.453125 -15.429688 7.433594 -14.445312 C 7.417969 -13.460938 7.398438 -12.261719 7.378906 -10.839844 L 8.710938 -10.839844 L 13.820312 -18.390625 L 19.582031 -18.390625 C 18.804688 -17.234375 17.976562 -16.042969 17.097656 -14.8125 C 16.21875 -13.585938 15.335938 -12.355469 14.445312 -11.125 C 14.160156 -10.691406 13.753906 -10.347656 13.226562 -10.101562 C 12.695312 -9.855469 11.910156 -9.714844 10.871094 -9.675781 L 10.871094 -9.363281 C 11.929688 -9.347656 12.710938 -9.199219 13.210938 -8.925781 C 13.710938 -8.652344 14.113281 -8.285156 14.417969 -7.832031 C 15.402344 -6.488281 16.359375 -5.183594 17.296875 -3.917969 C 18.234375 -2.648438 19.175781 -1.34375 20.121094 0 L 14.105469 0 L 8.742188 -8.089844 L 7.378906 -8.089844 C 7.398438 -7.578125 7.410156 -7 7.421875 -6.355469 C 7.429688 -5.714844 7.453125 -4.890625 7.492188 -3.886719 C 7.53125 -2.886719 7.578125 -1.589844 7.632812 0 Z M 1.929688 0 "/></g></g></g><g fill="#69247c" fill-opacity="1"><g transform="translate(183.291884, 34.421354)"><g><path d="M 6.78125 0.398438 C 5.683594 0.398438 4.71875 0.203125 3.886719 -0.183594 C 3.054688 -0.574219 2.402344 -1.121094 1.929688 -1.832031 C 1.457031 -2.539062 1.21875 -3.367188 1.21875 -4.3125 C 1.21875 -6.054688 1.949219 -7.394531 3.40625 -8.328125 C 4.863281 -9.265625 6.90625 -9.734375 9.535156 -9.734375 C 10.101562 -9.734375 10.703125 -9.71875 11.335938 -9.691406 C 11.972656 -9.664062 12.667969 -9.628906 13.421875 -9.59375 L 13.421875 -10.019531 C 13.421875 -10.871094 13.328125 -11.648438 13.140625 -12.359375 C 12.949219 -13.070312 12.585938 -13.636719 12.046875 -14.0625 C 11.507812 -14.488281 10.691406 -14.699219 9.59375 -14.699219 C 8.890625 -14.585938 8.304688 -14.332031 7.832031 -13.933594 C 7.359375 -13.140625 7.039062 -12.042969 6.867188 -10.640625 L 1.589844 -11.410156 C 1.871094 -13.867188 2.789062 -15.710938 4.34375 -16.941406 C 5.894531 -18.171875 7.957031 -18.789062 10.527344 -18.789062 C 12.554688 -18.789062 14.175781 -18.453125 15.394531 -17.78125 C 16.617188 -17.109375 17.496094 -16.132812 18.035156 -14.855469 C 18.574219 -13.578125 18.84375 -12.023438 18.84375 -10.1875 C 18.84375 -9.035156 18.847656 -8.050781 18.859375 -7.238281 C 18.867188 -6.421875 18.871094 -5.582031 18.871094 -4.710938 C 18.890625 -3.726562 18.902344 -2.851562 18.902344 -2.085938 C 18.902344 -1.320312 18.902344 -0.625 18.902344 0 L 13.367188 0 L 13.792969 -4.34375 L 13.421875 -4.34375 C 13.121094 -3.527344 12.679688 -2.757812 12.105469 -2.027344 C 11.527344 -1.300781 10.804688 -0.714844 9.933594 -0.269531 C 9.0625 0.175781 8.011719 0.398438 6.78125 0.398438 Z M 8.742188 -3.6875 C 9.363281 -3.6875 9.941406 -3.8125 10.472656 -4.058594 C 11 -4.304688 11.46875 -4.597656 11.875 -4.9375 C 12.285156 -5.277344 12.625 -5.613281 12.898438 -5.945312 C 13.171875 -6.277344 13.355469 -6.527344 13.453125 -6.699219 L 13.453125 -7.578125 C 13.1875 -7.597656 12.847656 -7.609375 12.429688 -7.621094 C 12.015625 -7.628906 11.671875 -7.632812 11.410156 -7.632812 C 10.691406 -7.632812 9.953125 -7.585938 9.195312 -7.492188 C 8.4375 -7.398438 7.808594 -7.199219 7.308594 -6.894531 C 6.804688 -6.59375 6.554688 -6.109375 6.554688 -5.449219 C 6.554688 -4.804688 6.757812 -4.351562 7.164062 -4.085938 C 7.574219 -3.820312 8.097656 -3.6875 8.742188 -3.6875 Z M 8.742188 -3.6875 "/></g></g></g><g fill="#69247c" fill-opacity="1"><g transform="translate(66.975406, 57.930991)"><g><path d="M 1.789062 0 C 1.808594 -1.097656 1.832031 -2.269531 1.859375 -3.519531 C 1.886719 -4.769531 1.910156 -6.019531 1.929688 -7.28125 C 1.949219 -8.539062 1.957031 -9.707031 1.957031 -10.785156 C 1.957031 -11.882812 1.949219 -13.070312 1.929688 -14.347656 C 1.910156 -15.621094 1.886719 -16.894531 1.859375 -18.164062 C 1.832031 -19.429688 1.808594 -20.59375 1.789062 -21.652344 L 11.722656 -21.652344 C 13.667969 -21.652344 15.3125 -21.492188 16.644531 -21.171875 C 17.976562 -20.847656 18.992188 -20.269531 19.679688 -19.425781 C 20.371094 -18.582031 20.71875 -17.378906 20.71875 -15.808594 C 20.71875 -13.6875 20.148438 -12.183594 19.015625 -11.296875 C 17.878906 -10.40625 16.1875 -9.941406 13.933594 -9.90625 L 13.933594 -9.507812 C 15.371094 -9.46875 16.535156 -9.289062 17.425781 -8.96875 C 18.3125 -8.644531 19 -8.164062 19.484375 -7.519531 C 19.964844 -6.878906 20.292969 -6.054688 20.460938 -5.050781 C 20.5 -4.785156 20.566406 -4.425781 20.660156 -3.972656 C 20.753906 -3.519531 20.863281 -3.042969 20.988281 -2.539062 C 21.109375 -2.039062 21.234375 -1.5625 21.355469 -1.105469 C 21.480469 -0.652344 21.585938 -0.285156 21.683594 0 L 15.695312 0 C 15.5625 -0.71875 15.402344 -1.519531 15.210938 -2.398438 C 15.023438 -3.277344 14.890625 -4.113281 14.8125 -4.910156 C 14.644531 -5.648438 14.429688 -6.222656 14.175781 -6.640625 C 13.921875 -7.058594 13.5625 -7.355469 13.097656 -7.535156 C 12.632812 -7.714844 12.003906 -7.804688 11.210938 -7.804688 L 7.378906 -7.804688 C 7.378906 -7.3125 7.378906 -6.707031 7.378906 -5.988281 C 7.378906 -5.269531 7.378906 -4.53125 7.378906 -3.773438 C 7.378906 -3.019531 7.378906 -2.304688 7.378906 -1.632812 C 7.378906 -0.960938 7.378906 -0.417969 7.378906 0 Z M 7.320312 -11.351562 L 10.8125 -11.351562 C 12.25 -11.351562 13.308594 -11.589844 13.992188 -12.0625 C 14.671875 -12.535156 15.011719 -13.367188 15.011719 -14.558594 C 15.011719 -15.863281 14.65625 -16.738281 13.949219 -17.183594 C 13.238281 -17.628906 12.195312 -17.851562 10.8125 -17.851562 L 7.320312 -17.851562 Z M 7.320312 -11.351562 "/></g></g></g><g fill="#69247c" fill-opacity="1"><g transform="translate(89.648463, 57.930991)"><g><path d="M 6.78125 0.398438 C 5.683594 0.398438 4.71875 0.203125 3.886719 -0.183594 C 3.054688 -0.574219 2.402344 -1.121094 1.929688 -1.832031 C 1.457031 -2.539062 1.21875 -3.367188 1.21875 -4.3125 C 1.21875 -6.054688 1.949219 -7.394531 3.40625 -8.328125 C 4.863281 -9.265625 6.90625 -9.734375 9.535156 -9.734375 C 10.101562 -9.734375 10.703125 -9.71875 11.335938 -9.691406 C 11.972656 -9.664062 12.667969 -9.628906 13.421875 -9.59375 L 13.421875 -10.019531 C 13.421875 -10.871094 13.328125 -11.648438 13.140625 -12.359375 C 12.949219 -13.070312 12.585938 -13.636719 12.046875 -14.0625 C 11.507812 -14.488281 10.691406 -14.699219 9.59375 -14.699219 C 8.890625 -14.585938 8.304688 -14.332031 7.832031 -13.933594 C 7.359375 -13.140625 7.039062 -12.042969 6.867188 -10.640625 L 1.589844 -11.410156 C 1.871094 -13.867188 2.789062 -15.710938 4.34375 -16.941406 C 5.894531 -18.171875 7.957031 -18.789062 10.527344 -18.789062 C 12.554688 -18.789062 14.175781 -18.453125 15.394531 -17.78125 C 16.617188 -17.109375 17.496094 -16.132812 18.035156 -14.855469 C 18.574219 -13.578125 18.84375 -12.023438 18.84375 -10.1875 C 18.84375 -9.035156 18.847656 -8.050781 18.859375 -7.238281 C 18.867188 -6.421875 18.871094 -5.582031 18.871094 -4.710938 C 18.890625 -3.726562 18.902344 -2.851562 18.902344 -2.085938 C 18.902344 -1.320312 18.902344 -0.625 18.902344 0 L 13.367188 0 L 13.792969 -4.34375 L 13.421875 -4.34375 C 13.121094 -3.527344 12.679688 -2.757812 12.105469 -2.027344 C 11.527344 -1.300781 10.804688 -0.714844 9.933594 -0.269531 C 9.0625 0.175781 8.011719 0.398438 6.78125 0.398438 Z M 8.742188 -3.6875 C 9.363281 -3.6875 9.941406 -3.8125 10.472656 -4.058594 C 11 -4.304688 11.46875 -4.597656 11.875 -4.9375 C 12.285156 -5.277344 12.625 -5.613281 12.898438 -5.945312 C 13.171875 -6.277344 13.355469 -6.527344 13.453125 -6.699219 L 13.453125 -7.578125 C 13.1875 -7.597656 12.847656 -7.609375 12.429688 -7.621094 C 12.015625 -7.628906 11.671875 -7.632812 11.410156 -7.632812 C 10.691406 -7.632812 9.953125 -7.585938 9.195312 -7.492188 C 8.4375 -7.398438 7.808594 -7.199219 7.308594 -6.894531 C 6.804688 -6.59375 6.554688 -6.109375 6.554688 -5.449219 C 6.554688 -4.804688 6.757812 -4.351562 7.164062 -4.085938 C 7.574219 -3.820312 8.097656 -3.6875 8.742188 -3.6875 Z M 8.742188 -3.6875 "/></g></g></g><g fill="#69247c" fill-opacity="1"><g transform="translate(110.193259, 57.930991)"><g><path d="M 9.25 0.339844 C 6.734375 0.339844 4.757812 -0.222656 3.320312 -1.347656 C 1.882812 -2.472656 1.058594 -4.085938 0.851562 -6.1875 L 5.875 -6.640625 C 6.082031 -5.695312 6.496094 -4.941406 7.109375 -4.382812 C 7.722656 -3.828125 8.664062 -3.546875 9.933594 -3.546875 C 10.480469 -3.546875 10.960938 -3.597656 11.367188 -3.703125 C 11.773438 -3.808594 12.144531 -3.933594 12.488281 -4.085938 C 12.675781 -4.371094 12.8125 -4.644531 12.898438 -4.910156 C 12.984375 -5.175781 13.027344 -5.503906 13.027344 -5.902344 C 13.027344 -6.566406 12.699219 -7.023438 12.046875 -7.28125 C 11.394531 -7.535156 10.28125 -7.71875 8.710938 -7.832031 C 6.726562 -7.945312 5.1875 -8.25 4.101562 -8.742188 C 3.011719 -9.234375 2.261719 -9.875 1.84375 -10.671875 C 1.429688 -11.464844 1.21875 -12.375 1.21875 -13.394531 C 1.21875 -14.453125 1.5625 -15.386719 2.242188 -16.191406 C 2.921875 -16.996094 3.882812 -17.625 5.121094 -18.078125 C 6.363281 -18.53125 7.804688 -18.757812 9.449219 -18.757812 C 12.210938 -18.757812 14.328125 -18.222656 15.792969 -17.15625 C 17.257812 -16.085938 18.117188 -14.226562 18.363281 -11.578125 L 13.394531 -11.039062 C 13.207031 -12.230469 12.8125 -13.164062 12.21875 -13.835938 C 11.621094 -14.507812 10.59375 -14.84375 9.136719 -14.84375 C 8.722656 -14.84375 8.335938 -14.800781 7.976562 -14.714844 C 7.613281 -14.628906 7.3125 -14.519531 7.066406 -14.386719 C 6.648438 -13.800781 6.441406 -13.128906 6.441406 -12.375 C 6.441406 -12.015625 6.535156 -11.6875 6.726562 -11.394531 C 6.914062 -11.101562 7.289062 -10.863281 7.847656 -10.683594 C 8.40625 -10.503906 9.214844 -10.367188 10.273438 -10.273438 C 11.996094 -10.160156 13.363281 -9.957031 14.375 -9.664062 C 15.386719 -9.371094 16.132812 -9 16.617188 -8.554688 C 17.097656 -8.113281 17.414062 -7.605469 17.566406 -7.039062 C 17.71875 -6.46875 17.792969 -5.855469 17.792969 -5.195312 C 17.792969 -4.039062 17.429688 -3.046875 16.703125 -2.214844 C 15.972656 -1.382812 14.964844 -0.746094 13.679688 -0.3125 C 12.390625 0.121094 10.917969 0.339844 9.25 0.339844 Z M 9.25 0.339844 "/></g></g></g><g fill="#69247c" fill-opacity="1"><g transform="translate(129.375976, 57.930991)"><g><path d="M 6.78125 0.398438 C 5.683594 0.398438 4.71875 0.203125 3.886719 -0.183594 C 3.054688 -0.574219 2.402344 -1.121094 1.929688 -1.832031 C 1.457031 -2.539062 1.21875 -3.367188 1.21875 -4.3125 C 1.21875 -6.054688 1.949219 -7.394531 3.40625 -8.328125 C 4.863281 -9.265625 6.90625 -9.734375 9.535156 -9.734375 C 10.101562 -9.734375 10.703125 -9.71875 11.335938 -9.691406 C 11.972656 -9.664062 12.667969 -9.628906 13.421875 -9.59375 L 13.421875 -10.019531 C 13.421875 -10.871094 13.328125 -11.648438 13.140625 -12.359375 C 12.949219 -13.070312 12.585938 -13.636719 12.046875 -14.0625 C 11.507812 -14.488281 10.691406 -14.699219 9.59375 -14.699219 C 8.890625 -14.585938 8.304688 -14.332031 7.832031 -13.933594 C 7.359375 -13.140625 7.039062 -12.042969 6.867188 -10.640625 L 1.589844 -11.410156 C 1.871094 -13.867188 2.789062 -15.710938 4.34375 -16.941406 C 5.894531 -18.171875 7.957031 -18.789062 10.527344 -18.789062 C 12.554688 -18.789062 14.175781 -18.453125 15.394531 -17.78125 C 16.617188 -17.109375 17.496094 -16.132812 18.035156 -14.855469 C 18.574219 -13.578125 18.84375 -12.023438 18.84375 -10.1875 C 18.84375 -9.035156 18.847656 -8.050781 18.859375 -7.238281 C 18.867188 -6.421875 18.871094 -5.582031 18.871094 -4.710938 C 18.890625 -3.726562 18.902344 -2.851562 18.902344 -2.085938 C 18.902344 -1.320312 18.902344 -0.625 18.902344 0 L 13.367188 0 L 13.792969 -4.34375 L 13.421875 -4.34375 C 13.121094 -3.527344 12.679688 -2.757812 12.105469 -2.027344 C 11.527344 -1.300781 10.804688 -0.714844 9.933594 -0.269531 C 9.0625 0.175781 8.011719 0.398438 6.78125 0.398438 Z M 8.742188 -3.6875 C 9.363281 -3.6875 9.941406 -3.8125 10.472656 -4.058594 C 11 -4.304688 11.46875 -4.597656 11.875 -4.9375 C 12.285156 -5.277344 12.625 -5.613281 12.898438 -5.945312 C 13.171875 -6.277344 13.355469 -6.527344 13.453125 -6.699219 L 13.453125 -7.578125 C 13.1875 -7.597656 12.847656 -7.609375 12.429688 -7.621094 C 12.015625 -7.628906 11.671875 -7.632812 11.410156 -7.632812 C 10.691406 -7.632812 9.953125 -7.585938 9.195312 -7.492188 C 8.4375 -7.398438 7.808594 -7.199219 7.308594 -6.894531 C 6.804688 -6.59375 6.554688 -6.109375 6.554688 -5.449219 C 6.554688 -4.804688 6.757812 -4.351562 7.164062 -4.085938 C 7.574219 -3.820312 8.097656 -3.6875 8.742188 -3.6875 Z M 8.742188 -3.6875 "/></g></g></g></svg>