<svg xmlns="http://www.w3.org/2000/svg" xmlns:xlink="http://www.w3.org/1999/xlink" width="100" zoomAndPan="magnify" viewBox="0 0 75 37.5" height="50" preserveAspectRatio="xMidYMid meet" version="1.0"><defs><g/><clipPath id="1ef72f159f"><path d="M 3.320312 9.285156 L 20.738281 9.285156 L 20.738281 26.707031 L 3.320312 26.707031 Z M 3.320312 9.285156 " clip-rule="nonzero"/></clipPath><clipPath id="eac3942f8a"><path d="M 9.238281 9.285156 L 14.816406 9.285156 C 18.085938 9.285156 20.738281 11.9375 20.738281 15.207031 L 20.738281 20.785156 C 20.738281 24.054688 18.085938 26.707031 14.816406 26.707031 L 9.238281 26.707031 C 5.96875 26.707031 3.320312 24.054688 3.320312 20.785156 L 3.320312 15.207031 C 3.320312 11.9375 5.96875 9.285156 9.238281 9.285156 Z M 9.238281 9.285156 " clip-rule="nonzero"/></clipPath><radialGradient gradientTransform="matrix(1, 0, 0, 1, 3.318619, 9.286532)" gradientUnits="userSpaceOnUse" r="24.634524" cx="0" id="26fe883827" cy="0" fx="0" fy="0"><stop stop-opacity="1" stop-color="rgb(0.154114%, 29.025269%, 67.842102%)" offset="0"/><stop stop-opacity="1" stop-color="rgb(0.465393%, 29.077148%, 67.930603%)" offset="0.00390625"/><stop stop-opacity="1" stop-color="rgb(0.776672%, 29.130554%, 68.017578%)" offset="0.0078125"/><stop stop-opacity="1" stop-color="rgb(1.087952%, 29.182434%, 68.104553%)" offset="0.0117188"/><stop stop-opacity="1" stop-color="rgb(1.397705%, 29.234314%, 68.193054%)" offset="0.015625"/><stop stop-opacity="1" stop-color="rgb(1.708984%, 29.286194%, 68.280029%)" offset="0.0195312"/><stop stop-opacity="1" stop-color="rgb(2.020264%, 29.3396%, 68.367004%)" offset="0.0234375"/><stop stop-opacity="1" stop-color="rgb(2.331543%, 29.391479%, 68.455505%)" offset="0.0273438"/><stop stop-opacity="1" stop-color="rgb(2.641296%, 29.443359%, 68.54248%)" offset="0.03125"/><stop stop-opacity="1" stop-color="rgb(2.952576%, 29.496765%, 68.629456%)" offset="0.0351562"/><stop stop-opacity="1" stop-color="rgb(3.263855%, 29.548645%, 68.717957%)" offset="0.0390625"/><stop stop-opacity="1" stop-color="rgb(3.575134%, 29.600525%, 68.804932%)" offset="0.0429688"/><stop stop-opacity="1" stop-color="rgb(3.886414%, 29.653931%, 68.891907%)" offset="0.046875"/><stop stop-opacity="1" stop-color="rgb(4.196167%, 29.705811%, 68.980408%)" offset="0.0507812"/><stop stop-opacity="1" stop-color="rgb(4.507446%, 29.75769%, 69.067383%)" offset="0.0546875"/><stop stop-opacity="1" stop-color="rgb(4.818726%, 29.811096%, 69.154358%)" offset="0.0585938"/><stop stop-opacity="1" stop-color="rgb(5.130005%, 29.862976%, 69.242859%)" offset="0.0625"/><stop stop-opacity="1" stop-color="rgb(5.439758%, 29.914856%, 69.329834%)" offset="0.0664062"/><stop stop-opacity="1" stop-color="rgb(5.751038%, 29.966736%, 69.416809%)" offset="0.0703125"/><stop stop-opacity="1" stop-color="rgb(6.062317%, 30.020142%, 69.50531%)" offset="0.0742188"/><stop stop-opacity="1" stop-color="rgb(6.373596%, 30.072021%, 69.592285%)" offset="0.078125"/><stop stop-opacity="1" stop-color="rgb(6.684875%, 30.123901%, 69.67926%)" offset="0.0820312"/><stop stop-opacity="1" stop-color="rgb(6.994629%, 30.177307%, 69.767761%)" offset="0.0859375"/><stop stop-opacity="1" stop-color="rgb(7.305908%, 30.229187%, 69.854736%)" offset="0.0898438"/><stop stop-opacity="1" stop-color="rgb(7.617188%, 30.281067%, 69.943237%)" offset="0.09375"/><stop stop-opacity="1" stop-color="rgb(7.928467%, 30.334473%, 70.030212%)" offset="0.0976562"/><stop stop-opacity="1" stop-color="rgb(8.23822%, 30.386353%, 70.117188%)" offset="0.101562"/><stop stop-opacity="1" stop-color="rgb(8.5495%, 30.438232%, 70.205688%)" offset="0.105469"/><stop stop-opacity="1" stop-color="rgb(8.860779%, 30.490112%, 70.292664%)" offset="0.109375"/><stop stop-opacity="1" stop-color="rgb(9.172058%, 30.543518%, 70.379639%)" offset="0.113281"/><stop stop-opacity="1" stop-color="rgb(9.483337%, 30.595398%, 70.46814%)" offset="0.117188"/><stop stop-opacity="1" stop-color="rgb(9.793091%, 30.647278%, 70.555115%)" offset="0.121094"/><stop stop-opacity="1" stop-color="rgb(10.10437%, 30.700684%, 70.64209%)" offset="0.125"/><stop stop-opacity="1" stop-color="rgb(10.415649%, 30.752563%, 70.730591%)" offset="0.128906"/><stop stop-opacity="1" stop-color="rgb(10.726929%, 30.804443%, 70.817566%)" offset="0.132812"/><stop stop-opacity="1" stop-color="rgb(11.036682%, 30.857849%, 70.904541%)" offset="0.136719"/><stop stop-opacity="1" stop-color="rgb(11.347961%, 30.909729%, 70.993042%)" offset="0.140625"/><stop stop-opacity="1" stop-color="rgb(11.659241%, 30.961609%, 71.080017%)" offset="0.144531"/><stop stop-opacity="1" stop-color="rgb(11.97052%, 31.013489%, 71.166992%)" offset="0.148438"/><stop stop-opacity="1" stop-color="rgb(12.281799%, 31.066895%, 71.255493%)" offset="0.152344"/><stop stop-opacity="1" stop-color="rgb(12.591553%, 31.118774%, 71.342468%)" offset="0.15625"/><stop stop-opacity="1" stop-color="rgb(12.902832%, 31.170654%, 71.429443%)" offset="0.160156"/><stop stop-opacity="1" stop-color="rgb(13.214111%, 31.22406%, 71.517944%)" offset="0.164062"/><stop stop-opacity="1" stop-color="rgb(13.525391%, 31.27594%, 71.604919%)" offset="0.167969"/><stop stop-opacity="1" stop-color="rgb(13.835144%, 31.32782%, 71.691895%)" offset="0.171875"/><stop stop-opacity="1" stop-color="rgb(14.146423%, 31.381226%, 71.780396%)" offset="0.175781"/><stop stop-opacity="1" stop-color="rgb(14.457703%, 31.433105%, 71.867371%)" offset="0.179688"/><stop stop-opacity="1" stop-color="rgb(14.768982%, 31.484985%, 71.954346%)" offset="0.183594"/><stop stop-opacity="1" stop-color="rgb(15.080261%, 31.538391%, 72.042847%)" offset="0.1875"/><stop stop-opacity="1" stop-color="rgb(15.390015%, 31.590271%, 72.129822%)" offset="0.191406"/><stop stop-opacity="1" stop-color="rgb(15.701294%, 31.642151%, 72.216797%)" offset="0.195312"/><stop stop-opacity="1" stop-color="rgb(16.012573%, 31.694031%, 72.305298%)" offset="0.199219"/><stop stop-opacity="1" stop-color="rgb(16.323853%, 31.747437%, 72.392273%)" offset="0.203125"/><stop stop-opacity="1" stop-color="rgb(16.633606%, 31.799316%, 72.479248%)" offset="0.207031"/><stop stop-opacity="1" stop-color="rgb(16.944885%, 31.851196%, 72.567749%)" offset="0.210938"/><stop stop-opacity="1" stop-color="rgb(17.256165%, 31.904602%, 72.654724%)" offset="0.214844"/><stop stop-opacity="1" stop-color="rgb(17.567444%, 31.956482%, 72.743225%)" offset="0.21875"/><stop stop-opacity="1" stop-color="rgb(17.878723%, 32.008362%, 72.8302%)" offset="0.222656"/><stop stop-opacity="1" stop-color="rgb(18.188477%, 32.061768%, 72.917175%)" offset="0.226562"/><stop stop-opacity="1" stop-color="rgb(18.499756%, 32.113647%, 73.005676%)" offset="0.230469"/><stop stop-opacity="1" stop-color="rgb(18.811035%, 32.165527%, 73.092651%)" offset="0.234375"/><stop stop-opacity="1" stop-color="rgb(19.122314%, 32.217407%, 73.179626%)" offset="0.238281"/><stop stop-opacity="1" stop-color="rgb(19.432068%, 32.270813%, 73.268127%)" offset="0.242188"/><stop stop-opacity="1" stop-color="rgb(19.743347%, 32.322693%, 73.355103%)" offset="0.246094"/><stop stop-opacity="1" stop-color="rgb(20.054626%, 32.374573%, 73.442078%)" offset="0.25"/><stop stop-opacity="1" stop-color="rgb(20.365906%, 32.427979%, 73.530579%)" offset="0.253906"/><stop stop-opacity="1" stop-color="rgb(20.675659%, 32.479858%, 73.617554%)" offset="0.257812"/><stop stop-opacity="1" stop-color="rgb(20.986938%, 32.531738%, 73.704529%)" offset="0.261719"/><stop stop-opacity="1" stop-color="rgb(21.298218%, 32.585144%, 73.79303%)" offset="0.265625"/><stop stop-opacity="1" stop-color="rgb(21.609497%, 32.637024%, 73.880005%)" offset="0.269531"/><stop stop-opacity="1" stop-color="rgb(21.920776%, 32.688904%, 73.96698%)" offset="0.273438"/><stop stop-opacity="1" stop-color="rgb(22.23053%, 32.74231%, 74.055481%)" offset="0.277344"/><stop stop-opacity="1" stop-color="rgb(22.541809%, 32.794189%, 74.142456%)" offset="0.28125"/><stop stop-opacity="1" stop-color="rgb(22.853088%, 32.846069%, 74.229431%)" offset="0.285156"/><stop stop-opacity="1" stop-color="rgb(23.164368%, 32.897949%, 74.317932%)" offset="0.289062"/><stop stop-opacity="1" stop-color="rgb(23.474121%, 32.951355%, 74.404907%)" offset="0.292969"/><stop stop-opacity="1" stop-color="rgb(23.7854%, 33.003235%, 74.491882%)" offset="0.296875"/><stop stop-opacity="1" stop-color="rgb(24.09668%, 33.055115%, 74.580383%)" offset="0.300781"/><stop stop-opacity="1" stop-color="rgb(24.407959%, 33.108521%, 74.667358%)" offset="0.304688"/><stop stop-opacity="1" stop-color="rgb(24.719238%, 33.1604%, 74.754333%)" offset="0.308594"/><stop stop-opacity="1" stop-color="rgb(25.028992%, 33.21228%, 74.842834%)" offset="0.3125"/><stop stop-opacity="1" stop-color="rgb(25.340271%, 33.265686%, 74.92981%)" offset="0.316406"/><stop stop-opacity="1" stop-color="rgb(25.65155%, 33.317566%, 75.016785%)" offset="0.320312"/><stop stop-opacity="1" stop-color="rgb(25.96283%, 33.369446%, 75.105286%)" offset="0.324219"/><stop stop-opacity="1" stop-color="rgb(26.272583%, 33.421326%, 75.192261%)" offset="0.328125"/><stop stop-opacity="1" stop-color="rgb(26.583862%, 33.474731%, 75.279236%)" offset="0.332031"/><stop stop-opacity="1" stop-color="rgb(26.895142%, 33.526611%, 75.367737%)" offset="0.335938"/><stop stop-opacity="1" stop-color="rgb(27.206421%, 33.578491%, 75.454712%)" offset="0.339844"/><stop stop-opacity="1" stop-color="rgb(27.5177%, 33.631897%, 75.543213%)" offset="0.34375"/><stop stop-opacity="1" stop-color="rgb(27.827454%, 33.683777%, 75.630188%)" offset="0.347656"/><stop stop-opacity="1" stop-color="rgb(28.138733%, 33.735657%, 75.717163%)" offset="0.351562"/><stop stop-opacity="1" stop-color="rgb(28.450012%, 33.789062%, 75.805664%)" offset="0.355469"/><stop stop-opacity="1" stop-color="rgb(28.761292%, 33.840942%, 75.892639%)" offset="0.359375"/><stop stop-opacity="1" stop-color="rgb(29.071045%, 33.892822%, 75.979614%)" offset="0.363281"/><stop stop-opacity="1" stop-color="rgb(29.382324%, 33.946228%, 76.068115%)" offset="0.367188"/><stop stop-opacity="1" stop-color="rgb(29.693604%, 33.998108%, 76.15509%)" offset="0.371094"/><stop stop-opacity="1" stop-color="rgb(30.004883%, 34.049988%, 76.242065%)" offset="0.375"/><stop stop-opacity="1" stop-color="rgb(30.316162%, 34.101868%, 76.330566%)" offset="0.378906"/><stop stop-opacity="1" stop-color="rgb(30.625916%, 34.155273%, 76.417542%)" offset="0.382812"/><stop stop-opacity="1" stop-color="rgb(30.937195%, 34.207153%, 76.504517%)" offset="0.386719"/><stop stop-opacity="1" stop-color="rgb(31.248474%, 34.259033%, 76.593018%)" offset="0.390625"/><stop stop-opacity="1" stop-color="rgb(31.559753%, 34.312439%, 76.679993%)" offset="0.394531"/><stop stop-opacity="1" stop-color="rgb(31.869507%, 34.364319%, 76.766968%)" offset="0.398438"/><stop stop-opacity="1" stop-color="rgb(32.180786%, 34.416199%, 76.855469%)" offset="0.402344"/><stop stop-opacity="1" stop-color="rgb(32.492065%, 34.469604%, 76.942444%)" offset="0.40625"/><stop stop-opacity="1" stop-color="rgb(32.803345%, 34.521484%, 77.029419%)" offset="0.410156"/><stop stop-opacity="1" stop-color="rgb(33.114624%, 34.573364%, 77.11792%)" offset="0.414062"/><stop stop-opacity="1" stop-color="rgb(33.424377%, 34.625244%, 77.204895%)" offset="0.417969"/><stop stop-opacity="1" stop-color="rgb(33.735657%, 34.67865%, 77.29187%)" offset="0.421875"/><stop stop-opacity="1" stop-color="rgb(34.046936%, 34.73053%, 77.380371%)" offset="0.425781"/><stop stop-opacity="1" stop-color="rgb(34.358215%, 34.78241%, 77.467346%)" offset="0.429688"/><stop stop-opacity="1" stop-color="rgb(34.667969%, 34.835815%, 77.554321%)" offset="0.433594"/><stop stop-opacity="1" stop-color="rgb(34.979248%, 34.887695%, 77.642822%)" offset="0.4375"/><stop stop-opacity="1" stop-color="rgb(35.290527%, 34.939575%, 77.729797%)" offset="0.441406"/><stop stop-opacity="1" stop-color="rgb(35.601807%, 34.992981%, 77.816772%)" offset="0.445312"/><stop stop-opacity="1" stop-color="rgb(35.913086%, 35.044861%, 77.905273%)" offset="0.449219"/><stop stop-opacity="1" stop-color="rgb(36.222839%, 35.096741%, 77.992249%)" offset="0.453125"/><stop stop-opacity="1" stop-color="rgb(36.534119%, 35.150146%, 78.08075%)" offset="0.457031"/><stop stop-opacity="1" stop-color="rgb(36.845398%, 35.202026%, 78.167725%)" offset="0.460938"/><stop stop-opacity="1" stop-color="rgb(37.156677%, 35.253906%, 78.2547%)" offset="0.464844"/><stop stop-opacity="1" stop-color="rgb(37.466431%, 35.305786%, 78.343201%)" offset="0.46875"/><stop stop-opacity="1" stop-color="rgb(37.77771%, 35.359192%, 78.430176%)" offset="0.472656"/><stop stop-opacity="1" stop-color="rgb(38.088989%, 35.411072%, 78.517151%)" offset="0.476562"/><stop stop-opacity="1" stop-color="rgb(38.400269%, 35.462952%, 78.605652%)" offset="0.480469"/><stop stop-opacity="1" stop-color="rgb(38.711548%, 35.516357%, 78.692627%)" offset="0.484375"/><stop stop-opacity="1" stop-color="rgb(39.021301%, 35.568237%, 78.779602%)" offset="0.488281"/><stop stop-opacity="1" stop-color="rgb(39.332581%, 35.620117%, 78.868103%)" offset="0.492188"/><stop stop-opacity="1" stop-color="rgb(39.64386%, 35.673523%, 78.955078%)" offset="0.496094"/><stop stop-opacity="1" stop-color="rgb(39.955139%, 35.725403%, 79.042053%)" offset="0.5"/><stop stop-opacity="1" stop-color="rgb(40.264893%, 35.777283%, 79.130554%)" offset="0.503906"/><stop stop-opacity="1" stop-color="rgb(40.576172%, 35.829163%, 79.217529%)" offset="0.507812"/><stop stop-opacity="1" stop-color="rgb(40.887451%, 35.882568%, 79.304504%)" offset="0.511719"/><stop stop-opacity="1" stop-color="rgb(41.19873%, 35.934448%, 79.393005%)" offset="0.515625"/><stop stop-opacity="1" stop-color="rgb(41.508484%, 35.986328%, 79.47998%)" offset="0.519531"/><stop stop-opacity="1" stop-color="rgb(41.819763%, 36.039734%, 79.566956%)" offset="0.523438"/><stop stop-opacity="1" stop-color="rgb(42.131042%, 36.091614%, 79.655457%)" offset="0.527344"/><stop stop-opacity="1" stop-color="rgb(42.442322%, 36.143494%, 79.742432%)" offset="0.53125"/><stop stop-opacity="1" stop-color="rgb(42.753601%, 36.196899%, 79.829407%)" offset="0.535156"/><stop stop-opacity="1" stop-color="rgb(43.063354%, 36.248779%, 79.917908%)" offset="0.539062"/><stop stop-opacity="1" stop-color="rgb(43.374634%, 36.300659%, 80.004883%)" offset="0.542969"/><stop stop-opacity="1" stop-color="rgb(43.685913%, 36.354065%, 80.091858%)" offset="0.546875"/><stop stop-opacity="1" stop-color="rgb(43.997192%, 36.405945%, 80.180359%)" offset="0.550781"/><stop stop-opacity="1" stop-color="rgb(44.306946%, 36.457825%, 80.267334%)" offset="0.554688"/><stop stop-opacity="1" stop-color="rgb(44.618225%, 36.509705%, 80.354309%)" offset="0.558594"/><stop stop-opacity="1" stop-color="rgb(44.929504%, 36.56311%, 80.44281%)" offset="0.5625"/><stop stop-opacity="1" stop-color="rgb(45.240784%, 36.61499%, 80.529785%)" offset="0.566406"/><stop stop-opacity="1" stop-color="rgb(45.552063%, 36.66687%, 80.61676%)" offset="0.570312"/><stop stop-opacity="1" stop-color="rgb(45.861816%, 36.720276%, 80.705261%)" offset="0.574219"/><stop stop-opacity="1" stop-color="rgb(46.173096%, 36.772156%, 80.792236%)" offset="0.578125"/><stop stop-opacity="1" stop-color="rgb(46.484375%, 36.824036%, 80.880737%)" offset="0.582031"/><stop stop-opacity="1" stop-color="rgb(46.795654%, 36.877441%, 80.967712%)" offset="0.585938"/><stop stop-opacity="1" stop-color="rgb(47.105408%, 36.929321%, 81.054688%)" offset="0.589844"/><stop stop-opacity="1" stop-color="rgb(47.416687%, 36.981201%, 81.143188%)" offset="0.59375"/><stop stop-opacity="1" stop-color="rgb(47.727966%, 37.033081%, 81.230164%)" offset="0.597656"/><stop stop-opacity="1" stop-color="rgb(48.039246%, 37.086487%, 81.317139%)" offset="0.601562"/><stop stop-opacity="1" stop-color="rgb(48.350525%, 37.138367%, 81.40564%)" offset="0.605469"/><stop stop-opacity="1" stop-color="rgb(48.660278%, 37.190247%, 81.492615%)" offset="0.609375"/><stop stop-opacity="1" stop-color="rgb(48.971558%, 37.243652%, 81.57959%)" offset="0.613281"/><stop stop-opacity="1" stop-color="rgb(49.282837%, 37.295532%, 81.668091%)" offset="0.617188"/><stop stop-opacity="1" stop-color="rgb(49.594116%, 37.347412%, 81.755066%)" offset="0.621094"/><stop stop-opacity="1" stop-color="rgb(49.90387%, 37.400818%, 81.842041%)" offset="0.625"/><stop stop-opacity="1" stop-color="rgb(50.215149%, 37.452698%, 81.930542%)" offset="0.628906"/><stop stop-opacity="1" stop-color="rgb(50.526428%, 37.504578%, 82.017517%)" offset="0.632812"/><stop stop-opacity="1" stop-color="rgb(50.837708%, 37.556458%, 82.104492%)" offset="0.636719"/><stop stop-opacity="1" stop-color="rgb(51.148987%, 37.609863%, 82.192993%)" offset="0.640625"/><stop stop-opacity="1" stop-color="rgb(51.45874%, 37.661743%, 82.279968%)" offset="0.644531"/><stop stop-opacity="1" stop-color="rgb(51.77002%, 37.713623%, 82.366943%)" offset="0.648438"/><stop stop-opacity="1" stop-color="rgb(52.081299%, 37.767029%, 82.455444%)" offset="0.652344"/><stop stop-opacity="1" stop-color="rgb(52.392578%, 37.818909%, 82.542419%)" offset="0.65625"/><stop stop-opacity="1" stop-color="rgb(52.702332%, 37.870789%, 82.629395%)" offset="0.660156"/><stop stop-opacity="1" stop-color="rgb(53.013611%, 37.924194%, 82.717896%)" offset="0.664062"/><stop stop-opacity="1" stop-color="rgb(53.32489%, 37.976074%, 82.804871%)" offset="0.667969"/><stop stop-opacity="1" stop-color="rgb(53.636169%, 38.027954%, 82.891846%)" offset="0.671875"/><stop stop-opacity="1" stop-color="rgb(53.947449%, 38.08136%, 82.980347%)" offset="0.675781"/><stop stop-opacity="1" stop-color="rgb(54.257202%, 38.13324%, 83.067322%)" offset="0.679688"/><stop stop-opacity="1" stop-color="rgb(54.568481%, 38.18512%, 83.154297%)" offset="0.683594"/><stop stop-opacity="1" stop-color="rgb(54.879761%, 38.237%, 83.242798%)" offset="0.6875"/><stop stop-opacity="1" stop-color="rgb(55.19104%, 38.290405%, 83.329773%)" offset="0.691406"/><stop stop-opacity="1" stop-color="rgb(55.500793%, 38.342285%, 83.416748%)" offset="0.695312"/><stop stop-opacity="1" stop-color="rgb(55.812073%, 38.394165%, 83.505249%)" offset="0.699219"/><stop stop-opacity="1" stop-color="rgb(56.123352%, 38.447571%, 83.592224%)" offset="0.703125"/><stop stop-opacity="1" stop-color="rgb(56.434631%, 38.499451%, 83.680725%)" offset="0.707031"/><stop stop-opacity="1" stop-color="rgb(56.745911%, 38.551331%, 83.7677%)" offset="0.710938"/><stop stop-opacity="1" stop-color="rgb(57.055664%, 38.604736%, 83.854675%)" offset="0.714844"/><stop stop-opacity="1" stop-color="rgb(57.366943%, 38.656616%, 83.943176%)" offset="0.71875"/><stop stop-opacity="1" stop-color="rgb(57.678223%, 38.708496%, 84.030151%)" offset="0.722656"/><stop stop-opacity="1" stop-color="rgb(57.989502%, 38.760376%, 84.117126%)" offset="0.726562"/><stop stop-opacity="1" stop-color="rgb(58.299255%, 38.813782%, 84.205627%)" offset="0.730469"/><stop stop-opacity="1" stop-color="rgb(58.610535%, 38.865662%, 84.292603%)" offset="0.734375"/><stop stop-opacity="1" stop-color="rgb(58.921814%, 38.917542%, 84.379578%)" offset="0.738281"/><stop stop-opacity="1" stop-color="rgb(59.233093%, 38.970947%, 84.468079%)" offset="0.742188"/><stop stop-opacity="1" stop-color="rgb(59.542847%, 39.022827%, 84.555054%)" offset="0.746094"/><stop stop-opacity="1" stop-color="rgb(59.854126%, 39.074707%, 84.642029%)" offset="0.75"/><stop stop-opacity="1" stop-color="rgb(60.165405%, 39.128113%, 84.73053%)" offset="0.753906"/><stop stop-opacity="1" stop-color="rgb(60.476685%, 39.179993%, 84.817505%)" offset="0.757812"/><stop stop-opacity="1" stop-color="rgb(60.787964%, 39.231873%, 84.90448%)" offset="0.761719"/><stop stop-opacity="1" stop-color="rgb(61.097717%, 39.285278%, 84.992981%)" offset="0.765625"/><stop stop-opacity="1" stop-color="rgb(61.408997%, 39.337158%, 85.079956%)" offset="0.769531"/><stop stop-opacity="1" stop-color="rgb(61.720276%, 39.389038%, 85.166931%)" offset="0.773438"/><stop stop-opacity="1" stop-color="rgb(62.031555%, 39.440918%, 85.255432%)" offset="0.777344"/><stop stop-opacity="1" stop-color="rgb(62.341309%, 39.494324%, 85.342407%)" offset="0.78125"/><stop stop-opacity="1" stop-color="rgb(62.652588%, 39.546204%, 85.429382%)" offset="0.785156"/><stop stop-opacity="1" stop-color="rgb(62.963867%, 39.598083%, 85.517883%)" offset="0.789062"/><stop stop-opacity="1" stop-color="rgb(63.275146%, 39.651489%, 85.604858%)" offset="0.792969"/><stop stop-opacity="1" stop-color="rgb(63.586426%, 39.703369%, 85.691833%)" offset="0.796875"/><stop stop-opacity="1" stop-color="rgb(63.896179%, 39.755249%, 85.780334%)" offset="0.800781"/><stop stop-opacity="1" stop-color="rgb(64.207458%, 39.808655%, 85.86731%)" offset="0.804688"/><stop stop-opacity="1" stop-color="rgb(64.518738%, 39.860535%, 85.954285%)" offset="0.808594"/><stop stop-opacity="1" stop-color="rgb(64.830017%, 39.912415%, 86.042786%)" offset="0.8125"/><stop stop-opacity="1" stop-color="rgb(65.139771%, 39.964294%, 86.129761%)" offset="0.816406"/><stop stop-opacity="1" stop-color="rgb(65.45105%, 40.0177%, 86.216736%)" offset="0.820312"/><stop stop-opacity="1" stop-color="rgb(65.762329%, 40.06958%, 86.305237%)" offset="0.824219"/><stop stop-opacity="1" stop-color="rgb(66.073608%, 40.12146%, 86.392212%)" offset="0.828125"/><stop stop-opacity="1" stop-color="rgb(66.384888%, 40.174866%, 86.480713%)" offset="0.832031"/><stop stop-opacity="1" stop-color="rgb(66.694641%, 40.226746%, 86.567688%)" offset="0.835938"/><stop stop-opacity="1" stop-color="rgb(67.00592%, 40.278625%, 86.654663%)" offset="0.839844"/><stop stop-opacity="1" stop-color="rgb(67.3172%, 40.332031%, 86.743164%)" offset="0.84375"/><stop stop-opacity="1" stop-color="rgb(67.628479%, 40.383911%, 86.830139%)" offset="0.847656"/><stop stop-opacity="1" stop-color="rgb(67.938232%, 40.435791%, 86.917114%)" offset="0.851562"/><stop stop-opacity="1" stop-color="rgb(68.249512%, 40.489197%, 87.005615%)" offset="0.855469"/><stop stop-opacity="1" stop-color="rgb(68.560791%, 40.541077%, 87.09259%)" offset="0.859375"/><stop stop-opacity="1" stop-color="rgb(68.87207%, 40.592957%, 87.179565%)" offset="0.863281"/><stop stop-opacity="1" stop-color="rgb(69.18335%, 40.644836%, 87.268066%)" offset="0.867188"/><stop stop-opacity="1" stop-color="rgb(69.493103%, 40.698242%, 87.355042%)" offset="0.871094"/><stop stop-opacity="1" stop-color="rgb(69.804382%, 40.750122%, 87.442017%)" offset="0.875"/><stop stop-opacity="1" stop-color="rgb(70.115662%, 40.802002%, 87.530518%)" offset="0.878906"/><stop stop-opacity="1" stop-color="rgb(70.426941%, 40.855408%, 87.617493%)" offset="0.882812"/><stop stop-opacity="1" stop-color="rgb(70.736694%, 40.907288%, 87.704468%)" offset="0.886719"/><stop stop-opacity="1" stop-color="rgb(71.047974%, 40.959167%, 87.792969%)" offset="0.890625"/><stop stop-opacity="1" stop-color="rgb(71.359253%, 41.012573%, 87.879944%)" offset="0.894531"/><stop stop-opacity="1" stop-color="rgb(71.670532%, 41.064453%, 87.966919%)" offset="0.898438"/><stop stop-opacity="1" stop-color="rgb(71.981812%, 41.116333%, 88.05542%)" offset="0.902344"/><stop stop-opacity="1" stop-color="rgb(72.291565%, 41.168213%, 88.142395%)" offset="0.90625"/><stop stop-opacity="1" stop-color="rgb(72.602844%, 41.221619%, 88.22937%)" offset="0.910156"/><stop stop-opacity="1" stop-color="rgb(72.914124%, 41.273499%, 88.317871%)" offset="0.914062"/><stop stop-opacity="1" stop-color="rgb(73.225403%, 41.325378%, 88.404846%)" offset="0.917969"/><stop stop-opacity="1" stop-color="rgb(73.535156%, 41.378784%, 88.491821%)" offset="0.921875"/><stop stop-opacity="1" stop-color="rgb(73.846436%, 41.430664%, 88.580322%)" offset="0.925781"/><stop stop-opacity="1" stop-color="rgb(74.157715%, 41.482544%, 88.667297%)" offset="0.929688"/><stop stop-opacity="1" stop-color="rgb(74.468994%, 41.53595%, 88.754272%)" offset="0.933594"/><stop stop-opacity="1" stop-color="rgb(74.780273%, 41.58783%, 88.842773%)" offset="0.9375"/><stop stop-opacity="1" stop-color="rgb(75.090027%, 41.639709%, 88.929749%)" offset="0.941406"/><stop stop-opacity="1" stop-color="rgb(75.401306%, 41.693115%, 89.01825%)" offset="0.945312"/><stop stop-opacity="1" stop-color="rgb(75.712585%, 41.744995%, 89.105225%)" offset="0.949219"/><stop stop-opacity="1" stop-color="rgb(76.023865%, 41.796875%, 89.1922%)" offset="0.953125"/><stop stop-opacity="1" stop-color="rgb(76.333618%, 41.848755%, 89.280701%)" offset="0.957031"/><stop stop-opacity="1" stop-color="rgb(76.644897%, 41.902161%, 89.367676%)" offset="0.960938"/><stop stop-opacity="1" stop-color="rgb(76.956177%, 41.954041%, 89.454651%)" offset="0.964844"/><stop stop-opacity="1" stop-color="rgb(77.267456%, 42.00592%, 89.543152%)" offset="0.96875"/><stop stop-opacity="1" stop-color="rgb(77.578735%, 42.059326%, 89.630127%)" offset="0.972656"/><stop stop-opacity="1" stop-color="rgb(77.888489%, 42.111206%, 89.717102%)" offset="0.976562"/><stop stop-opacity="1" stop-color="rgb(78.199768%, 42.163086%, 89.805603%)" offset="0.980469"/><stop stop-opacity="1" stop-color="rgb(78.511047%, 42.216492%, 89.892578%)" offset="0.984375"/><stop stop-opacity="1" stop-color="rgb(78.822327%, 42.268372%, 89.979553%)" offset="0.988281"/><stop stop-opacity="1" stop-color="rgb(79.13208%, 42.320251%, 90.068054%)" offset="0.992188"/><stop stop-opacity="1" stop-color="rgb(79.443359%, 42.372131%, 90.155029%)" offset="0.996094"/><stop stop-opacity="1" stop-color="rgb(79.598999%, 42.399597%, 90.19928%)" offset="1"/></radialGradient><clipPath id="3c0e6fa153"><path d="M 6.835938 11.195312 L 10 11.195312 L 10 16 L 6.835938 16 Z M 6.835938 11.195312 " clip-rule="nonzero"/></clipPath><clipPath id="8837cbe24e"><path d="M 7 11.195312 L 17.941406 11.195312 L 17.941406 24.515625 L 7 24.515625 Z M 7 11.195312 " clip-rule="nonzero"/></clipPath><clipPath id="274a60c3f1"><path d="M 20.738281 9.285156 L 59.964844 9.285156 L 59.964844 25.570312 L 20.738281 25.570312 Z M 20.738281 9.285156 " clip-rule="nonzero"/></clipPath></defs><g clip-path="url(#1ef72f159f)"><g clip-path="url(#eac3942f8a)"><path fill="url(#26fe883827)" d="M 3.320312 9.285156 L 3.320312 26.707031 L 20.738281 26.707031 L 20.738281 9.285156 Z M 3.320312 9.285156 " fill-rule="nonzero"/></g></g><g clip-path="url(#3c0e6fa153)"><path fill="#ffffff" d="M 8.832031 11.195312 C 9.148438 11.648438 9.410156 12.117188 9.625 12.605469 C 9.46875 12.730469 9.3125 12.867188 9.167969 13.011719 C 8.550781 13.628906 8.101562 14.375 7.851562 15.191406 C 7.808594 14.851562 7.738281 14.527344 7.640625 14.207031 C 7.464844 13.640625 7.199219 13.09375 6.835938 12.570312 L 8.828125 11.195312 Z M 8.832031 11.195312 " fill-opacity="1" fill-rule="evenodd"/></g><g clip-path="url(#8837cbe24e)"><path fill="#ffffff" d="M 12.921875 11.746094 C 14.308594 11.746094 15.5625 12.308594 16.472656 13.214844 C 17.378906 14.125 17.941406 15.378906 17.941406 16.765625 C 17.941406 18.148438 17.378906 19.402344 16.472656 20.3125 C 15.566406 21.21875 14.308594 21.78125 12.921875 21.78125 C 11.539062 21.78125 11.316406 21.582031 10.628906 21.222656 L 10.628906 17.960938 C 10.75 18.195312 10.90625 18.410156 11.09375 18.59375 C 11.558594 19.0625 12.207031 19.351562 12.921875 19.351562 C 13.640625 19.351562 14.285156 19.066406 14.753906 18.59375 C 15.222656 18.128906 15.511719 17.480469 15.511719 16.765625 C 15.511719 16.046875 15.222656 15.402344 14.753906 14.933594 C 14.289062 14.464844 13.640625 14.175781 12.921875 14.175781 C 12.207031 14.175781 11.5625 14.460938 11.09375 14.933594 C 10.574219 15.453125 10.335938 16.160156 10.335938 16.894531 L 10.335938 24.382812 L 7.929688 24.382812 L 7.925781 16.316406 C 7.925781 13.796875 10.480469 11.746094 12.921875 11.746094 Z M 12.921875 11.746094 " fill-opacity="1" fill-rule="evenodd"/></g><g clip-path="url(#274a60c3f1)"><path fill="#dad7f7" d="M 34.144531 25.234375 C 35.15625 25.234375 36.078125 24.65625 36.503906 23.75 L 40.207031 15.875 L 43.910156 23.75 C 44.335938 24.65625 45.253906 25.234375 46.269531 25.234375 L 59.675781 25.234375 C 59.675781 24.359375 59.3125 23.566406 58.730469 22.992188 C 58.148438 22.421875 57.34375 22.066406 56.453125 22.066406 L 47.921875 22.066406 C 47.15625 22.066406 46.460938 21.628906 46.140625 20.945312 L 40.851562 9.695312 C 40.734375 9.449219 40.484375 9.292969 40.210938 9.292969 C 39.9375 9.292969 39.6875 9.449219 39.570312 9.695312 L 34.273438 20.945312 C 33.953125 21.628906 33.257812 22.066406 32.492188 22.066406 L 23.960938 22.066406 C 22.179688 22.066406 20.738281 23.484375 20.738281 25.234375 Z M 54.433594 16.832031 L 46.6875 16.832031 C 46.6875 18.585938 47.777344 20.003906 49.117188 20.003906 L 56.863281 20.003906 C 56.863281 18.253906 55.773438 16.832031 54.433594 16.832031 Z M 26.195312 16.832031 L 33.941406 16.832031 C 33.941406 18.585938 32.855469 20.003906 31.511719 20.003906 L 23.765625 20.003906 C 23.765625 18.253906 24.855469 16.832031 26.195312 16.832031 " fill-opacity="1" fill-rule="nonzero"/></g><g fill="#004aad" fill-opacity="1"><g transform="translate(21.151489, 21.299724)"><g><path d="M 5.746094 -4.582031 C 5.746094 -4.191406 5.65625 -3.832031 5.476562 -3.507812 C 5.296875 -3.183594 5.019531 -2.921875 4.648438 -2.722656 C 4.277344 -2.523438 3.8125 -2.425781 3.261719 -2.425781 L 2.242188 -2.425781 L 2.242188 0 L 0.597656 0 L 0.597656 -6.757812 L 3.261719 -6.757812 C 3.800781 -6.757812 4.257812 -6.664062 4.628906 -6.476562 C 5 -6.289062 5.28125 -6.035156 5.464844 -5.707031 C 5.652344 -5.378906 5.746094 -5.003906 5.746094 -4.582031 Z M 3.136719 -3.734375 C 3.453125 -3.734375 3.6875 -3.808594 3.839844 -3.957031 C 3.992188 -4.101562 4.070312 -4.3125 4.070312 -4.582031 C 4.070312 -4.851562 3.992188 -5.058594 3.839844 -5.207031 C 3.6875 -5.355469 3.453125 -5.429688 3.136719 -5.429688 L 2.242188 -5.429688 L 2.242188 -3.734375 Z M 3.136719 -3.734375 "/></g></g></g><g fill="#004aad" fill-opacity="1"><g transform="translate(26.598183, 21.299724)"><g><path d="M 2.214844 -6.757812 L 2.214844 -2.714844 C 2.214844 -2.308594 2.3125 -2 2.511719 -1.78125 C 2.710938 -1.5625 3.003906 -1.453125 3.386719 -1.453125 C 3.773438 -1.453125 4.066406 -1.5625 4.273438 -1.78125 C 4.476562 -2 4.582031 -2.308594 4.582031 -2.714844 L 4.582031 -6.757812 L 6.226562 -6.757812 L 6.226562 -2.722656 C 6.226562 -2.121094 6.097656 -1.609375 5.839844 -1.191406 C 5.585938 -0.777344 5.238281 -0.460938 4.808594 -0.25 C 4.375 -0.0390625 3.890625 0.0664062 3.359375 0.0664062 C 2.828125 0.0664062 2.351562 -0.0351562 1.929688 -0.246094 C 1.507812 -0.453125 1.175781 -0.769531 0.933594 -1.1875 C 0.691406 -1.609375 0.566406 -2.121094 0.566406 -2.722656 L 0.566406 -6.757812 Z M 2.214844 -6.757812 "/></g></g></g><g fill="#004aad" fill-opacity="1"><g transform="translate(32.824364, 21.299724)"><g><path d="M 3.042969 0.0664062 C 2.546875 0.0664062 2.105469 -0.0117188 1.714844 -0.171875 C 1.320312 -0.332031 1.007812 -0.570312 0.773438 -0.886719 C 0.539062 -1.199219 0.417969 -1.578125 0.402344 -2.019531 L 2.15625 -2.019531 C 2.179688 -1.769531 2.269531 -1.578125 2.414062 -1.449219 C 2.5625 -1.316406 2.753906 -1.25 2.992188 -1.25 C 3.238281 -1.25 3.429688 -1.308594 3.570312 -1.417969 C 3.710938 -1.53125 3.78125 -1.6875 3.78125 -1.886719 C 3.78125 -2.054688 3.726562 -2.191406 3.613281 -2.300781 C 3.5 -2.410156 3.363281 -2.5 3.199219 -2.570312 C 3.035156 -2.640625 2.804688 -2.71875 2.503906 -2.808594 C 2.066406 -2.945312 1.710938 -3.078125 1.433594 -3.214844 C 1.15625 -3.347656 0.921875 -3.546875 0.722656 -3.8125 C 0.523438 -4.074219 0.421875 -4.417969 0.421875 -4.839844 C 0.421875 -5.46875 0.652344 -5.960938 1.105469 -6.316406 C 1.5625 -6.675781 2.15625 -6.851562 2.886719 -6.851562 C 3.632812 -6.851562 4.230469 -6.675781 4.6875 -6.316406 C 5.140625 -5.960938 5.386719 -5.464844 5.417969 -4.832031 L 3.636719 -4.832031 C 3.625 -5.050781 3.542969 -5.222656 3.398438 -5.347656 C 3.25 -5.472656 3.058594 -5.535156 2.828125 -5.535156 C 2.628906 -5.535156 2.46875 -5.480469 2.347656 -5.375 C 2.226562 -5.269531 2.164062 -5.117188 2.164062 -4.917969 C 2.164062 -4.699219 2.269531 -4.53125 2.472656 -4.40625 C 2.679688 -4.285156 3 -4.152344 3.4375 -4.011719 C 3.871094 -3.867188 4.226562 -3.722656 4.5 -3.589844 C 4.773438 -3.453125 5.007812 -3.257812 5.207031 -3.003906 C 5.40625 -2.746094 5.503906 -2.414062 5.503906 -2.011719 C 5.503906 -1.625 5.40625 -1.277344 5.210938 -0.960938 C 5.015625 -0.648438 4.730469 -0.398438 4.359375 -0.210938 C 3.988281 -0.0273438 3.546875 0.0664062 3.042969 0.0664062 Z M 3.042969 0.0664062 "/></g></g></g><g fill="#004aad" fill-opacity="1"><g transform="translate(38.184449, 21.299724)"><g><path d="M 5.457031 -6.757812 L 5.457031 -5.4375 L 3.667969 -5.4375 L 3.667969 0 L 2.019531 0 L 2.019531 -5.4375 L 0.230469 -5.4375 L 0.230469 -6.757812 Z M 5.457031 -6.757812 "/></g></g></g><g fill="#004aad" fill-opacity="1"><g transform="translate(43.313576, 21.299724)"><g><path d="M 4.800781 -1.191406 L 2.28125 -1.191406 L 1.875 0 L 0.152344 0 L 2.597656 -6.757812 L 4.503906 -6.757812 L 6.949219 0 L 5.207031 0 Z M 4.378906 -2.464844 L 3.542969 -4.9375 L 2.714844 -2.464844 Z M 4.378906 -2.464844 "/></g></g></g><g fill="#004aad" fill-opacity="1"><g transform="translate(49.8477, 21.299724)"><g><path d="M 4.511719 0 L 2.242188 -2.984375 L 2.242188 0 L 0.597656 0 L 0.597656 -6.757812 L 2.242188 -6.757812 L 2.242188 -3.792969 L 4.496094 -6.757812 L 6.429688 -6.757812 L 3.8125 -3.445312 L 6.523438 0 Z M 4.511719 0 "/></g></g></g><g fill="#004aad" fill-opacity="1"><g transform="translate(55.996893, 21.299724)"><g><path d="M 4.800781 -1.191406 L 2.28125 -1.191406 L 1.875 0 L 0.152344 0 L 2.597656 -6.757812 L 4.503906 -6.757812 L 6.949219 0 L 5.207031 0 Z M 4.378906 -2.464844 L 3.542969 -4.9375 L 2.714844 -2.464844 Z M 4.378906 -2.464844 "/></g></g></g><g fill="#000000" fill-opacity="1"><g transform="translate(60.307613, 24.462098)"><g><path d="M 0.246094 0 L 0.246094 -1.683594 L 0.886719 -1.683594 C 1.003906 -1.683594 1.105469 -1.660156 1.191406 -1.617188 C 1.28125 -1.574219 1.347656 -1.511719 1.394531 -1.429688 C 1.441406 -1.351562 1.46875 -1.253906 1.46875 -1.140625 C 1.46875 -1.007812 1.433594 -0.894531 1.363281 -0.804688 C 1.289062 -0.714844 1.195312 -0.65625 1.070312 -0.625 L 1.492188 0 L 1.238281 0 L 0.828125 -0.605469 L 0.457031 -0.605469 L 0.457031 0 Z M 0.457031 -0.804688 L 0.863281 -0.804688 C 0.988281 -0.804688 1.082031 -0.835938 1.148438 -0.894531 C 1.21875 -0.953125 1.25 -1.035156 1.25 -1.140625 C 1.25 -1.25 1.21875 -1.332031 1.148438 -1.394531 C 1.082031 -1.453125 0.988281 -1.480469 0.863281 -1.480469 L 0.457031 -1.480469 Z M 0.457031 -0.804688 "/></g></g></g><g fill="#000000" fill-opacity="1"><g transform="translate(62.616608, 24.462098)"><g><path d="M 0.0390625 0 L 0.734375 -1.683594 L 0.929688 -1.683594 L 1.625 0 L 1.398438 0 L 1.242188 -0.382812 L 0.421875 -0.382812 L 0.265625 0 Z M 0.503906 -0.578125 L 1.160156 -0.578125 L 0.832031 -1.386719 Z M 0.503906 -0.578125 "/></g></g></g><g fill="#000000" fill-opacity="1"><g transform="translate(64.952055, 24.462098)"><g><path d="M 0.804688 0.03125 C 0.671875 0.03125 0.554688 0.0078125 0.457031 -0.0390625 C 0.355469 -0.0820312 0.28125 -0.148438 0.226562 -0.230469 C 0.171875 -0.3125 0.144531 -0.40625 0.144531 -0.515625 L 0.355469 -0.515625 C 0.359375 -0.410156 0.402344 -0.324219 0.484375 -0.261719 C 0.566406 -0.203125 0.675781 -0.171875 0.804688 -0.171875 C 0.925781 -0.171875 1.019531 -0.195312 1.089844 -0.242188 C 1.15625 -0.285156 1.191406 -0.351562 1.191406 -0.433594 C 1.191406 -0.515625 1.160156 -0.578125 1.09375 -0.625 C 1.023438 -0.671875 0.914062 -0.710938 0.761719 -0.746094 C 0.554688 -0.796875 0.402344 -0.863281 0.308594 -0.9375 C 0.210938 -1.015625 0.164062 -1.121094 0.164062 -1.25 C 0.164062 -1.394531 0.21875 -1.507812 0.324219 -1.589844 C 0.433594 -1.671875 0.582031 -1.714844 0.765625 -1.714844 C 0.953125 -1.714844 1.105469 -1.667969 1.214844 -1.574219 C 1.324219 -1.476562 1.378906 -1.347656 1.378906 -1.1875 L 1.171875 -1.1875 C 1.167969 -1.285156 1.132812 -1.367188 1.058594 -1.425781 C 0.988281 -1.484375 0.886719 -1.511719 0.765625 -1.511719 C 0.644531 -1.511719 0.550781 -1.488281 0.480469 -1.441406 C 0.414062 -1.394531 0.378906 -1.332031 0.378906 -1.25 C 0.378906 -1.183594 0.410156 -1.125 0.476562 -1.078125 C 0.539062 -1.027344 0.652344 -0.984375 0.816406 -0.945312 C 1.03125 -0.890625 1.183594 -0.828125 1.273438 -0.746094 C 1.367188 -0.667969 1.410156 -0.566406 1.410156 -0.441406 C 1.410156 -0.296875 1.355469 -0.179688 1.246094 -0.0976562 C 1.136719 -0.0117188 0.988281 0.03125 0.804688 0.03125 Z M 0.804688 0.03125 "/></g></g></g><g fill="#000000" fill-opacity="1"><g transform="translate(67.179286, 24.462098)"><g><path d="M 0.0390625 0 L 0.734375 -1.683594 L 0.929688 -1.683594 L 1.625 0 L 1.398438 0 L 1.242188 -0.382812 L 0.421875 -0.382812 L 0.265625 0 Z M 0.503906 -0.578125 L 1.160156 -0.578125 L 0.832031 -1.386719 Z M 0.503906 -0.578125 "/></g></g></g></svg>