<svg xmlns="http://www.w3.org/2000/svg" xmlns:xlink="http://www.w3.org/1999/xlink" width="500" zoomAndPan="magnify" viewBox="0 0 375 374.999991" height="500" preserveAspectRatio="xMidYMid meet" version="1.0"><defs><clipPath id="0f327bb297"><path d="M 3.859375 186 L 77 186 L 77 276 L 3.859375 276 Z M 3.859375 186 " clip-rule="nonzero"/></clipPath><clipPath id="8c588d23d7"><path d="M 94 5.238281 L 221 5.238281 L 221 365.238281 L 94 365.238281 Z M 94 5.238281 " clip-rule="nonzero"/></clipPath><clipPath id="59dff9b46a"><path d="M 201 5.238281 L 365 5.238281 L 365 276 L 201 276 Z M 201 5.238281 " clip-rule="nonzero"/></clipPath></defs><g clip-path="url(#0f327bb297)"><path fill="#bf3131" d="M 3.96875 275.234375 C 3.96875 272.644531 4.078125 270.0625 4.300781 267.484375 C 4.527344 264.90625 4.859375 262.34375 5.300781 259.792969 C 5.746094 257.242188 6.296875 254.71875 6.960938 252.214844 C 7.621094 249.714844 8.386719 247.246094 9.261719 244.808594 C 10.136719 242.371094 11.113281 239.980469 12.195312 237.628906 C 13.273438 235.273438 14.453125 232.972656 15.730469 230.722656 C 17.011719 228.472656 18.382812 226.285156 19.851562 224.152344 C 21.316406 222.019531 22.875 219.953125 24.519531 217.957031 C 26.164062 215.960938 27.890625 214.035156 29.703125 212.1875 C 31.511719 210.339844 33.398438 208.570312 35.363281 206.882812 C 37.328125 205.199219 39.359375 203.597656 41.460938 202.089844 C 43.558594 200.578125 45.722656 199.160156 47.945312 197.832031 C 50.167969 196.507812 52.445312 195.28125 54.773438 194.152344 C 57.101562 193.023438 59.472656 191.996094 61.890625 191.074219 C 64.308594 190.148438 66.761719 189.328125 69.25 188.617188 C 71.738281 187.902344 74.25 187.296875 76.789062 186.800781 L 76.789062 275.234375 Z M 3.96875 275.234375 " fill-opacity="1" fill-rule="evenodd"/></g><g clip-path="url(#8c588d23d7)"><path fill="#38b6ff" d="M 184.144531 140.101562 L 184.144531 275.234375 C 184.144531 276.707031 184.109375 278.183594 184.039062 279.65625 C 183.964844 281.125 183.855469 282.597656 183.710938 284.0625 C 183.566406 285.53125 183.386719 286.996094 183.171875 288.453125 C 182.953125 289.910156 182.703125 291.363281 182.414062 292.808594 C 182.128906 294.253906 181.804688 295.695312 181.445312 297.125 C 181.089844 298.554688 180.695312 299.972656 180.265625 301.386719 C 179.839844 302.796875 179.375 304.195312 178.878906 305.582031 C 178.382812 306.972656 177.851562 308.347656 177.289062 309.710938 C 176.722656 311.070312 176.125 312.417969 175.496094 313.75 C 174.867188 315.085938 174.203125 316.402344 173.507812 317.703125 C 172.8125 319 172.085938 320.285156 171.328125 321.550781 C 170.570312 322.8125 169.78125 324.058594 168.964844 325.285156 C 168.144531 326.511719 167.296875 327.714844 166.417969 328.898438 C 165.539062 330.085938 164.632812 331.246094 163.695312 332.386719 C 162.761719 333.527344 161.796875 334.640625 160.808594 335.734375 C 159.820312 336.828125 158.800781 337.894531 157.757812 338.9375 C 156.71875 339.980469 155.648438 340.996094 154.558594 341.984375 C 153.464844 342.976562 152.347656 343.9375 151.207031 344.875 C 150.070312 345.808594 148.90625 346.714844 147.722656 347.59375 C 146.539062 348.472656 145.332031 349.320312 144.109375 350.140625 C 142.882812 350.960938 141.636719 351.746094 140.371094 352.503906 C 139.109375 353.265625 137.824219 353.988281 136.523438 354.683594 C 135.222656 355.378906 133.90625 356.042969 132.574219 356.671875 C 131.242188 357.304688 129.894531 357.902344 128.53125 358.464844 C 127.171875 359.03125 125.796875 359.558594 124.40625 360.054688 C 123.019531 360.554688 121.621094 361.015625 120.207031 361.445312 C 118.796875 361.871094 117.378906 362.265625 115.945312 362.621094 C 114.515625 362.980469 113.078125 363.304688 111.632812 363.589844 C 110.1875 363.878906 108.734375 364.132812 107.277344 364.347656 C 105.816406 364.5625 104.355469 364.746094 102.886719 364.890625 C 101.421875 365.035156 99.949219 365.140625 98.476562 365.214844 C 97.003906 365.285156 95.53125 365.324219 94.058594 365.324219 L 94.058594 140.101562 C 94.058594 137.980469 94.105469 135.859375 94.207031 133.738281 C 94.304688 131.621094 94.457031 129.503906 94.65625 127.390625 C 94.855469 125.28125 95.105469 123.175781 95.402344 121.074219 C 95.699219 118.972656 96.050781 116.882812 96.445312 114.796875 C 96.84375 112.714844 97.289062 110.640625 97.785156 108.578125 C 98.277344 106.511719 98.820312 104.464844 99.414062 102.425781 C 100.003906 100.386719 100.644531 98.367188 101.332031 96.359375 C 102.015625 94.351562 102.75 92.359375 103.53125 90.386719 C 104.3125 88.414062 105.136719 86.460938 106.011719 84.527344 C 106.882812 82.59375 107.800781 80.683594 108.761719 78.792969 C 109.722656 76.902344 110.730469 75.035156 111.78125 73.191406 C 112.832031 71.347656 113.925781 69.53125 115.0625 67.738281 C 116.195312 65.945312 117.375 64.183594 118.59375 62.445312 C 119.8125 60.710938 121.070312 59.003906 122.371094 57.324219 C 123.671875 55.648438 125.007812 54.003906 126.386719 52.390625 C 127.761719 50.777344 129.175781 49.195312 130.628906 47.648438 C 132.078125 46.101562 133.566406 44.585938 135.089844 43.109375 C 136.613281 41.632812 138.167969 40.191406 139.757812 38.789062 C 141.347656 37.382812 142.972656 36.019531 144.625 34.691406 C 146.28125 33.363281 147.964844 32.074219 149.679688 30.828125 C 151.398438 29.578125 153.140625 28.371094 154.914062 27.207031 C 156.683594 26.039062 158.484375 24.914062 160.308594 23.835938 C 162.132812 22.753906 163.984375 21.714844 165.859375 20.71875 C 167.734375 19.726562 169.628906 18.777344 171.546875 17.871094 C 173.464844 16.96875 175.40625 16.109375 177.363281 15.292969 C 179.324219 14.480469 181.300781 13.714844 183.296875 12.992188 C 185.292969 12.273438 187.304688 11.597656 189.332031 10.972656 C 191.359375 10.347656 193.398438 9.769531 195.453125 9.238281 C 197.507812 8.710938 199.574219 8.230469 201.648438 7.796875 C 203.726562 7.363281 205.8125 6.980469 207.910156 6.648438 C 210.003906 6.3125 212.105469 6.027344 214.214844 5.792969 C 216.320312 5.558594 218.433594 5.371094 220.550781 5.238281 L 220.550781 95.882812 C 219.28125 96.132812 218.023438 96.433594 216.78125 96.792969 C 215.539062 97.148438 214.3125 97.558594 213.101562 98.019531 C 211.894531 98.480469 210.707031 98.996094 209.542969 99.558594 C 208.378906 100.125 207.242188 100.738281 206.128906 101.398438 C 205.019531 102.0625 203.9375 102.769531 202.886719 103.527344 C 201.835938 104.28125 200.820312 105.082031 199.839844 105.925781 C 198.855469 106.769531 197.914062 107.652344 197.007812 108.574219 C 196.101562 109.5 195.238281 110.460938 194.417969 111.460938 C 193.59375 112.460938 192.816406 113.492188 192.082031 114.558594 C 191.347656 115.625 190.664062 116.71875 190.023438 117.84375 C 189.382812 118.96875 188.796875 120.121094 188.253906 121.296875 C 187.714844 122.472656 187.226562 123.667969 186.789062 124.886719 C 186.351562 126.105469 185.96875 127.339844 185.640625 128.589844 C 185.308594 129.84375 185.03125 131.105469 184.8125 132.378906 C 184.589844 133.65625 184.421875 134.9375 184.3125 136.226562 C 184.203125 137.515625 184.144531 138.804688 184.144531 140.101562 Z M 184.144531 140.101562 " fill-opacity="1" fill-rule="evenodd"/></g><g clip-path="url(#59dff9b46a)"><path fill="#bf3131" d="M 237.828125 5.238281 C 239.988281 5.375 242.148438 5.5625 244.300781 5.804688 C 246.457031 6.046875 248.605469 6.335938 250.742188 6.683594 C 252.882812 7.027344 255.015625 7.421875 257.136719 7.867188 C 259.257812 8.316406 261.363281 8.8125 263.460938 9.359375 C 265.558594 9.910156 267.640625 10.507812 269.710938 11.15625 C 271.777344 11.804688 273.828125 12.5 275.863281 13.25 C 277.898438 13.996094 279.914062 14.792969 281.910156 15.636719 C 283.90625 16.480469 285.882812 17.371094 287.835938 18.308594 C 289.789062 19.25 291.71875 20.234375 293.625 21.265625 C 295.53125 22.300781 297.410156 23.375 299.265625 24.5 C 301.121094 25.621094 302.945312 26.789062 304.742188 28 C 306.542969 29.207031 308.308594 30.460938 310.046875 31.757812 C 311.785156 33.050781 313.492188 34.386719 315.164062 35.765625 C 316.839844 37.144531 318.476562 38.5625 320.082031 40.015625 C 321.6875 41.472656 323.257812 42.96875 324.789062 44.5 C 326.324219 46.03125 327.820312 47.597656 329.277344 49.203125 C 330.734375 50.808594 332.15625 52.445312 333.535156 54.117188 C 334.914062 55.789062 336.25 57.492188 337.546875 59.230469 C 338.84375 60.964844 340.101562 62.734375 341.3125 64.53125 C 342.523438 66.328125 343.691406 68.152344 344.816406 70.003906 C 345.941406 71.859375 347.019531 73.738281 348.054688 75.640625 C 349.089844 77.546875 350.074219 79.476562 351.015625 81.429688 C 351.957031 83.382812 352.851562 85.355469 353.699219 87.351562 C 354.542969 89.347656 355.339844 91.359375 356.089844 93.394531 C 356.839844 95.429688 357.539062 97.480469 358.191406 99.546875 C 358.839844 101.613281 359.441406 103.695312 359.992188 105.792969 C 360.539062 107.890625 361.039062 110 361.488281 112.117188 C 361.9375 114.238281 362.335938 116.371094 362.683594 118.507812 C 363.027344 120.648438 363.324219 122.796875 363.566406 124.949219 C 363.808594 127.101562 364 129.261719 364.140625 131.425781 C 364.277344 133.585938 364.367188 135.753906 364.402344 137.921875 C 364.433594 140.085938 364.417969 142.253906 364.347656 144.421875 C 364.28125 146.585938 364.160156 148.75 363.984375 150.910156 C 363.8125 153.070312 363.585938 155.226562 363.308594 157.375 C 363.03125 159.527344 362.703125 161.667969 362.324219 163.800781 C 361.941406 165.9375 361.511719 168.058594 361.03125 170.171875 C 360.546875 172.285156 360.015625 174.386719 359.429688 176.472656 C 358.847656 178.5625 358.214844 180.632812 357.53125 182.691406 C 356.847656 184.746094 356.117188 186.785156 355.335938 188.808594 C 354.554688 190.832031 353.722656 192.832031 352.847656 194.8125 C 351.96875 196.796875 351.042969 198.753906 350.070312 200.691406 C 349.101562 202.628906 348.082031 204.542969 347.019531 206.433594 C 345.953125 208.320312 344.84375 210.183594 343.691406 212.015625 C 342.539062 213.851562 341.339844 215.660156 340.101562 217.4375 C 338.859375 219.214844 337.578125 220.960938 336.253906 222.675781 C 334.929688 224.390625 333.5625 226.074219 332.160156 227.722656 C 330.753906 229.375 329.308594 230.988281 327.824219 232.570312 C 326.34375 234.152344 324.824219 235.695312 323.265625 237.203125 C 321.707031 238.710938 320.113281 240.179688 318.488281 241.609375 C 316.859375 243.039062 315.195312 244.429688 313.5 245.78125 C 311.804688 247.132812 310.078125 248.441406 308.320312 249.710938 C 306.5625 250.976562 304.777344 252.203125 302.957031 253.382812 C 301.140625 254.566406 299.296875 255.703125 297.425781 256.796875 C 295.554688 257.890625 293.65625 258.9375 291.734375 259.9375 C 289.8125 260.941406 287.867188 261.894531 285.898438 262.800781 C 283.929688 263.710938 281.941406 264.570312 279.933594 265.382812 C 277.921875 266.195312 275.894531 266.960938 273.847656 267.675781 C 271.804688 268.390625 269.742188 269.054688 267.664062 269.667969 C 265.585938 270.285156 263.492188 270.851562 261.386719 271.367188 C 259.28125 271.878906 257.164062 272.34375 255.035156 272.757812 C 252.910156 273.171875 250.773438 273.53125 248.628906 273.84375 C 246.484375 274.152344 244.332031 274.410156 242.171875 274.617188 C 240.015625 274.824219 237.855469 274.980469 235.6875 275.082031 C 233.523438 275.183594 231.359375 275.234375 229.191406 275.234375 L 201.414062 275.234375 L 201.414062 185.144531 L 229.191406 185.144531 C 230.574219 185.144531 231.957031 185.082031 233.335938 184.957031 C 234.71875 184.832031 236.089844 184.640625 237.449219 184.386719 C 238.8125 184.136719 240.160156 183.820312 241.492188 183.441406 C 242.824219 183.066406 244.136719 182.628906 245.429688 182.128906 C 246.722656 181.628906 247.988281 181.074219 249.230469 180.457031 C 250.472656 179.84375 251.683594 179.171875 252.863281 178.445312 C 254.042969 177.71875 255.183594 176.9375 256.292969 176.105469 C 257.398438 175.273438 258.464844 174.390625 259.492188 173.460938 C 260.519531 172.53125 261.5 171.554688 262.433594 170.535156 C 263.371094 169.511719 264.257812 168.449219 265.09375 167.347656 C 265.933594 166.242188 266.71875 165.105469 267.453125 163.929688 C 268.183594 162.753906 268.863281 161.546875 269.484375 160.308594 C 270.105469 159.070312 270.667969 157.804688 271.171875 156.515625 C 271.675781 155.226562 272.121094 153.914062 272.503906 152.585938 C 272.890625 151.253906 273.210938 149.90625 273.472656 148.546875 C 273.730469 147.1875 273.925781 145.816406 274.0625 144.4375 C 274.195312 143.058594 274.265625 141.675781 274.269531 140.289062 C 274.273438 138.90625 274.21875 137.523438 274.097656 136.144531 C 273.972656 134.761719 273.789062 133.390625 273.539062 132.027344 C 273.292969 130.664062 272.980469 129.316406 272.609375 127.984375 C 272.238281 126.648438 271.804688 125.335938 271.308594 124.039062 C 270.816406 122.746094 270.261719 121.476562 269.652344 120.234375 C 269.042969 118.992188 268.375 117.777344 267.652344 116.597656 C 266.929688 115.414062 266.152344 114.269531 265.324219 113.160156 C 264.496094 112.046875 263.617188 110.980469 262.691406 109.949219 C 261.761719 108.921875 260.789062 107.9375 259.773438 106.996094 C 258.753906 106.058594 257.695312 105.167969 256.59375 104.324219 C 255.496094 103.484375 254.359375 102.695312 253.183594 101.957031 C 252.011719 101.21875 250.808594 100.539062 249.570312 99.914062 C 248.335938 99.289062 247.074219 98.71875 245.785156 98.210938 C 244.496094 97.703125 243.1875 97.253906 241.859375 96.863281 C 240.527344 96.476562 239.183594 96.148438 237.824219 95.882812 Z M 237.828125 5.238281 " fill-opacity="1" fill-rule="evenodd"/></g></svg>