<svg xmlns="http://www.w3.org/2000/svg" xmlns:xlink="http://www.w3.org/1999/xlink" width="300" zoomAndPan="magnify" viewBox="0 0 224.87999 74.999997" height="100" preserveAspectRatio="xMidYMid meet" version="1.0"><defs><filter x="0%" y="0%" width="100%" height="100%" id="170d29b094"><feColorMatrix values="0 0 0 0 1 0 0 0 0 1 0 0 0 0 1 0 0 0 1 0" color-interpolation-filters="sRGB"/></filter><g/><clipPath id="681461318b"><path d="M 55.234375 20.433594 L 94.214844 20.433594 L 94.214844 59.414062 L 55.234375 59.414062 Z M 55.234375 20.433594 " clip-rule="nonzero"/></clipPath><mask id="65da985968"><g filter="url(#170d29b094)"><rect x="-22.487999" width="269.855988" fill="#000000" y="-7.5" height="89.999996" fill-opacity="0.1"/></g></mask><clipPath id="ffc2c2a1bf"><path d="M 1 25 L 37 25 L 37 31.273438 L 1 31.273438 Z M 1 25 " clip-rule="nonzero"/></clipPath><clipPath id="3c1a094c10"><path d="M 1 0.0898438 L 37 0.0898438 L 37 6 L 1 6 Z M 1 0.0898438 " clip-rule="nonzero"/></clipPath><clipPath id="d77749fdc1"><rect x="0" width="38" y="0" height="32"/></clipPath><mask id="14edad461c"><g filter="url(#170d29b094)"><rect x="-22.487999" width="269.855988" fill="#000000" y="-7.5" height="89.999996" fill-opacity="0.1"/></g></mask><clipPath id="573fa281d3"><path d="M 1 0.726562 L 7.910156 0.726562 L 7.910156 32.628906 L 1 32.628906 Z M 1 0.726562 " clip-rule="nonzero"/></clipPath><clipPath id="83b393abc9"><rect x="0" width="8" y="0" height="33"/></clipPath></defs><g clip-path="url(#681461318b)"><path fill="#69247c" d="M 61.945312 22.101562 L 93.265625 22.101562 C 93.722656 22.101562 94.089844 21.734375 94.089844 21.277344 C 94.089844 20.824219 93.722656 20.453125 93.265625 20.453125 L 61.816406 20.453125 C 58.253906 20.453125 55.363281 23.34375 55.363281 26.910156 C 55.363281 30.472656 58.253906 33.363281 61.816406 33.363281 C 58.253906 33.363281 55.363281 36.253906 55.363281 39.816406 C 55.363281 43.382812 58.253906 46.273438 61.816406 46.273438 C 58.175781 46.273438 55.238281 49.289062 55.367188 52.960938 C 55.492188 56.460938 58.472656 59.179688 61.972656 59.179688 L 93.269531 59.179688 C 93.722656 59.179688 94.089844 58.8125 94.089844 58.359375 C 94.089844 57.902344 93.722656 57.535156 93.269531 57.535156 L 61.945312 57.535156 C 59.257812 57.535156 56.96875 55.335938 57.011719 52.648438 C 57.054688 50.035156 59.195312 47.921875 61.820312 47.921875 L 93.269531 47.921875 C 93.722656 47.921875 94.089844 47.550781 94.089844 47.097656 L 94.089844 45.453125 C 94.089844 44.996094 93.722656 44.628906 93.269531 44.628906 L 61.945312 44.628906 C 59.257812 44.628906 56.964844 42.429688 57.011719 39.742188 C 57.054688 37.128906 59.195312 35.015625 61.816406 35.015625 L 93.265625 35.015625 C 93.722656 35.015625 94.089844 34.644531 94.089844 34.191406 L 94.089844 32.542969 C 94.089844 32.089844 93.722656 31.71875 93.265625 31.71875 L 61.816406 31.71875 C 59.191406 31.71875 57.050781 29.605469 57.007812 26.992188 C 56.964844 24.300781 59.257812 22.101562 61.945312 22.101562 Z M 61.945312 22.101562 " fill-opacity="1" fill-rule="nonzero"/></g><path fill="#faf3e4" d="M 61.816406 31.71875 C 59.167969 31.71875 57.011719 29.558594 57.011719 26.910156 C 57.011719 24.257812 59.167969 22.101562 61.816406 22.101562 L 92.972656 22.101562 L 92.972656 31.71875 Z M 92.972656 44.625 L 92.972656 35.007812 L 61.816406 35.007812 C 59.167969 35.007812 57.011719 37.167969 57.011719 39.816406 C 57.011719 42.46875 59.167969 44.625 61.816406 44.625 Z M 92.972656 57.535156 L 92.972656 47.917969 L 61.816406 47.917969 C 59.167969 47.917969 57.011719 50.078125 57.011719 52.726562 C 57.011719 55.378906 59.167969 57.535156 61.816406 57.535156 Z M 92.972656 57.535156 " fill-opacity="1" fill-rule="nonzero"/><g mask="url(#65da985968)"><g transform="matrix(1, 0, 0, 1, 56, 22)"><g clip-path="url(#d77749fdc1)"><g clip-path="url(#ffc2c2a1bf)"><path fill="#000000" d="M 1.007812 30.726562 C 1.007812 30.855469 1.019531 30.980469 1.027344 31.105469 C 1.222656 28.632812 3.292969 26.675781 5.816406 26.675781 L 36.972656 26.675781 L 36.972656 25.917969 L 5.816406 25.917969 C 3.167969 25.917969 1.007812 28.078125 1.007812 30.726562 Z M 1.007812 30.726562 " fill-opacity="1" fill-rule="nonzero"/></g><path fill="#000000" d="M 1.007812 17.816406 C 1.007812 17.945312 1.019531 18.070312 1.027344 18.195312 C 1.222656 15.722656 3.292969 13.765625 5.816406 13.765625 L 36.972656 13.765625 L 36.972656 13.007812 L 5.816406 13.007812 C 3.167969 13.011719 1.007812 15.167969 1.007812 17.816406 Z M 1.007812 17.816406 " fill-opacity="1" fill-rule="nonzero"/><g clip-path="url(#3c1a094c10)"><path fill="#000000" d="M 5.816406 0.101562 C 3.167969 0.101562 1.011719 2.257812 1.011719 4.910156 C 1.011719 5.035156 1.019531 5.164062 1.027344 5.289062 C 1.222656 2.8125 3.296875 0.859375 5.816406 0.859375 L 36.972656 0.859375 L 36.972656 0.101562 Z M 5.816406 0.101562 " fill-opacity="1" fill-rule="nonzero"/></g></g></g></g><path fill="#e6b187" d="M 92.972656 24.960938 L 61.089844 24.960938 L 61.089844 24.796875 L 92.972656 24.796875 Z M 92.972656 26.828125 L 61.089844 26.828125 L 61.089844 26.992188 L 92.972656 26.992188 Z M 92.972656 28.859375 L 61.089844 28.859375 L 61.089844 29.023438 L 92.972656 29.023438 Z M 92.972656 37.703125 L 61.089844 37.703125 L 61.089844 37.867188 L 92.972656 37.867188 Z M 92.972656 39.738281 L 61.089844 39.738281 L 61.089844 39.898438 L 92.972656 39.898438 Z M 92.972656 41.765625 L 61.089844 41.765625 L 61.089844 41.929688 L 92.972656 41.929688 Z M 92.972656 50.613281 L 61.089844 50.613281 L 61.089844 50.777344 L 92.972656 50.777344 Z M 92.972656 52.644531 L 61.089844 52.644531 L 61.089844 52.808594 L 92.972656 52.808594 Z M 92.972656 54.675781 L 61.089844 54.675781 L 61.089844 54.839844 L 92.972656 54.839844 Z M 92.972656 54.675781 " fill-opacity="1" fill-rule="nonzero"/><g mask="url(#14edad461c)"><g transform="matrix(1, 0, 0, 1, 83, 24)"><g clip-path="url(#83b393abc9)"><g clip-path="url(#573fa281d3)"><path fill="#000000" d="M 7.578125 32.355469 L 4.40625 29.613281 L 1.234375 32.355469 L 1.234375 0.796875 L 7.578125 0.796875 Z M 7.578125 32.355469 " fill-opacity="1" fill-rule="nonzero"/></g></g></g></g><path fill="#e6b187" d="M 89.871094 55.550781 L 86.699219 52.808594 L 83.53125 55.550781 L 83.53125 24.796875 L 89.871094 24.796875 Z M 89.871094 55.550781 " fill-opacity="1" fill-rule="nonzero"/><g fill="#69247c" fill-opacity="1"><g transform="translate(97.86399, 53.416881)"><g><path d="M 21.355469 -22.703125 C 21.445312 -22.074219 21.492188 -21.460938 21.492188 -20.863281 C 21.492188 -19.15625 21.148438 -17.542969 20.460938 -16.015625 C 20.070312 -15.269531 19.667969 -14.613281 19.246094 -14.042969 C 19.335938 -14.191406 19.382812 -14.371094 19.382812 -14.582031 C 19.382812 -14.820312 19.367188 -15 19.335938 -15.121094 C 19.308594 -15.238281 19.292969 -15.390625 19.292969 -15.570312 C 19.292969 -15.71875 19.324219 -15.792969 19.382812 -15.792969 L 19.335938 -15.792969 C 19.335938 -16.003906 19.324219 -16.152344 19.292969 -16.242188 C 19.292969 -16.421875 19.351562 -16.585938 19.472656 -16.734375 C 19.292969 -16.765625 19.234375 -16.839844 19.292969 -16.960938 C 19.292969 -17.078125 19.277344 -17.152344 19.246094 -17.183594 L 19.246094 -14.042969 C 18.53125 -13.054688 17.632812 -12.261719 16.554688 -11.664062 L 16.511719 -11.664062 C 15.074219 -10.886719 13.476562 -10.257812 11.710938 -9.78125 C 11.203125 -9.601562 10.5 -9.4375 9.601562 -9.289062 L 9.199219 -9.199219 L 8.839844 -9.152344 L 8.792969 -9.152344 C 8.792969 -9.210938 8.765625 -9.242188 8.703125 -9.242188 C 8.554688 -9.242188 8.480469 -9.199219 8.480469 -9.109375 C 8.480469 -9.078125 8.496094 -9.0625 8.523438 -9.0625 L 7.132812 -8.882812 L 6.863281 -0.898438 C 6.863281 -0.300781 6.566406 0 5.96875 0 L 0.449219 0 C 0.179688 0 -0.0390625 -0.0898438 -0.203125 -0.269531 C -0.367188 -0.449219 -0.449219 -0.671875 -0.449219 -0.941406 L -0.269531 -4.308594 L -0.179688 -4.21875 C -0.0898438 -4.246094 0.0585938 -4.335938 0.269531 -4.488281 L 0.132812 -4.578125 L -0.0898438 -4.578125 L -0.269531 -4.441406 L -0.179688 -6.820312 L -0.0429688 -6.820312 C -0.0429688 -6.878906 -0.0742188 -6.910156 -0.132812 -6.910156 L -0.179688 -6.953125 L 0.808594 -28.175781 C 0.867188 -28.625 1.105469 -28.894531 1.527344 -28.984375 C 7.058594 -30.121094 10.167969 -30.734375 10.859375 -30.824219 C 10.976562 -30.824219 11.140625 -30.832031 11.351562 -30.84375 C 11.558594 -30.859375 11.800781 -30.898438 12.070312 -30.957031 L 13.28125 -31.003906 L 13.324219 -31.003906 C 15.660156 -30.882812 17.511719 -30.074219 18.890625 -28.578125 C 20.265625 -27.085938 21.085938 -25.125 21.355469 -22.703125 Z M 2.378906 -26.203125 L 2.378906 -26.335938 L 2.289062 -26.335938 L 2.289062 -26.203125 Z M 7.492188 -16.0625 C 8.449219 -16.183594 9.167969 -16.300781 9.644531 -16.421875 C 11.113281 -16.898438 12.21875 -17.453125 12.964844 -18.082031 C 13.535156 -18.558594 13.910156 -19.1875 14.089844 -19.964844 C 14.117188 -20.113281 14.132812 -20.339844 14.132812 -20.636719 C 14.132812 -21.507812 13.9375 -22.285156 13.550781 -22.972656 C 13.160156 -23.660156 12.605469 -24.003906 11.890625 -24.003906 C 11.710938 -24.003906 11.574219 -23.988281 11.484375 -23.957031 L 7.941406 -23.242188 Z M 16.691406 -23.734375 L 16.691406 -23.644531 L 16.871094 -23.644531 L 16.871094 -23.734375 Z M 14.265625 -23.375 C 14.238281 -23.34375 14.222656 -23.316406 14.222656 -23.285156 C 14.222656 -23.253906 14.238281 -23.242188 14.265625 -23.242188 C 14.296875 -23.179688 14.34375 -23.152344 14.402344 -23.152344 C 14.460938 -23.152344 14.492188 -23.179688 14.492188 -23.242188 L 14.582031 -23.285156 Z M 1.839844 -22.925781 L 1.839844 -23.152344 L 1.75 -23.152344 L 1.75 -22.925781 Z M 15.613281 -22.925781 L 15.613281 -23.0625 L 15.480469 -23.0625 L 15.480469 -22.925781 Z M 15.882812 -21.445312 C 15.882812 -21.59375 15.761719 -21.730469 15.523438 -21.851562 L 15.523438 -21.3125 C 15.644531 -21.3125 15.761719 -21.355469 15.882812 -21.445312 Z M 15.972656 -20.546875 C 16.09375 -20.667969 16.152344 -20.742188 16.152344 -20.773438 L 16.0625 -20.996094 L 15.882812 -20.863281 C 15.882812 -20.863281 15.875 -20.855469 15.859375 -20.839844 C 15.84375 -20.824219 15.835938 -20.816406 15.835938 -20.816406 L 15.792969 -20.816406 C 15.671875 -20.757812 15.582031 -20.699219 15.523438 -20.636719 Z M 16.691406 -20.191406 C 16.601562 -20.398438 16.539062 -20.503906 16.511719 -20.503906 L 16.421875 -20.546875 L 16.332031 -20.503906 C 16.332031 -20.382812 16.390625 -20.324219 16.511719 -20.324219 Z M 15.074219 -19.515625 C 15.074219 -19.605469 15.058594 -19.667969 15.03125 -19.695312 L 14.941406 -19.742188 L 14.761719 -19.742188 L 14.761719 -19.515625 Z M 14.984375 -18.976562 C 15.105469 -19.097656 15.164062 -19.203125 15.164062 -19.292969 C 15.046875 -19.292969 14.96875 -19.308594 14.941406 -19.335938 L 14.761719 -19.203125 C 14.671875 -19.113281 14.640625 -19.054688 14.671875 -19.023438 Z M 15.523438 -19.066406 C 15.761719 -19.066406 15.882812 -19.144531 15.882812 -19.292969 L 15.523438 -19.292969 Z M 19.382812 -18.484375 C 19.414062 -18.515625 19.425781 -18.558594 19.425781 -18.621094 C 19.425781 -18.738281 19.367188 -18.875 19.246094 -19.023438 C 19.1875 -18.964844 19.1875 -18.902344 19.246094 -18.84375 C 19.246094 -18.753906 19.234375 -18.695312 19.203125 -18.664062 L 18.890625 -18.664062 C 18.949219 -18.574219 18.917969 -18.53125 18.800781 -18.53125 C 18.800781 -18.53125 18.890625 -18.5 19.066406 -18.441406 L 19.292969 -18.394531 C 19.292969 -18.394531 19.300781 -18.410156 19.316406 -18.441406 C 19.328125 -18.46875 19.351562 -18.484375 19.382812 -18.484375 Z M 15.253906 -18.664062 C 15.492188 -18.574219 15.703125 -18.53125 15.882812 -18.53125 C 15.703125 -18.679688 15.613281 -18.753906 15.613281 -18.753906 C 15.464844 -18.753906 15.375 -18.738281 15.34375 -18.710938 Z M 15.523438 -18.484375 L 15.34375 -18.394531 L 15.613281 -18.214844 L 15.703125 -18.304688 Z M 19.203125 -18.304688 L 19.203125 -17.273438 L 19.335938 -17.273438 L 19.335938 -18.304688 Z M 14.671875 -17.050781 C 14.523438 -17.230469 14.355469 -17.347656 14.175781 -17.40625 Z M 15.03125 -15.34375 L 15.03125 -15.253906 L 15.480469 -15.253906 L 15.480469 -15.34375 Z M 14.265625 -14.761719 C 14.265625 -14.820312 14.230469 -14.875 14.15625 -14.917969 C 14.082031 -14.964844 14.011719 -14.984375 13.953125 -14.984375 L 13.863281 -14.714844 Z M 13.144531 -14.761719 L 13.414062 -14.761719 L 13.414062 -14.851562 L 13.144531 -14.851562 Z M 3.230469 -14.089844 C 3.171875 -14.175781 3.097656 -14.253906 3.007812 -14.3125 C 2.917969 -14.371094 2.871094 -14.433594 2.871094 -14.492188 C 2.78125 -14.402344 2.691406 -14.355469 2.601562 -14.355469 C 2.601562 -14.328125 2.574219 -14.3125 2.511719 -14.3125 C 2.75 -14.28125 2.917969 -14.207031 3.007812 -14.089844 Z M 13.234375 -14.445312 C 13.175781 -14.386719 13.144531 -14.355469 13.144531 -14.355469 L 13.101562 -14.355469 C 13.042969 -14.328125 13.011719 -14.28125 13.011719 -14.222656 C 13.011719 -14.132812 13.027344 -14.089844 13.054688 -14.089844 L 13.101562 -14.089844 C 13.160156 -14.027344 13.234375 -14 13.324219 -14 C 13.476562 -14 13.566406 -14.042969 13.59375 -14.132812 L 13.59375 -14.355469 Z M 2.289062 -14.089844 L 2.378906 -14.222656 C 2.40625 -14.253906 2.421875 -14.296875 2.421875 -14.355469 L 2.199219 -14.355469 L 2.199219 -14.265625 Z M 8.882812 -14.265625 L 8.75 -14.265625 L 8.75 -14.042969 L 8.882812 -14.042969 Z M 2.511719 -13.550781 C 2.632812 -13.550781 2.738281 -13.566406 2.828125 -13.59375 C 3.007812 -13.652344 3.109375 -13.683594 3.140625 -13.683594 L 2.917969 -13.863281 C 2.796875 -13.921875 2.722656 -13.953125 2.691406 -13.953125 C 2.632812 -13.953125 2.542969 -13.921875 2.421875 -13.863281 L 2.199219 -13.683594 C 2.257812 -13.652344 2.304688 -13.632812 2.332031 -13.617188 C 2.363281 -13.601562 2.363281 -13.59375 2.332031 -13.59375 Z M 14.222656 -13.910156 L 14.132812 -13.683594 L 14.3125 -13.640625 L 14.402344 -13.820312 Z M 11.304688 -13.234375 C 11.246094 -13.234375 11.1875 -13.214844 11.125 -13.167969 C 11.066406 -13.125 11.035156 -13.070312 11.035156 -13.011719 L 11.351562 -12.964844 L 11.351562 -12.742188 L 11.621094 -12.742188 L 11.753906 -12.785156 C 11.636719 -12.90625 11.5 -12.964844 11.351562 -12.964844 L 11.394531 -13.101562 C 11.394531 -13.128906 11.367188 -13.175781 11.304688 -13.234375 Z M 12.964844 -12.964844 C 12.964844 -12.996094 12.953125 -13.011719 12.921875 -13.011719 L 12.921875 -13.101562 C 12.921875 -13.101562 12.914062 -13.109375 12.898438 -13.125 C 12.882812 -13.136719 12.875 -13.144531 12.875 -13.144531 L 12.605469 -12.964844 Z M 2.242188 -13.101562 L 2.152344 -13.101562 L 2.289062 -12.742188 L 2.378906 -12.742188 Z M 12.160156 -12.652344 C 12.21875 -12.710938 12.25 -12.773438 12.25 -12.832031 C 12.25 -12.890625 12.21875 -12.953125 12.160156 -13.011719 L 11.84375 -13.011719 C 11.933594 -12.800781 12.039062 -12.683594 12.160156 -12.652344 Z M 2.289062 -12.652344 L 2.152344 -12.519531 L 2.242188 -12.472656 L 2.378906 -12.652344 Z M 9.289062 -12.652344 L 9.289062 -12.339844 L 9.644531 -12.382812 Z M 3.410156 -12.605469 L 3.410156 -12.382812 L 3.679688 -12.382812 L 3.679688 -12.605469 Z M 11.753906 -12.429688 C 11.605469 -12.339844 11.472656 -12.21875 11.351562 -12.070312 L 11.710938 -12.070312 L 12.382812 -11.933594 L 12.382812 -12.023438 L 12.339844 -12.070312 L 12.292969 -12.160156 L 12.25 -12.160156 L 12.203125 -12.113281 L 12.023438 -12.070312 L 11.84375 -12.070312 Z M 12.695312 -11.710938 C 12.695312 -11.828125 12.621094 -11.933594 12.472656 -12.023438 C 12.382812 -11.90625 12.367188 -11.785156 12.429688 -11.664062 L 12.605469 -11.664062 Z M 11.574219 -11.214844 C 11.664062 -11.214844 11.738281 -11.1875 11.800781 -11.125 C 11.949219 -11.335938 12.023438 -11.457031 12.023438 -11.484375 L 11.980469 -11.664062 C 11.980469 -11.664062 11.933594 -11.710938 11.84375 -11.800781 L 11.753906 -11.753906 L 11.710938 -11.753906 C 11.710938 -11.753906 11.703125 -11.746094 11.6875 -11.734375 C 11.671875 -11.71875 11.664062 -11.710938 11.664062 -11.710938 L 11.574219 -11.664062 Z M 1.613281 -11.53125 L 1.839844 -11.53125 L 1.792969 -11.621094 C 1.792969 -11.621094 1.75 -11.664062 1.660156 -11.753906 L 1.660156 -11.621094 Z M 12.964844 -11.351562 L 12.964844 -11.214844 L 13.324219 -11.304688 L 13.324219 -11.441406 Z M 8.703125 -11.171875 C 8.554688 -11.023438 8.480469 -10.917969 8.480469 -10.859375 L 8.703125 -10.722656 L 8.972656 -10.949219 Z M 12.160156 -10.992188 C 12.160156 -10.902344 12.234375 -10.859375 12.382812 -10.859375 L 12.472656 -10.859375 C 12.503906 -10.886719 12.519531 -10.949219 12.519531 -11.035156 L 12.519531 -11.171875 C 12.277344 -11.171875 12.160156 -11.113281 12.160156 -10.992188 Z M 3.007812 -11.125 L 2.738281 -11.035156 L 2.738281 -10.949219 L 3.050781 -11.035156 Z M 12.695312 -10.542969 C 12.757812 -10.632812 12.757812 -10.707031 12.695312 -10.769531 C 12.546875 -10.707031 12.472656 -10.632812 12.472656 -10.542969 Z M 12.292969 -10.453125 C 12.292969 -10.542969 12.25 -10.601562 12.160156 -10.632812 C 12.007812 -10.632812 11.933594 -10.574219 11.933594 -10.453125 Z M 1.972656 -10.363281 L 1.972656 -10.09375 L 2.0625 -10.09375 L 2.0625 -10.363281 Z M 8.34375 -9.871094 L 8.34375 -9.691406 L 8.613281 -9.691406 L 8.613281 -9.871094 Z M 2.019531 -9.824219 C 1.988281 -9.707031 1.960938 -9.601562 1.929688 -9.511719 C 1.898438 -9.421875 1.871094 -9.332031 1.839844 -9.242188 C 1.808594 -9.152344 1.78125 -9.0625 1.75 -8.972656 C 1.71875 -8.882812 1.703125 -8.792969 1.703125 -8.703125 C 1.703125 -8.644531 1.71875 -8.597656 1.75 -8.570312 C 1.808594 -8.507812 1.824219 -8.464844 1.792969 -8.433594 C 1.644531 -8.40625 1.601562 -8.316406 1.660156 -8.164062 C 1.71875 -7.984375 1.71875 -7.867188 1.660156 -7.808594 C 1.660156 -7.808594 1.628906 -7.777344 1.570312 -7.71875 C 1.570312 -7.71875 1.5625 -7.710938 1.546875 -7.695312 C 1.53125 -7.679688 1.527344 -7.671875 1.527344 -7.671875 C 1.464844 -7.640625 1.4375 -7.597656 1.4375 -7.539062 C 1.4375 -7.476562 1.449219 -7.433594 1.480469 -7.402344 C 1.480469 -7.402344 1.488281 -7.378906 1.503906 -7.335938 C 1.519531 -7.289062 1.496094 -7.253906 1.4375 -7.222656 L 1.347656 -7.179688 L 1.300781 -7.179688 C 1.390625 -7.027344 1.421875 -6.910156 1.390625 -6.820312 C 1.269531 -6.492188 1.242188 -6.265625 1.300781 -6.148438 C 1.332031 -6.085938 1.339844 -6.035156 1.324219 -5.988281 C 1.308594 -5.945312 1.285156 -5.921875 1.257812 -5.921875 C 1.195312 -5.773438 1.167969 -5.59375 1.167969 -5.382812 C 1.167969 -5.175781 1.179688 -5.023438 1.210938 -4.933594 C 1.121094 -4.90625 1.0625 -4.84375 1.03125 -4.753906 L 0.851562 -4.53125 L 0.851562 -4.398438 C 0.851562 -3.976562 0.835938 -3.695312 0.808594 -3.542969 C 0.746094 -3.335938 0.710938 -3.164062 0.695312 -3.027344 C 0.679688 -2.894531 0.671875 -2.78125 0.671875 -2.691406 C 0.671875 -2.601562 0.65625 -2.527344 0.628906 -2.46875 L 0.539062 -2.289062 C 0.539062 -2.136719 0.5625 -1.914062 0.605469 -1.613281 C 0.652344 -1.316406 0.71875 -1.121094 0.808594 -1.03125 C 0.988281 -0.972656 1.195312 -0.941406 1.4375 -0.941406 L 2.019531 -0.851562 Z M 0.402344 -8.253906 L 0.402344 -8.390625 L 0.132812 -8.390625 L 0.132812 -8.253906 Z M 0.402344 -7.492188 C 0.34375 -7.550781 0.261719 -7.582031 0.15625 -7.582031 C 0.0507812 -7.582031 0 -7.550781 0 -7.492188 L 0.132812 -7.359375 C 0.222656 -7.359375 0.3125 -7.402344 0.402344 -7.492188 Z M 0.359375 -6.953125 C 0.417969 -6.953125 0.449219 -6.984375 0.449219 -7.042969 C 0.269531 -7.105469 0.121094 -7.105469 0 -7.042969 L 0.222656 -6.910156 Z M 0.359375 -6.59375 C 0.210938 -6.683594 0.132812 -6.773438 0.132812 -6.863281 L 0.0898438 -6.730469 C 0.0898438 -6.671875 0.0742188 -6.625 0.0429688 -6.59375 Z M 4.351562 -6.191406 C 4.351562 -6.070312 4.382812 -5.953125 4.441406 -5.832031 L 4.441406 -6.324219 Z M -0.0898438 -5.699219 L -0.0898438 -5.5625 L 0.132812 -5.5625 L 0.132812 -5.699219 Z M 4.351562 -5.25 L 4.308594 -5.113281 C 4.308594 -5.054688 4.292969 -5.023438 4.261719 -5.023438 C 4.351562 -4.875 4.367188 -4.800781 4.308594 -4.800781 C 4.277344 -4.832031 4.253906 -4.839844 4.238281 -4.824219 C 4.226562 -4.808594 4.21875 -4.785156 4.21875 -4.753906 C 4.21875 -4.636719 4.230469 -4.539062 4.261719 -4.464844 C 4.292969 -4.390625 4.335938 -4.292969 4.398438 -4.171875 L 4.441406 -5.699219 Z M -0.132812 -3.8125 L -0.269531 -3.769531 L -0.269531 -3.722656 L -0.0898438 -3.769531 Z M 6.011719 -0.222656 L 5.921875 -0.222656 L 5.96875 -0.0898438 L 6.058594 -0.0898438 Z M 6.011719 -0.222656 "/></g></g></g><g fill="#69247c" fill-opacity="1"><g transform="translate(121.730558, 53.416881)"><g><path d="M 21.132812 -4.578125 C 21.222656 -4.457031 21.265625 -4.308594 21.265625 -4.128906 C 21.265625 -3.859375 21.117188 -3.621094 20.816406 -3.410156 L 15.882812 -0.179688 C 15.703125 -0.03125 15.464844 0.015625 15.164062 -0.0429688 C 14.867188 -0.132812 14.671875 -0.300781 14.582031 -0.539062 C 13.414062 -3.109375 12.621094 -4.726562 12.203125 -5.382812 L 12.203125 -5.429688 C 11.367188 -6.925781 10.722656 -8.046875 10.273438 -8.792969 L 9.511719 -10.050781 L 7 -9.378906 L 6.863281 -1.210938 C 6.863281 -0.613281 6.566406 -0.3125 5.96875 -0.3125 L 0.449219 -0.3125 C 0.179688 -0.3125 -0.0390625 -0.402344 -0.203125 -0.582031 C -0.367188 -0.761719 -0.449219 -0.988281 -0.449219 -1.257812 L 1.390625 -29.027344 C 1.421875 -29.507812 1.675781 -29.792969 2.152344 -29.882812 L 8.929688 -30.734375 L 8.972656 -30.734375 L 10.230469 -30.867188 C 11.425781 -30.988281 12.351562 -31.046875 13.011719 -31.046875 C 14.328125 -31.046875 15.464844 -30.929688 16.421875 -30.6875 C 18.125 -30.328125 19.425781 -29.417969 20.324219 -27.953125 C 21.222656 -26.484375 21.671875 -24.765625 21.671875 -22.792969 C 21.671875 -21.296875 21.417969 -19.785156 20.90625 -18.261719 C 20.398438 -16.824219 19.578125 -15.523438 18.441406 -14.355469 C 17.753906 -13.730469 17.167969 -13.25 16.691406 -12.921875 Z M 11.394531 -28.398438 L 11.394531 -28.488281 L 10.992188 -28.488281 L 10.992188 -28.398438 Z M 11.035156 -28.085938 L 11.035156 -27.953125 L 11.261719 -27.953125 C 11.261719 -27.980469 11.292969 -28.027344 11.351562 -28.085938 L 11.394531 -28.132812 L 11.082031 -28.132812 Z M 13.28125 -27.90625 C 13.28125 -27.9375 13.25 -27.953125 13.191406 -27.953125 C 13.128906 -27.953125 13.101562 -27.980469 13.101562 -28.042969 L 13.101562 -27.816406 Z M 12.472656 -27.726562 L 12.5625 -27.816406 L 12.472656 -27.816406 L 12.382812 -27.726562 Z M 11.53125 -27.636719 C 11.589844 -27.636719 11.621094 -27.621094 11.621094 -27.59375 C 11.621094 -27.5625 11.636719 -27.546875 11.664062 -27.546875 C 11.726562 -27.546875 11.753906 -27.5625 11.753906 -27.59375 L 11.753906 -27.636719 Z M 10.589844 -27.414062 C 10.410156 -27.265625 10.378906 -27.113281 10.5 -26.964844 L 10.8125 -26.964844 L 10.8125 -27.007812 C 10.8125 -27.128906 10.738281 -27.265625 10.589844 -27.414062 Z M 15.390625 -27.414062 C 15.359375 -27.382812 15.367188 -27.339844 15.410156 -27.277344 C 15.457031 -27.21875 15.507812 -27.1875 15.570312 -27.1875 C 15.597656 -27.1875 15.613281 -27.21875 15.613281 -27.277344 C 15.613281 -27.277344 15.628906 -27.285156 15.660156 -27.300781 C 15.6875 -27.316406 15.703125 -27.339844 15.703125 -27.367188 Z M 14.582031 -27.324219 C 14.433594 -27.175781 14.34375 -27.070312 14.3125 -27.007812 L 14.355469 -27.007812 L 14.402344 -26.964844 L 14.445312 -26.964844 C 14.597656 -27.054688 14.671875 -27.128906 14.671875 -27.1875 C 14.671875 -27.21875 14.640625 -27.265625 14.582031 -27.324219 Z M 2.960938 -26.964844 L 2.960938 -27.1875 L 2.871094 -27.1875 L 2.871094 -26.964844 Z M 12.382812 -27.1875 C 12.382812 -27.1875 12.324219 -27.128906 12.203125 -27.007812 L 12.652344 -26.964844 L 12.742188 -27.097656 L 12.5625 -27.144531 C 12.5625 -27.175781 12.503906 -27.1875 12.382812 -27.1875 Z M 13.011719 -27.097656 C 13.011719 -27.039062 13.027344 -26.996094 13.054688 -26.964844 L 13.101562 -26.875 L 13.371094 -26.875 L 13.371094 -27.097656 Z M 16.78125 -26.964844 L 16.78125 -27.097656 L 16.601562 -27.097656 L 16.601562 -26.964844 Z M 10.5 -26.652344 L 10.453125 -26.742188 L 10.320312 -26.652344 L 10.320312 -26.5625 Z M 13.820312 -26.5625 C 13.878906 -26.621094 13.878906 -26.652344 13.820312 -26.652344 L 13.730469 -26.742188 C 13.667969 -26.679688 13.640625 -26.652344 13.640625 -26.652344 L 13.640625 -26.5625 Z M 12.382812 -26.382812 L 12.472656 -26.382812 L 12.472656 -26.5625 L 12.382812 -26.5625 Z M 13.011719 -26.203125 C 12.953125 -26.140625 12.863281 -26.082031 12.742188 -26.023438 L 12.5625 -25.886719 L 13.011719 -25.886719 Z M 14 -26.066406 C 13.9375 -26.128906 13.789062 -26.15625 13.550781 -26.15625 C 13.550781 -26.128906 13.570312 -26.105469 13.617188 -26.089844 C 13.660156 -26.074219 13.699219 -26.050781 13.730469 -26.023438 C 13.730469 -26.023438 13.789062 -26.007812 13.910156 -25.976562 L 13.953125 -25.976562 L 13.953125 -26.023438 Z M 14.671875 -25.933594 C 14.640625 -25.933594 14.613281 -25.925781 14.582031 -25.910156 C 14.550781 -25.894531 14.523438 -25.886719 14.492188 -25.886719 L 14.582031 -25.664062 L 14.761719 -25.753906 L 14.851562 -25.84375 Z M 16.960938 -25.484375 C 16.960938 -25.605469 16.882812 -25.722656 16.734375 -25.84375 L 16.734375 -25.394531 Z M 14.894531 -25.664062 C 14.777344 -25.605469 14.714844 -25.542969 14.714844 -25.484375 C 14.714844 -25.425781 14.777344 -25.394531 14.894531 -25.394531 L 15.121094 -25.347656 C 15.179688 -25.5 15.179688 -25.648438 15.121094 -25.796875 Z M 9.152344 -25.484375 C 9.210938 -25.363281 9.242188 -25.273438 9.242188 -25.214844 L 9.332031 -24.945312 L 9.511719 -25.035156 L 9.464844 -25.171875 L 9.421875 -25.257812 L 9.421875 -25.394531 C 9.421875 -25.453125 9.464844 -25.484375 9.554688 -25.484375 Z M 15.164062 -25.171875 C 15.046875 -25.230469 14.957031 -25.257812 14.894531 -25.257812 L 14.851562 -25.035156 L 14.894531 -24.992188 L 15.074219 -24.992188 L 15.074219 -25.035156 L 15.164062 -25.035156 Z M 17.140625 -24.675781 C 17.230469 -24.707031 17.242188 -24.8125 17.183594 -24.992188 C 17.003906 -24.902344 16.871094 -24.8125 16.78125 -24.722656 Z M 17.496094 -24.585938 C 17.496094 -24.558594 17.527344 -24.511719 17.585938 -24.453125 C 17.648438 -24.390625 17.691406 -24.363281 17.722656 -24.363281 C 17.691406 -24.480469 17.648438 -24.542969 17.585938 -24.542969 Z M 7.402344 -16.960938 C 8.898438 -17.167969 10.164062 -17.511719 11.195312 -17.992188 C 12.226562 -18.46875 13.027344 -19.261719 13.59375 -20.371094 C 14.074219 -21.386719 14.3125 -22.148438 14.3125 -22.65625 C 14.3125 -22.988281 14.253906 -23.269531 14.132812 -23.511719 L 14.132812 -23.554688 C 14.011719 -23.882812 13.667969 -24.125 13.101562 -24.273438 L 12.519531 -24.316406 C 12.097656 -24.316406 11.664062 -24.257812 11.214844 -24.136719 L 8.074219 -23.421875 Z M 16.152344 -23.601562 C 16.152344 -23.660156 16.136719 -23.703125 16.105469 -23.734375 L 15.925781 -23.777344 L 15.925781 -23.601562 Z M 16.105469 -23.0625 C 16.195312 -23.152344 16.242188 -23.242188 16.242188 -23.332031 L 16.0625 -23.332031 L 15.882812 -23.242188 C 15.824219 -23.179688 15.808594 -23.152344 15.835938 -23.152344 Z M 16.734375 -23.152344 C 16.882812 -23.152344 16.960938 -23.210938 16.960938 -23.332031 L 16.734375 -23.332031 Z M 20.054688 -22.703125 C 20.054688 -22.613281 20.023438 -22.566406 19.964844 -22.566406 C 19.996094 -22.539062 20.03125 -22.523438 20.078125 -22.523438 C 20.121094 -22.523438 20.160156 -22.507812 20.191406 -22.476562 L 20.460938 -22.433594 C 20.460938 -22.492188 20.472656 -22.523438 20.503906 -22.523438 C 20.535156 -22.554688 20.546875 -22.597656 20.546875 -22.65625 C 20.546875 -22.777344 20.488281 -22.910156 20.371094 -23.0625 L 20.371094 -22.703125 Z M 16.554688 -22.792969 C 16.554688 -22.761719 16.527344 -22.746094 16.464844 -22.746094 L 16.78125 -22.65625 L 16.734375 -22.746094 C 16.707031 -22.777344 16.660156 -22.792969 16.601562 -22.792969 Z M 16.734375 -22.34375 L 16.78125 -22.34375 L 16.644531 -22.476562 L 16.601562 -22.433594 Z M 20.460938 -22.34375 L 20.371094 -22.34375 L 20.371094 -21.3125 L 20.460938 -21.3125 Z M 20.414062 -20.371094 C 20.414062 -20.519531 20.488281 -20.652344 20.636719 -20.773438 C 20.488281 -20.804688 20.414062 -20.878906 20.414062 -20.996094 C 20.445312 -21.058594 20.429688 -21.148438 20.371094 -21.265625 L 20.371094 -18.082031 C 20.488281 -18.261719 20.546875 -18.441406 20.546875 -18.621094 L 20.503906 -19.15625 C 20.472656 -19.277344 20.460938 -19.425781 20.460938 -19.605469 C 20.460938 -19.726562 20.472656 -19.800781 20.503906 -19.832031 C 20.503906 -19.949219 20.472656 -20.101562 20.414062 -20.28125 Z M 15.792969 -20.460938 C 15.703125 -20.667969 15.539062 -20.773438 15.300781 -20.773438 Z M 16.152344 -20.101562 L 16.152344 -19.964844 L 16.554688 -19.964844 L 16.554688 -20.101562 Z M 15.390625 -19.515625 C 15.390625 -19.546875 15.359375 -19.589844 15.300781 -19.652344 C 15.210938 -19.710938 15.136719 -19.742188 15.074219 -19.742188 L 14.984375 -19.425781 Z M 4.308594 -18.84375 C 4.277344 -18.933594 4.21875 -19.023438 4.128906 -19.113281 C 4.066406 -19.144531 4.039062 -19.203125 4.039062 -19.292969 C 3.976562 -19.203125 3.828125 -19.128906 3.589844 -19.066406 L 3.949219 -18.976562 C 4.066406 -18.917969 4.128906 -18.875 4.128906 -18.84375 Z M 14.175781 -18.84375 C 14.207031 -18.84375 14.265625 -18.820312 14.355469 -18.777344 C 14.445312 -18.730469 14.523438 -18.722656 14.582031 -18.753906 C 14.640625 -18.785156 14.6875 -18.828125 14.714844 -18.890625 L 14.714844 -19.113281 L 14.355469 -19.15625 C 14.296875 -19.128906 14.253906 -19.105469 14.222656 -19.089844 C 14.191406 -19.074219 14.191406 -19.066406 14.222656 -19.066406 C 14.164062 -19.066406 14.132812 -19.023438 14.132812 -18.933594 Z M 3.320312 -19.023438 C 3.320312 -18.992188 3.351562 -18.949219 3.410156 -18.890625 L 3.5 -18.933594 L 3.5 -18.976562 C 3.558594 -19.039062 3.589844 -19.082031 3.589844 -19.113281 L 3.320312 -19.113281 Z M 4.308594 -18.441406 C 4.246094 -18.46875 4.164062 -18.523438 4.058594 -18.597656 C 3.957031 -18.671875 3.859375 -18.710938 3.769531 -18.710938 L 3.589844 -18.621094 C 3.46875 -18.558594 3.378906 -18.5 3.320312 -18.441406 L 3.5 -18.394531 C 3.558594 -18.335938 3.621094 -18.304688 3.679688 -18.304688 Z M 15.34375 -18.621094 L 15.253906 -18.441406 L 15.433594 -18.394531 L 15.523438 -18.574219 Z M 12.472656 -17.992188 C 12.414062 -17.992188 12.351562 -17.96875 12.292969 -17.925781 C 12.234375 -17.878906 12.203125 -17.828125 12.203125 -17.765625 C 12.261719 -17.707031 12.351562 -17.675781 12.472656 -17.675781 L 12.472656 -17.453125 C 12.53125 -17.453125 12.683594 -17.496094 12.921875 -17.585938 C 12.800781 -17.675781 12.652344 -17.722656 12.472656 -17.722656 L 12.472656 -17.8125 C 12.53125 -17.871094 12.53125 -17.929688 12.472656 -17.992188 Z M 14.089844 -17.765625 L 14 -17.945312 L 13.730469 -17.675781 L 14.089844 -17.675781 Z M 3.410156 -17.855469 L 3.320312 -17.855469 L 3.410156 -17.542969 L 3.5 -17.542969 Z M 13.28125 -17.363281 C 13.371094 -17.511719 13.371094 -17.648438 13.28125 -17.765625 L 13.011719 -17.765625 C 13.128906 -17.527344 13.21875 -17.394531 13.28125 -17.363281 Z M 3.410156 -17.453125 L 3.320312 -17.273438 L 3.410156 -17.230469 L 3.5 -17.40625 Z M 4.578125 -17.363281 L 4.578125 -17.183594 L 4.800781 -17.183594 L 4.800781 -17.363281 Z M 10.5 -17.320312 L 10.5 -17.140625 L 10.722656 -17.183594 Z M 12.921875 -17.183594 C 12.742188 -17.09375 12.59375 -16.988281 12.472656 -16.871094 L 12.832031 -16.871094 L 13.550781 -16.691406 L 13.503906 -16.734375 L 13.460938 -16.824219 L 13.460938 -16.871094 L 13.011719 -16.871094 Z M 13.730469 -16.421875 C 13.789062 -16.421875 13.820312 -16.4375 13.820312 -16.464844 C 13.820312 -16.554688 13.804688 -16.617188 13.773438 -16.644531 L 13.640625 -16.78125 C 13.488281 -16.601562 13.460938 -16.464844 13.550781 -16.375 Z M 12.742188 -15.972656 C 12.800781 -15.972656 12.863281 -15.941406 12.921875 -15.882812 C 13.101562 -16.03125 13.191406 -16.152344 13.191406 -16.242188 L 13.144531 -16.332031 L 13.101562 -16.375 C 13.070312 -16.40625 13.042969 -16.480469 13.011719 -16.601562 L 12.921875 -16.511719 L 12.832031 -16.511719 L 12.742188 -16.421875 Z M 2.78125 -16.375 C 2.75 -16.375 2.738281 -16.347656 2.738281 -16.285156 L 2.960938 -16.285156 C 2.960938 -16.316406 2.902344 -16.390625 2.78125 -16.511719 Z M 14.445312 -16.015625 L 14.445312 -16.195312 L 14.089844 -16.105469 L 14.089844 -15.972656 Z M 13.640625 -15.925781 C 13.398438 -15.925781 13.28125 -15.867188 13.28125 -15.75 C 13.28125 -15.660156 13.371094 -15.613281 13.550781 -15.613281 L 13.640625 -15.613281 Z M 4.128906 -15.882812 L 3.859375 -15.792969 L 3.859375 -15.75 L 4.21875 -15.835938 Z M 9.871094 -15.523438 C 9.871094 -15.523438 9.929688 -15.582031 10.050781 -15.703125 L 9.871094 -15.835938 C 9.75 -15.808594 9.691406 -15.734375 9.691406 -15.613281 Z M 13.820312 -15.613281 C 13.640625 -15.523438 13.550781 -15.417969 13.550781 -15.300781 L 13.820312 -15.300781 C 13.9375 -15.390625 13.9375 -15.492188 13.820312 -15.613281 Z M 13.460938 -15.210938 C 13.460938 -15.300781 13.398438 -15.375 13.28125 -15.433594 C 13.21875 -15.433594 13.160156 -15.410156 13.101562 -15.367188 C 13.042969 -15.320312 13.011719 -15.285156 13.011719 -15.253906 C 13.070312 -15.226562 13.160156 -15.210938 13.28125 -15.210938 Z M 14.582031 -15.121094 C 14.582031 -15.148438 14.550781 -15.164062 14.492188 -15.164062 C 14.492188 -15.164062 14.484375 -15.171875 14.46875 -15.1875 C 14.453125 -15.203125 14.445312 -15.210938 14.445312 -15.210938 L 14.355469 -15.253906 L 14.042969 -15.253906 C 14.101562 -15.136719 14.132812 -15.015625 14.132812 -14.894531 C 14.222656 -14.867188 14.296875 -14.867188 14.355469 -14.894531 L 14.582031 -14.894531 Z M 9.691406 -14.535156 L 9.511719 -14.535156 L 9.511719 -14.445312 L 9.691406 -14.445312 Z M 14.089844 -14.265625 C 14.207031 -14.265625 14.28125 -14.28125 14.3125 -14.3125 C 14.371094 -14.371094 14.402344 -14.417969 14.402344 -14.445312 C 14.34375 -14.507812 14.207031 -14.535156 14 -14.535156 Z M 9.691406 -13.820312 C 9.691406 -13.757812 9.707031 -13.730469 9.734375 -13.730469 L 9.871094 -13.730469 C 9.902344 -13.878906 9.902344 -13.953125 9.871094 -13.953125 C 9.75 -13.953125 9.691406 -13.910156 9.691406 -13.820312 Z M 14.042969 -13.730469 C 13.894531 -13.578125 13.820312 -13.445312 13.820312 -13.324219 L 13.910156 -13.28125 L 14.222656 -13.28125 L 14.132812 -13.550781 Z M 14.265625 -13.234375 L 14.132812 -13.054688 L 14.3125 -13.011719 L 14.445312 -13.191406 Z M 14.671875 -12.832031 C 14.820312 -12.832031 14.957031 -12.875 15.074219 -12.964844 L 14.671875 -13.054688 C 14.613281 -12.9375 14.613281 -12.863281 14.671875 -12.832031 Z M 14.042969 -12.964844 C 13.894531 -13.054688 13.757812 -13.042969 13.640625 -12.921875 C 13.699219 -12.863281 13.804688 -12.832031 13.953125 -12.832031 C 14.011719 -12.832031 14.042969 -12.863281 14.042969 -12.921875 Z M 9.960938 -12.160156 L 9.871094 -12.113281 L 9.914062 -12.023438 L 10.003906 -12.023438 Z M 14.761719 -10.410156 C 14.761719 -10.5 14.746094 -10.558594 14.714844 -10.589844 C 14.714844 -10.589844 14.707031 -10.582031 14.695312 -10.566406 C 14.679688 -10.550781 14.671875 -10.542969 14.671875 -10.542969 L 14.625 -10.5 L 14.582031 -10.5 Z M 18.484375 -8.390625 C 18.542969 -8.390625 18.574219 -8.433594 18.574219 -8.523438 L 18.351562 -8.523438 Z M 18.710938 -8.121094 L 18.484375 -8.121094 L 18.484375 -7.851562 C 18.574219 -7.761719 18.695312 -7.71875 18.84375 -7.71875 C 18.785156 -7.808594 18.753906 -7.894531 18.753906 -7.984375 Z M 18.933594 -7.179688 L 18.84375 -7.042969 L 18.933594 -7 L 19.023438 -7.132812 Z M 19.605469 -5.339844 C 19.605469 -5.457031 19.515625 -5.535156 19.335938 -5.5625 C 19.246094 -5.472656 19.203125 -5.414062 19.203125 -5.382812 C 19.203125 -5.292969 19.238281 -5.210938 19.316406 -5.136719 C 19.390625 -5.0625 19.457031 -5.023438 19.515625 -5.023438 L 19.5625 -5.160156 Z M 18.394531 -4.667969 C 18.453125 -4.667969 18.539062 -4.679688 18.640625 -4.710938 C 18.746094 -4.742188 18.828125 -4.785156 18.890625 -4.84375 L 18.753906 -4.890625 L 18.621094 -4.980469 C 18.558594 -5.011719 18.453125 -5.023438 18.304688 -5.023438 C 18.246094 -5.023438 18.1875 -5.011719 18.125 -4.980469 C 18.066406 -4.949219 18.035156 -4.90625 18.035156 -4.84375 C 18.15625 -4.726562 18.277344 -4.667969 18.394531 -4.667969 Z M 2.960938 -2.0625 C 3.109375 -2.0625 3.199219 -2.125 3.230469 -2.242188 L 3.050781 -2.242188 C 3.050781 -2.125 3.019531 -2.0625 2.960938 -2.0625 Z M 2.960938 -2.0625 "/></g></g></g></svg>