<svg xmlns="http://www.w3.org/2000/svg" xmlns:xlink="http://www.w3.org/1999/xlink" width="100" zoomAndPan="magnify" viewBox="0 0 75 30.000001" height="40" preserveAspectRatio="xMidYMid meet" version="1.0"><defs><g/><clipPath id="69946f6400"><path d="M 2.804688 5.625 L 21.042969 5.625 L 21.042969 23.867188 L 2.804688 23.867188 Z M 2.804688 5.625 " clip-rule="nonzero"/></clipPath><clipPath id="8a6ea9ebee"><path d="M 6.210938 5.625 L 17.636719 5.625 C 19.515625 5.625 21.042969 7.152344 21.042969 9.03125 L 21.042969 20.457031 C 21.042969 22.339844 19.515625 23.867188 17.636719 23.867188 L 6.210938 23.867188 C 4.328125 23.867188 2.804688 22.339844 2.804688 20.457031 L 2.804688 9.03125 C 2.804688 7.152344 4.328125 5.625 6.210938 5.625 Z M 6.210938 5.625 " clip-rule="nonzero"/></clipPath><radialGradient gradientTransform="matrix(1, 0, 0, 1, 2.80287, 5.625519)" gradientUnits="userSpaceOnUse" r="25.79524" cx="0" id="d740daad35" cy="0" fx="0" fy="0"><stop stop-opacity="1" stop-color="rgb(0.154114%, 29.025269%, 67.842102%)" offset="0"/><stop stop-opacity="1" stop-color="rgb(0.465393%, 29.077148%, 67.930603%)" offset="0.00390625"/><stop stop-opacity="1" stop-color="rgb(0.776672%, 29.130554%, 68.017578%)" offset="0.0078125"/><stop stop-opacity="1" stop-color="rgb(1.087952%, 29.182434%, 68.104553%)" offset="0.0117188"/><stop stop-opacity="1" stop-color="rgb(1.397705%, 29.234314%, 68.193054%)" offset="0.015625"/><stop stop-opacity="1" stop-color="rgb(1.708984%, 29.286194%, 68.280029%)" offset="0.0195312"/><stop stop-opacity="1" stop-color="rgb(2.020264%, 29.3396%, 68.367004%)" offset="0.0234375"/><stop stop-opacity="1" stop-color="rgb(2.331543%, 29.391479%, 68.455505%)" offset="0.0273438"/><stop stop-opacity="1" stop-color="rgb(2.641296%, 29.443359%, 68.54248%)" offset="0.03125"/><stop stop-opacity="1" stop-color="rgb(2.952576%, 29.496765%, 68.629456%)" offset="0.0351562"/><stop stop-opacity="1" stop-color="rgb(3.263855%, 29.548645%, 68.717957%)" offset="0.0390625"/><stop stop-opacity="1" stop-color="rgb(3.575134%, 29.600525%, 68.804932%)" offset="0.0429688"/><stop stop-opacity="1" stop-color="rgb(3.886414%, 29.653931%, 68.891907%)" offset="0.046875"/><stop stop-opacity="1" stop-color="rgb(4.196167%, 29.705811%, 68.980408%)" offset="0.0507812"/><stop stop-opacity="1" stop-color="rgb(4.507446%, 29.75769%, 69.067383%)" offset="0.0546875"/><stop stop-opacity="1" stop-color="rgb(4.818726%, 29.811096%, 69.154358%)" offset="0.0585938"/><stop stop-opacity="1" stop-color="rgb(5.130005%, 29.862976%, 69.242859%)" offset="0.0625"/><stop stop-opacity="1" stop-color="rgb(5.439758%, 29.914856%, 69.329834%)" offset="0.0664062"/><stop stop-opacity="1" stop-color="rgb(5.751038%, 29.966736%, 69.416809%)" offset="0.0703125"/><stop stop-opacity="1" stop-color="rgb(6.062317%, 30.020142%, 69.50531%)" offset="0.0742188"/><stop stop-opacity="1" stop-color="rgb(6.373596%, 30.072021%, 69.592285%)" offset="0.078125"/><stop stop-opacity="1" stop-color="rgb(6.684875%, 30.123901%, 69.67926%)" offset="0.0820312"/><stop stop-opacity="1" stop-color="rgb(6.994629%, 30.177307%, 69.767761%)" offset="0.0859375"/><stop stop-opacity="1" stop-color="rgb(7.305908%, 30.229187%, 69.854736%)" offset="0.0898438"/><stop stop-opacity="1" stop-color="rgb(7.617188%, 30.281067%, 69.943237%)" offset="0.09375"/><stop stop-opacity="1" stop-color="rgb(7.928467%, 30.334473%, 70.030212%)" offset="0.0976562"/><stop stop-opacity="1" stop-color="rgb(8.23822%, 30.386353%, 70.117188%)" offset="0.101562"/><stop stop-opacity="1" stop-color="rgb(8.5495%, 30.438232%, 70.205688%)" offset="0.105469"/><stop stop-opacity="1" stop-color="rgb(8.860779%, 30.490112%, 70.292664%)" offset="0.109375"/><stop stop-opacity="1" stop-color="rgb(9.172058%, 30.543518%, 70.379639%)" offset="0.113281"/><stop stop-opacity="1" stop-color="rgb(9.483337%, 30.595398%, 70.46814%)" offset="0.117188"/><stop stop-opacity="1" stop-color="rgb(9.793091%, 30.647278%, 70.555115%)" offset="0.121094"/><stop stop-opacity="1" stop-color="rgb(10.10437%, 30.700684%, 70.64209%)" offset="0.125"/><stop stop-opacity="1" stop-color="rgb(10.415649%, 30.752563%, 70.730591%)" offset="0.128906"/><stop stop-opacity="1" stop-color="rgb(10.726929%, 30.804443%, 70.817566%)" offset="0.132812"/><stop stop-opacity="1" stop-color="rgb(11.036682%, 30.857849%, 70.904541%)" offset="0.136719"/><stop stop-opacity="1" stop-color="rgb(11.347961%, 30.909729%, 70.993042%)" offset="0.140625"/><stop stop-opacity="1" stop-color="rgb(11.659241%, 30.961609%, 71.080017%)" offset="0.144531"/><stop stop-opacity="1" stop-color="rgb(11.97052%, 31.013489%, 71.166992%)" offset="0.148438"/><stop stop-opacity="1" stop-color="rgb(12.281799%, 31.066895%, 71.255493%)" offset="0.152344"/><stop stop-opacity="1" stop-color="rgb(12.591553%, 31.118774%, 71.342468%)" offset="0.15625"/><stop stop-opacity="1" stop-color="rgb(12.902832%, 31.170654%, 71.429443%)" offset="0.160156"/><stop stop-opacity="1" stop-color="rgb(13.214111%, 31.22406%, 71.517944%)" offset="0.164062"/><stop stop-opacity="1" stop-color="rgb(13.525391%, 31.27594%, 71.604919%)" offset="0.167969"/><stop stop-opacity="1" stop-color="rgb(13.835144%, 31.32782%, 71.691895%)" offset="0.171875"/><stop stop-opacity="1" stop-color="rgb(14.146423%, 31.381226%, 71.780396%)" offset="0.175781"/><stop stop-opacity="1" stop-color="rgb(14.457703%, 31.433105%, 71.867371%)" offset="0.179688"/><stop stop-opacity="1" stop-color="rgb(14.768982%, 31.484985%, 71.954346%)" offset="0.183594"/><stop stop-opacity="1" stop-color="rgb(15.080261%, 31.538391%, 72.042847%)" offset="0.1875"/><stop stop-opacity="1" stop-color="rgb(15.390015%, 31.590271%, 72.129822%)" offset="0.191406"/><stop stop-opacity="1" stop-color="rgb(15.701294%, 31.642151%, 72.216797%)" offset="0.195312"/><stop stop-opacity="1" stop-color="rgb(16.012573%, 31.694031%, 72.305298%)" offset="0.199219"/><stop stop-opacity="1" stop-color="rgb(16.323853%, 31.747437%, 72.392273%)" offset="0.203125"/><stop stop-opacity="1" stop-color="rgb(16.633606%, 31.799316%, 72.479248%)" offset="0.207031"/><stop stop-opacity="1" stop-color="rgb(16.944885%, 31.851196%, 72.567749%)" offset="0.210938"/><stop stop-opacity="1" stop-color="rgb(17.256165%, 31.904602%, 72.654724%)" offset="0.214844"/><stop stop-opacity="1" stop-color="rgb(17.567444%, 31.956482%, 72.743225%)" offset="0.21875"/><stop stop-opacity="1" stop-color="rgb(17.878723%, 32.008362%, 72.8302%)" offset="0.222656"/><stop stop-opacity="1" stop-color="rgb(18.188477%, 32.061768%, 72.917175%)" offset="0.226562"/><stop stop-opacity="1" stop-color="rgb(18.499756%, 32.113647%, 73.005676%)" offset="0.230469"/><stop stop-opacity="1" stop-color="rgb(18.811035%, 32.165527%, 73.092651%)" offset="0.234375"/><stop stop-opacity="1" stop-color="rgb(19.122314%, 32.217407%, 73.179626%)" offset="0.238281"/><stop stop-opacity="1" stop-color="rgb(19.432068%, 32.270813%, 73.268127%)" offset="0.242188"/><stop stop-opacity="1" stop-color="rgb(19.743347%, 32.322693%, 73.355103%)" offset="0.246094"/><stop stop-opacity="1" stop-color="rgb(20.054626%, 32.374573%, 73.442078%)" offset="0.25"/><stop stop-opacity="1" stop-color="rgb(20.365906%, 32.427979%, 73.530579%)" offset="0.253906"/><stop stop-opacity="1" stop-color="rgb(20.675659%, 32.479858%, 73.617554%)" offset="0.257812"/><stop stop-opacity="1" stop-color="rgb(20.986938%, 32.531738%, 73.704529%)" offset="0.261719"/><stop stop-opacity="1" stop-color="rgb(21.298218%, 32.585144%, 73.79303%)" offset="0.265625"/><stop stop-opacity="1" stop-color="rgb(21.609497%, 32.637024%, 73.880005%)" offset="0.269531"/><stop stop-opacity="1" stop-color="rgb(21.920776%, 32.688904%, 73.96698%)" offset="0.273438"/><stop stop-opacity="1" stop-color="rgb(22.23053%, 32.74231%, 74.055481%)" offset="0.277344"/><stop stop-opacity="1" stop-color="rgb(22.541809%, 32.794189%, 74.142456%)" offset="0.28125"/><stop stop-opacity="1" stop-color="rgb(22.853088%, 32.846069%, 74.229431%)" offset="0.285156"/><stop stop-opacity="1" stop-color="rgb(23.164368%, 32.897949%, 74.317932%)" offset="0.289062"/><stop stop-opacity="1" stop-color="rgb(23.474121%, 32.951355%, 74.404907%)" offset="0.292969"/><stop stop-opacity="1" stop-color="rgb(23.7854%, 33.003235%, 74.491882%)" offset="0.296875"/><stop stop-opacity="1" stop-color="rgb(24.09668%, 33.055115%, 74.580383%)" offset="0.300781"/><stop stop-opacity="1" stop-color="rgb(24.407959%, 33.108521%, 74.667358%)" offset="0.304688"/><stop stop-opacity="1" stop-color="rgb(24.719238%, 33.1604%, 74.754333%)" offset="0.308594"/><stop stop-opacity="1" stop-color="rgb(25.028992%, 33.21228%, 74.842834%)" offset="0.3125"/><stop stop-opacity="1" stop-color="rgb(25.340271%, 33.265686%, 74.92981%)" offset="0.316406"/><stop stop-opacity="1" stop-color="rgb(25.65155%, 33.317566%, 75.016785%)" offset="0.320312"/><stop stop-opacity="1" stop-color="rgb(25.96283%, 33.369446%, 75.105286%)" offset="0.324219"/><stop stop-opacity="1" stop-color="rgb(26.272583%, 33.421326%, 75.192261%)" offset="0.328125"/><stop stop-opacity="1" stop-color="rgb(26.583862%, 33.474731%, 75.279236%)" offset="0.332031"/><stop stop-opacity="1" stop-color="rgb(26.895142%, 33.526611%, 75.367737%)" offset="0.335938"/><stop stop-opacity="1" stop-color="rgb(27.206421%, 33.578491%, 75.454712%)" offset="0.339844"/><stop stop-opacity="1" stop-color="rgb(27.5177%, 33.631897%, 75.543213%)" offset="0.34375"/><stop stop-opacity="1" stop-color="rgb(27.827454%, 33.683777%, 75.630188%)" offset="0.347656"/><stop stop-opacity="1" stop-color="rgb(28.138733%, 33.735657%, 75.717163%)" offset="0.351562"/><stop stop-opacity="1" stop-color="rgb(28.450012%, 33.789062%, 75.805664%)" offset="0.355469"/><stop stop-opacity="1" stop-color="rgb(28.761292%, 33.840942%, 75.892639%)" offset="0.359375"/><stop stop-opacity="1" stop-color="rgb(29.071045%, 33.892822%, 75.979614%)" offset="0.363281"/><stop stop-opacity="1" stop-color="rgb(29.382324%, 33.946228%, 76.068115%)" offset="0.367188"/><stop stop-opacity="1" stop-color="rgb(29.693604%, 33.998108%, 76.15509%)" offset="0.371094"/><stop stop-opacity="1" stop-color="rgb(30.004883%, 34.049988%, 76.242065%)" offset="0.375"/><stop stop-opacity="1" stop-color="rgb(30.316162%, 34.101868%, 76.330566%)" offset="0.378906"/><stop stop-opacity="1" stop-color="rgb(30.625916%, 34.155273%, 76.417542%)" offset="0.382812"/><stop stop-opacity="1" stop-color="rgb(30.937195%, 34.207153%, 76.504517%)" offset="0.386719"/><stop stop-opacity="1" stop-color="rgb(31.248474%, 34.259033%, 76.593018%)" offset="0.390625"/><stop stop-opacity="1" stop-color="rgb(31.559753%, 34.312439%, 76.679993%)" offset="0.394531"/><stop stop-opacity="1" stop-color="rgb(31.869507%, 34.364319%, 76.766968%)" offset="0.398438"/><stop stop-opacity="1" stop-color="rgb(32.180786%, 34.416199%, 76.855469%)" offset="0.402344"/><stop stop-opacity="1" stop-color="rgb(32.492065%, 34.469604%, 76.942444%)" offset="0.40625"/><stop stop-opacity="1" stop-color="rgb(32.803345%, 34.521484%, 77.029419%)" offset="0.410156"/><stop stop-opacity="1" stop-color="rgb(33.114624%, 34.573364%, 77.11792%)" offset="0.414062"/><stop stop-opacity="1" stop-color="rgb(33.424377%, 34.625244%, 77.204895%)" offset="0.417969"/><stop stop-opacity="1" stop-color="rgb(33.735657%, 34.67865%, 77.29187%)" offset="0.421875"/><stop stop-opacity="1" stop-color="rgb(34.046936%, 34.73053%, 77.380371%)" offset="0.425781"/><stop stop-opacity="1" stop-color="rgb(34.358215%, 34.78241%, 77.467346%)" offset="0.429688"/><stop stop-opacity="1" stop-color="rgb(34.667969%, 34.835815%, 77.554321%)" offset="0.433594"/><stop stop-opacity="1" stop-color="rgb(34.979248%, 34.887695%, 77.642822%)" offset="0.4375"/><stop stop-opacity="1" stop-color="rgb(35.290527%, 34.939575%, 77.729797%)" offset="0.441406"/><stop stop-opacity="1" stop-color="rgb(35.601807%, 34.992981%, 77.816772%)" offset="0.445312"/><stop stop-opacity="1" stop-color="rgb(35.913086%, 35.044861%, 77.905273%)" offset="0.449219"/><stop stop-opacity="1" stop-color="rgb(36.222839%, 35.096741%, 77.992249%)" offset="0.453125"/><stop stop-opacity="1" stop-color="rgb(36.534119%, 35.150146%, 78.08075%)" offset="0.457031"/><stop stop-opacity="1" stop-color="rgb(36.845398%, 35.202026%, 78.167725%)" offset="0.460938"/><stop stop-opacity="1" stop-color="rgb(37.156677%, 35.253906%, 78.2547%)" offset="0.464844"/><stop stop-opacity="1" stop-color="rgb(37.466431%, 35.305786%, 78.343201%)" offset="0.46875"/><stop stop-opacity="1" stop-color="rgb(37.77771%, 35.359192%, 78.430176%)" offset="0.472656"/><stop stop-opacity="1" stop-color="rgb(38.088989%, 35.411072%, 78.517151%)" offset="0.476562"/><stop stop-opacity="1" stop-color="rgb(38.400269%, 35.462952%, 78.605652%)" offset="0.480469"/><stop stop-opacity="1" stop-color="rgb(38.711548%, 35.516357%, 78.692627%)" offset="0.484375"/><stop stop-opacity="1" stop-color="rgb(39.021301%, 35.568237%, 78.779602%)" offset="0.488281"/><stop stop-opacity="1" stop-color="rgb(39.332581%, 35.620117%, 78.868103%)" offset="0.492188"/><stop stop-opacity="1" stop-color="rgb(39.64386%, 35.673523%, 78.955078%)" offset="0.496094"/><stop stop-opacity="1" stop-color="rgb(39.955139%, 35.725403%, 79.042053%)" offset="0.5"/><stop stop-opacity="1" stop-color="rgb(40.264893%, 35.777283%, 79.130554%)" offset="0.503906"/><stop stop-opacity="1" stop-color="rgb(40.576172%, 35.829163%, 79.217529%)" offset="0.507812"/><stop stop-opacity="1" stop-color="rgb(40.887451%, 35.882568%, 79.304504%)" offset="0.511719"/><stop stop-opacity="1" stop-color="rgb(41.19873%, 35.934448%, 79.393005%)" offset="0.515625"/><stop stop-opacity="1" stop-color="rgb(41.508484%, 35.986328%, 79.47998%)" offset="0.519531"/><stop stop-opacity="1" stop-color="rgb(41.819763%, 36.039734%, 79.566956%)" offset="0.523438"/><stop stop-opacity="1" stop-color="rgb(42.131042%, 36.091614%, 79.655457%)" offset="0.527344"/><stop stop-opacity="1" stop-color="rgb(42.442322%, 36.143494%, 79.742432%)" offset="0.53125"/><stop stop-opacity="1" stop-color="rgb(42.753601%, 36.196899%, 79.829407%)" offset="0.535156"/><stop stop-opacity="1" stop-color="rgb(43.063354%, 36.248779%, 79.917908%)" offset="0.539062"/><stop stop-opacity="1" stop-color="rgb(43.374634%, 36.300659%, 80.004883%)" offset="0.542969"/><stop stop-opacity="1" stop-color="rgb(43.685913%, 36.354065%, 80.091858%)" offset="0.546875"/><stop stop-opacity="1" stop-color="rgb(43.997192%, 36.405945%, 80.180359%)" offset="0.550781"/><stop stop-opacity="1" stop-color="rgb(44.306946%, 36.457825%, 80.267334%)" offset="0.554688"/><stop stop-opacity="1" stop-color="rgb(44.618225%, 36.509705%, 80.354309%)" offset="0.558594"/><stop stop-opacity="1" stop-color="rgb(44.929504%, 36.56311%, 80.44281%)" offset="0.5625"/><stop stop-opacity="1" stop-color="rgb(45.240784%, 36.61499%, 80.529785%)" offset="0.566406"/><stop stop-opacity="1" stop-color="rgb(45.552063%, 36.66687%, 80.61676%)" offset="0.570312"/><stop stop-opacity="1" stop-color="rgb(45.861816%, 36.720276%, 80.705261%)" offset="0.574219"/><stop stop-opacity="1" stop-color="rgb(46.173096%, 36.772156%, 80.792236%)" offset="0.578125"/><stop stop-opacity="1" stop-color="rgb(46.484375%, 36.824036%, 80.880737%)" offset="0.582031"/><stop stop-opacity="1" stop-color="rgb(46.795654%, 36.877441%, 80.967712%)" offset="0.585938"/><stop stop-opacity="1" stop-color="rgb(47.105408%, 36.929321%, 81.054688%)" offset="0.589844"/><stop stop-opacity="1" stop-color="rgb(47.416687%, 36.981201%, 81.143188%)" offset="0.59375"/><stop stop-opacity="1" stop-color="rgb(47.727966%, 37.033081%, 81.230164%)" offset="0.597656"/><stop stop-opacity="1" stop-color="rgb(48.039246%, 37.086487%, 81.317139%)" offset="0.601562"/><stop stop-opacity="1" stop-color="rgb(48.350525%, 37.138367%, 81.40564%)" offset="0.605469"/><stop stop-opacity="1" stop-color="rgb(48.660278%, 37.190247%, 81.492615%)" offset="0.609375"/><stop stop-opacity="1" stop-color="rgb(48.971558%, 37.243652%, 81.57959%)" offset="0.613281"/><stop stop-opacity="1" stop-color="rgb(49.282837%, 37.295532%, 81.668091%)" offset="0.617188"/><stop stop-opacity="1" stop-color="rgb(49.594116%, 37.347412%, 81.755066%)" offset="0.621094"/><stop stop-opacity="1" stop-color="rgb(49.90387%, 37.400818%, 81.842041%)" offset="0.625"/><stop stop-opacity="1" stop-color="rgb(50.215149%, 37.452698%, 81.930542%)" offset="0.628906"/><stop stop-opacity="1" stop-color="rgb(50.526428%, 37.504578%, 82.017517%)" offset="0.632812"/><stop stop-opacity="1" stop-color="rgb(50.837708%, 37.556458%, 82.104492%)" offset="0.636719"/><stop stop-opacity="1" stop-color="rgb(51.148987%, 37.609863%, 82.192993%)" offset="0.640625"/><stop stop-opacity="1" stop-color="rgb(51.45874%, 37.661743%, 82.279968%)" offset="0.644531"/><stop stop-opacity="1" stop-color="rgb(51.77002%, 37.713623%, 82.366943%)" offset="0.648438"/><stop stop-opacity="1" stop-color="rgb(52.081299%, 37.767029%, 82.455444%)" offset="0.652344"/><stop stop-opacity="1" stop-color="rgb(52.392578%, 37.818909%, 82.542419%)" offset="0.65625"/><stop stop-opacity="1" stop-color="rgb(52.702332%, 37.870789%, 82.629395%)" offset="0.660156"/><stop stop-opacity="1" stop-color="rgb(53.013611%, 37.924194%, 82.717896%)" offset="0.664062"/><stop stop-opacity="1" stop-color="rgb(53.32489%, 37.976074%, 82.804871%)" offset="0.667969"/><stop stop-opacity="1" stop-color="rgb(53.636169%, 38.027954%, 82.891846%)" offset="0.671875"/><stop stop-opacity="1" stop-color="rgb(53.947449%, 38.08136%, 82.980347%)" offset="0.675781"/><stop stop-opacity="1" stop-color="rgb(54.257202%, 38.13324%, 83.067322%)" offset="0.679688"/><stop stop-opacity="1" stop-color="rgb(54.568481%, 38.18512%, 83.154297%)" offset="0.683594"/><stop stop-opacity="1" stop-color="rgb(54.879761%, 38.237%, 83.242798%)" offset="0.6875"/><stop stop-opacity="1" stop-color="rgb(55.19104%, 38.290405%, 83.329773%)" offset="0.691406"/><stop stop-opacity="1" stop-color="rgb(55.500793%, 38.342285%, 83.416748%)" offset="0.695312"/><stop stop-opacity="1" stop-color="rgb(55.812073%, 38.394165%, 83.505249%)" offset="0.699219"/><stop stop-opacity="1" stop-color="rgb(56.123352%, 38.447571%, 83.592224%)" offset="0.703125"/><stop stop-opacity="1" stop-color="rgb(56.434631%, 38.499451%, 83.680725%)" offset="0.707031"/><stop stop-opacity="1" stop-color="rgb(56.745911%, 38.551331%, 83.7677%)" offset="0.710938"/><stop stop-opacity="1" stop-color="rgb(57.055664%, 38.604736%, 83.854675%)" offset="0.714844"/><stop stop-opacity="1" stop-color="rgb(57.366943%, 38.656616%, 83.943176%)" offset="0.71875"/><stop stop-opacity="1" stop-color="rgb(57.678223%, 38.708496%, 84.030151%)" offset="0.722656"/><stop stop-opacity="1" stop-color="rgb(57.989502%, 38.760376%, 84.117126%)" offset="0.726562"/><stop stop-opacity="1" stop-color="rgb(58.299255%, 38.813782%, 84.205627%)" offset="0.730469"/><stop stop-opacity="1" stop-color="rgb(58.610535%, 38.865662%, 84.292603%)" offset="0.734375"/><stop stop-opacity="1" stop-color="rgb(58.921814%, 38.917542%, 84.379578%)" offset="0.738281"/><stop stop-opacity="1" stop-color="rgb(59.233093%, 38.970947%, 84.468079%)" offset="0.742188"/><stop stop-opacity="1" stop-color="rgb(59.542847%, 39.022827%, 84.555054%)" offset="0.746094"/><stop stop-opacity="1" stop-color="rgb(59.854126%, 39.074707%, 84.642029%)" offset="0.75"/><stop stop-opacity="1" stop-color="rgb(60.165405%, 39.128113%, 84.73053%)" offset="0.753906"/><stop stop-opacity="1" stop-color="rgb(60.476685%, 39.179993%, 84.817505%)" offset="0.757812"/><stop stop-opacity="1" stop-color="rgb(60.787964%, 39.231873%, 84.90448%)" offset="0.761719"/><stop stop-opacity="1" stop-color="rgb(61.097717%, 39.285278%, 84.992981%)" offset="0.765625"/><stop stop-opacity="1" stop-color="rgb(61.408997%, 39.337158%, 85.079956%)" offset="0.769531"/><stop stop-opacity="1" stop-color="rgb(61.720276%, 39.389038%, 85.166931%)" offset="0.773438"/><stop stop-opacity="1" stop-color="rgb(62.031555%, 39.440918%, 85.255432%)" offset="0.777344"/><stop stop-opacity="1" stop-color="rgb(62.341309%, 39.494324%, 85.342407%)" offset="0.78125"/><stop stop-opacity="1" stop-color="rgb(62.652588%, 39.546204%, 85.429382%)" offset="0.785156"/><stop stop-opacity="1" stop-color="rgb(62.963867%, 39.598083%, 85.517883%)" offset="0.789062"/><stop stop-opacity="1" stop-color="rgb(63.275146%, 39.651489%, 85.604858%)" offset="0.792969"/><stop stop-opacity="1" stop-color="rgb(63.586426%, 39.703369%, 85.691833%)" offset="0.796875"/><stop stop-opacity="1" stop-color="rgb(63.896179%, 39.755249%, 85.780334%)" offset="0.800781"/><stop stop-opacity="1" stop-color="rgb(64.207458%, 39.808655%, 85.86731%)" offset="0.804688"/><stop stop-opacity="1" stop-color="rgb(64.518738%, 39.860535%, 85.954285%)" offset="0.808594"/><stop stop-opacity="1" stop-color="rgb(64.830017%, 39.912415%, 86.042786%)" offset="0.8125"/><stop stop-opacity="1" stop-color="rgb(65.139771%, 39.964294%, 86.129761%)" offset="0.816406"/><stop stop-opacity="1" stop-color="rgb(65.45105%, 40.0177%, 86.216736%)" offset="0.820312"/><stop stop-opacity="1" stop-color="rgb(65.762329%, 40.06958%, 86.305237%)" offset="0.824219"/><stop stop-opacity="1" stop-color="rgb(66.073608%, 40.12146%, 86.392212%)" offset="0.828125"/><stop stop-opacity="1" stop-color="rgb(66.384888%, 40.174866%, 86.480713%)" offset="0.832031"/><stop stop-opacity="1" stop-color="rgb(66.694641%, 40.226746%, 86.567688%)" offset="0.835938"/><stop stop-opacity="1" stop-color="rgb(67.00592%, 40.278625%, 86.654663%)" offset="0.839844"/><stop stop-opacity="1" stop-color="rgb(67.3172%, 40.332031%, 86.743164%)" offset="0.84375"/><stop stop-opacity="1" stop-color="rgb(67.628479%, 40.383911%, 86.830139%)" offset="0.847656"/><stop stop-opacity="1" stop-color="rgb(67.938232%, 40.435791%, 86.917114%)" offset="0.851562"/><stop stop-opacity="1" stop-color="rgb(68.249512%, 40.489197%, 87.005615%)" offset="0.855469"/><stop stop-opacity="1" stop-color="rgb(68.560791%, 40.541077%, 87.09259%)" offset="0.859375"/><stop stop-opacity="1" stop-color="rgb(68.87207%, 40.592957%, 87.179565%)" offset="0.863281"/><stop stop-opacity="1" stop-color="rgb(69.18335%, 40.644836%, 87.268066%)" offset="0.867188"/><stop stop-opacity="1" stop-color="rgb(69.493103%, 40.698242%, 87.355042%)" offset="0.871094"/><stop stop-opacity="1" stop-color="rgb(69.804382%, 40.750122%, 87.442017%)" offset="0.875"/><stop stop-opacity="1" stop-color="rgb(70.115662%, 40.802002%, 87.530518%)" offset="0.878906"/><stop stop-opacity="1" stop-color="rgb(70.426941%, 40.855408%, 87.617493%)" offset="0.882812"/><stop stop-opacity="1" stop-color="rgb(70.736694%, 40.907288%, 87.704468%)" offset="0.886719"/><stop stop-opacity="1" stop-color="rgb(71.047974%, 40.959167%, 87.792969%)" offset="0.890625"/><stop stop-opacity="1" stop-color="rgb(71.359253%, 41.012573%, 87.879944%)" offset="0.894531"/><stop stop-opacity="1" stop-color="rgb(71.670532%, 41.064453%, 87.966919%)" offset="0.898438"/><stop stop-opacity="1" stop-color="rgb(71.981812%, 41.116333%, 88.05542%)" offset="0.902344"/><stop stop-opacity="1" stop-color="rgb(72.291565%, 41.168213%, 88.142395%)" offset="0.90625"/><stop stop-opacity="1" stop-color="rgb(72.602844%, 41.221619%, 88.22937%)" offset="0.910156"/><stop stop-opacity="1" stop-color="rgb(72.914124%, 41.273499%, 88.317871%)" offset="0.914062"/><stop stop-opacity="1" stop-color="rgb(73.225403%, 41.325378%, 88.404846%)" offset="0.917969"/><stop stop-opacity="1" stop-color="rgb(73.535156%, 41.378784%, 88.491821%)" offset="0.921875"/><stop stop-opacity="1" stop-color="rgb(73.846436%, 41.430664%, 88.580322%)" offset="0.925781"/><stop stop-opacity="1" stop-color="rgb(74.157715%, 41.482544%, 88.667297%)" offset="0.929688"/><stop stop-opacity="1" stop-color="rgb(74.468994%, 41.53595%, 88.754272%)" offset="0.933594"/><stop stop-opacity="1" stop-color="rgb(74.780273%, 41.58783%, 88.842773%)" offset="0.9375"/><stop stop-opacity="1" stop-color="rgb(75.090027%, 41.639709%, 88.929749%)" offset="0.941406"/><stop stop-opacity="1" stop-color="rgb(75.401306%, 41.693115%, 89.01825%)" offset="0.945312"/><stop stop-opacity="1" stop-color="rgb(75.712585%, 41.744995%, 89.105225%)" offset="0.949219"/><stop stop-opacity="1" stop-color="rgb(76.023865%, 41.796875%, 89.1922%)" offset="0.953125"/><stop stop-opacity="1" stop-color="rgb(76.333618%, 41.848755%, 89.280701%)" offset="0.957031"/><stop stop-opacity="1" stop-color="rgb(76.644897%, 41.902161%, 89.367676%)" offset="0.960938"/><stop stop-opacity="1" stop-color="rgb(76.956177%, 41.954041%, 89.454651%)" offset="0.964844"/><stop stop-opacity="1" stop-color="rgb(77.267456%, 42.00592%, 89.543152%)" offset="0.96875"/><stop stop-opacity="1" stop-color="rgb(77.578735%, 42.059326%, 89.630127%)" offset="0.972656"/><stop stop-opacity="1" stop-color="rgb(77.888489%, 42.111206%, 89.717102%)" offset="0.976562"/><stop stop-opacity="1" stop-color="rgb(78.199768%, 42.163086%, 89.805603%)" offset="0.980469"/><stop stop-opacity="1" stop-color="rgb(78.511047%, 42.216492%, 89.892578%)" offset="0.984375"/><stop stop-opacity="1" stop-color="rgb(78.822327%, 42.268372%, 89.979553%)" offset="0.988281"/><stop stop-opacity="1" stop-color="rgb(79.13208%, 42.320251%, 90.068054%)" offset="0.992188"/><stop stop-opacity="1" stop-color="rgb(79.443359%, 42.372131%, 90.155029%)" offset="0.996094"/><stop stop-opacity="1" stop-color="rgb(79.598999%, 42.399597%, 90.19928%)" offset="1"/></radialGradient><clipPath id="c3c7374dd3"><path d="M 6.488281 7.625 L 10 7.625 L 10 12 L 6.488281 12 Z M 6.488281 7.625 " clip-rule="nonzero"/></clipPath><clipPath id="77ce95c95e"><path d="M 7 8 L 18.375 8 L 18.375 22 L 7 22 Z M 7 8 " clip-rule="nonzero"/></clipPath><clipPath id="f22d70f9a9"><path d="M 22.546875 5.148438 L 63.484375 5.148438 L 63.484375 22 L 22.546875 22 Z M 22.546875 5.148438 " clip-rule="nonzero"/></clipPath></defs><g clip-path="url(#69946f6400)"><g clip-path="url(#8a6ea9ebee)"><path fill="url(#d740daad35)" d="M 2.804688 5.625 L 2.804688 23.867188 L 21.042969 23.867188 L 21.042969 5.625 Z M 2.804688 5.625 " fill-rule="nonzero"/></g></g><g clip-path="url(#c3c7374dd3)"><path fill="#ffffff" d="M 8.621094 7.625 C 8.960938 8.109375 9.242188 8.613281 9.472656 9.132812 C 9.304688 9.265625 9.140625 9.410156 8.984375 9.566406 C 8.324219 10.226562 7.84375 11.03125 7.574219 11.902344 C 7.527344 11.539062 7.453125 11.191406 7.347656 10.847656 C 7.160156 10.242188 6.878906 9.65625 6.488281 9.097656 Z M 8.621094 7.625 " fill-opacity="1" fill-rule="evenodd"/></g><g clip-path="url(#77ce95c95e)"><path fill="#ffffff" d="M 13.003906 8.214844 C 14.484375 8.214844 15.828125 8.816406 16.800781 9.785156 C 17.773438 10.761719 18.371094 12.101562 18.371094 13.585938 C 18.371094 15.066406 17.769531 16.410156 16.800781 17.382812 C 15.832031 18.351562 14.484375 18.953125 13.003906 18.953125 C 11.519531 18.953125 11.28125 18.738281 10.546875 18.359375 L 10.546875 14.867188 C 10.679688 15.117188 10.84375 15.347656 11.042969 15.542969 C 11.542969 16.042969 12.238281 16.355469 13.003906 16.355469 C 13.769531 16.355469 14.460938 16.046875 14.960938 15.542969 C 15.460938 15.042969 15.773438 14.351562 15.773438 13.585938 C 15.773438 12.816406 15.464844 12.128906 14.960938 11.625 C 14.460938 11.125 13.769531 10.8125 13.003906 10.8125 C 12.238281 10.8125 11.546875 11.121094 11.042969 11.625 C 10.488281 12.179688 10.234375 12.9375 10.234375 13.722656 L 10.234375 21.738281 L 7.660156 21.738281 L 7.652344 13.105469 C 7.652344 10.40625 10.386719 8.214844 13 8.214844 Z M 13.003906 8.214844 " fill-opacity="1" fill-rule="evenodd"/></g><g clip-path="url(#f22d70f9a9)"><path fill="#dad7f7" d="M 36.585938 21.851562 C 37.644531 21.851562 38.609375 21.246094 39.054688 20.296875 L 42.933594 12.046875 L 46.808594 20.296875 C 47.253906 21.246094 48.21875 21.851562 49.28125 21.851562 L 63.316406 21.851562 C 63.316406 20.933594 62.941406 20.105469 62.332031 19.503906 C 61.71875 18.902344 60.875 18.53125 59.945312 18.53125 L 51.011719 18.53125 C 50.207031 18.53125 49.480469 18.074219 49.144531 17.359375 L 43.605469 5.578125 C 43.484375 5.320312 43.222656 5.15625 42.9375 5.15625 C 42.648438 5.15625 42.386719 5.320312 42.265625 5.578125 L 36.71875 17.359375 C 36.382812 18.074219 35.65625 18.53125 34.855469 18.53125 L 25.917969 18.53125 C 24.054688 18.53125 22.546875 20.019531 22.546875 21.851562 Z M 57.832031 13.054688 L 49.71875 13.054688 C 49.71875 14.886719 50.859375 16.375 52.261719 16.375 L 60.375 16.375 C 60.375 14.539062 59.234375 13.054688 57.832031 13.054688 Z M 28.261719 13.054688 L 36.371094 13.054688 C 36.371094 14.886719 35.234375 16.375 33.828125 16.375 L 25.71875 16.375 C 25.71875 14.539062 26.855469 13.054688 28.261719 13.054688 " fill-opacity="1" fill-rule="nonzero"/></g><g fill="#004aad" fill-opacity="1"><g transform="translate(22.978462, 17.728593)"><g><path d="M 6.015625 -4.796875 C 6.015625 -4.386719 5.921875 -4.011719 5.734375 -3.671875 C 5.546875 -3.332031 5.257812 -3.058594 4.867188 -2.851562 C 4.476562 -2.644531 3.992188 -2.539062 3.417969 -2.539062 L 2.347656 -2.539062 L 2.347656 0 L 0.625 0 L 0.625 -7.074219 L 3.417969 -7.074219 C 3.980469 -7.074219 4.457031 -6.976562 4.847656 -6.78125 C 5.238281 -6.585938 5.527344 -6.320312 5.722656 -5.976562 C 5.917969 -5.632812 6.015625 -5.238281 6.015625 -4.796875 Z M 3.285156 -3.910156 C 3.613281 -3.910156 3.859375 -3.988281 4.019531 -4.140625 C 4.183594 -4.296875 4.261719 -4.515625 4.261719 -4.796875 C 4.261719 -5.078125 4.183594 -5.296875 4.019531 -5.453125 C 3.859375 -5.605469 3.613281 -5.683594 3.285156 -5.683594 L 2.347656 -5.683594 L 2.347656 -3.910156 Z M 3.285156 -3.910156 "/></g></g></g><g fill="#004aad" fill-opacity="1"><g transform="translate(28.681791, 17.728593)"><g><path d="M 2.316406 -7.074219 L 2.316406 -2.839844 C 2.316406 -2.417969 2.421875 -2.09375 2.628906 -1.863281 C 2.839844 -1.636719 3.144531 -1.523438 3.546875 -1.523438 C 3.949219 -1.523438 4.257812 -1.636719 4.472656 -1.863281 C 4.6875 -2.09375 4.796875 -2.417969 4.796875 -2.839844 L 4.796875 -7.074219 L 6.519531 -7.074219 L 6.519531 -2.851562 C 6.519531 -2.21875 6.386719 -1.6875 6.117188 -1.25 C 5.847656 -0.8125 5.488281 -0.484375 5.035156 -0.261719 C 4.582031 -0.0390625 4.074219 0.0703125 3.515625 0.0703125 C 2.960938 0.0703125 2.460938 -0.0390625 2.019531 -0.257812 C 1.582031 -0.476562 1.234375 -0.804688 0.976562 -1.246094 C 0.722656 -1.683594 0.59375 -2.21875 0.59375 -2.851562 L 0.59375 -7.074219 Z M 2.316406 -7.074219 "/></g></g></g><g fill="#004aad" fill-opacity="1"><g transform="translate(35.201333, 17.728593)"><g><path d="M 3.183594 0.0703125 C 2.667969 0.0703125 2.203125 -0.0117188 1.792969 -0.179688 C 1.382812 -0.347656 1.054688 -0.597656 0.8125 -0.925781 C 0.566406 -1.257812 0.4375 -1.652344 0.421875 -2.117188 L 2.257812 -2.117188 C 2.285156 -1.855469 2.375 -1.65625 2.53125 -1.515625 C 2.683594 -1.378906 2.886719 -1.308594 3.132812 -1.308594 C 3.390625 -1.308594 3.589844 -1.367188 3.738281 -1.488281 C 3.886719 -1.605469 3.960938 -1.765625 3.960938 -1.976562 C 3.960938 -2.148438 3.902344 -2.292969 3.785156 -2.410156 C 3.667969 -2.523438 3.523438 -2.617188 3.351562 -2.691406 C 3.179688 -2.765625 2.9375 -2.847656 2.621094 -2.941406 C 2.164062 -3.082031 1.789062 -3.226562 1.5 -3.367188 C 1.210938 -3.507812 0.964844 -3.714844 0.753906 -3.992188 C 0.546875 -4.265625 0.445312 -4.625 0.445312 -5.070312 C 0.445312 -5.726562 0.683594 -6.242188 1.160156 -6.617188 C 1.636719 -6.988281 2.257812 -7.175781 3.023438 -7.175781 C 3.800781 -7.175781 4.429688 -6.988281 4.90625 -6.617188 C 5.382812 -6.242188 5.640625 -5.722656 5.671875 -5.058594 L 3.808594 -5.058594 C 3.796875 -5.289062 3.710938 -5.46875 3.558594 -5.597656 C 3.402344 -5.730469 3.203125 -5.792969 2.960938 -5.792969 C 2.753906 -5.792969 2.585938 -5.738281 2.457031 -5.628906 C 2.332031 -5.515625 2.265625 -5.359375 2.265625 -5.148438 C 2.265625 -4.921875 2.375 -4.742188 2.589844 -4.617188 C 2.804688 -4.488281 3.140625 -4.351562 3.597656 -4.203125 C 4.054688 -4.046875 4.425781 -3.898438 4.710938 -3.757812 C 4.996094 -3.617188 5.242188 -3.414062 5.453125 -3.144531 C 5.660156 -2.875 5.765625 -2.53125 5.765625 -2.105469 C 5.765625 -1.703125 5.660156 -1.335938 5.457031 -1.007812 C 5.25 -0.679688 4.953125 -0.417969 4.566406 -0.222656 C 4.175781 -0.0273438 3.714844 0.0703125 3.183594 0.0703125 Z M 3.183594 0.0703125 "/></g></g></g><g fill="#004aad" fill-opacity="1"><g transform="translate(40.813971, 17.728593)"><g><path d="M 5.714844 -7.074219 L 5.714844 -5.695312 L 3.839844 -5.695312 L 3.839844 0 L 2.117188 0 L 2.117188 -5.695312 L 0.242188 -5.695312 L 0.242188 -7.074219 Z M 5.714844 -7.074219 "/></g></g></g><g fill="#004aad" fill-opacity="1"><g transform="translate(46.184769, 17.728593)"><g><path d="M 5.027344 -1.25 L 2.386719 -1.25 L 1.964844 0 L 0.160156 0 L 2.722656 -7.074219 L 4.714844 -7.074219 L 7.277344 0 L 5.453125 0 Z M 4.585938 -2.578125 L 3.707031 -5.167969 L 2.839844 -2.578125 Z M 4.585938 -2.578125 "/></g></g></g><g fill="#004aad" fill-opacity="1"><g transform="translate(53.026764, 17.728593)"><g><path d="M 4.726562 0 L 2.347656 -3.125 L 2.347656 0 L 0.625 0 L 0.625 -7.074219 L 2.347656 -7.074219 L 2.347656 -3.96875 L 4.707031 -7.074219 L 6.730469 -7.074219 L 3.992188 -3.609375 L 6.832031 0 Z M 4.726562 0 "/></g></g></g><g fill="#004aad" fill-opacity="1"><g transform="translate(59.465691, 17.728593)"><g><path d="M 5.027344 -1.25 L 2.386719 -1.25 L 1.964844 0 L 0.160156 0 L 2.722656 -7.074219 L 4.714844 -7.074219 L 7.277344 0 L 5.453125 0 Z M 4.585938 -2.578125 L 3.707031 -5.167969 L 2.839844 -2.578125 Z M 4.585938 -2.578125 "/></g></g></g><g fill="#000000" fill-opacity="1"><g transform="translate(63.979523, 21.039969)"><g><path d="M 0.257812 0 L 0.257812 -1.761719 L 0.929688 -1.761719 C 1.050781 -1.761719 1.160156 -1.738281 1.25 -1.695312 C 1.339844 -1.648438 1.410156 -1.582031 1.460938 -1.5 C 1.511719 -1.414062 1.535156 -1.3125 1.535156 -1.195312 C 1.535156 -1.054688 1.5 -0.9375 1.425781 -0.84375 C 1.351562 -0.75 1.25 -0.6875 1.121094 -0.65625 L 1.5625 0 L 1.296875 0 L 0.867188 -0.632812 L 0.480469 -0.632812 L 0.480469 0 Z M 0.480469 -0.84375 L 0.902344 -0.84375 C 1.035156 -0.84375 1.132812 -0.875 1.203125 -0.9375 C 1.273438 -0.996094 1.308594 -1.082031 1.308594 -1.195312 C 1.308594 -1.308594 1.273438 -1.394531 1.203125 -1.457031 C 1.132812 -1.519531 1.035156 -1.550781 0.902344 -1.550781 L 0.480469 -1.550781 Z M 0.480469 -0.84375 "/></g></g></g><g fill="#000000" fill-opacity="1"><g transform="translate(66.397312, 21.039969)"><g><path d="M 0.0429688 0 L 0.769531 -1.761719 L 0.976562 -1.761719 L 1.699219 0 L 1.464844 0 L 1.300781 -0.402344 L 0.441406 -0.402344 L 0.28125 0 Z M 0.527344 -0.605469 L 1.214844 -0.605469 L 0.871094 -1.453125 Z M 0.527344 -0.605469 "/></g></g></g><g fill="#000000" fill-opacity="1"><g transform="translate(68.842799, 21.039969)"><g><path d="M 0.84375 0.03125 C 0.703125 0.03125 0.582031 0.0078125 0.476562 -0.0390625 C 0.375 -0.0859375 0.292969 -0.152344 0.238281 -0.242188 C 0.183594 -0.328125 0.152344 -0.425781 0.152344 -0.542969 L 0.371094 -0.542969 C 0.375 -0.429688 0.421875 -0.339844 0.507812 -0.277344 C 0.59375 -0.210938 0.707031 -0.179688 0.84375 -0.179688 C 0.96875 -0.179688 1.066406 -0.203125 1.140625 -0.25 C 1.210938 -0.300781 1.25 -0.367188 1.25 -0.457031 C 1.25 -0.539062 1.214844 -0.605469 1.144531 -0.652344 C 1.074219 -0.703125 0.957031 -0.746094 0.796875 -0.785156 C 0.582031 -0.835938 0.421875 -0.902344 0.324219 -0.984375 C 0.222656 -1.066406 0.171875 -1.171875 0.171875 -1.308594 C 0.171875 -1.460938 0.226562 -1.578125 0.339844 -1.664062 C 0.453125 -1.753906 0.609375 -1.796875 0.800781 -1.796875 C 1 -1.796875 1.15625 -1.746094 1.269531 -1.648438 C 1.386719 -1.546875 1.445312 -1.414062 1.445312 -1.242188 L 1.226562 -1.242188 C 1.226562 -1.347656 1.1875 -1.429688 1.109375 -1.492188 C 1.03125 -1.554688 0.929688 -1.585938 0.800781 -1.585938 C 0.675781 -1.585938 0.578125 -1.558594 0.503906 -1.511719 C 0.433594 -1.460938 0.398438 -1.394531 0.398438 -1.308594 C 0.398438 -1.238281 0.429688 -1.175781 0.496094 -1.128906 C 0.5625 -1.078125 0.683594 -1.03125 0.855469 -0.988281 C 1.078125 -0.933594 1.238281 -0.863281 1.335938 -0.78125 C 1.429688 -0.699219 1.476562 -0.59375 1.476562 -0.464844 C 1.476562 -0.3125 1.421875 -0.191406 1.304688 -0.101562 C 1.191406 -0.0117188 1.035156 0.03125 0.84375 0.03125 Z M 0.84375 0.03125 "/></g></g></g><g fill="#000000" fill-opacity="1"><g transform="translate(71.174972, 21.039969)"><g><path d="M 0.0429688 0 L 0.769531 -1.761719 L 0.976562 -1.761719 L 1.699219 0 L 1.464844 0 L 1.300781 -0.402344 L 0.441406 -0.402344 L 0.28125 0 Z M 0.527344 -0.605469 L 1.214844 -0.605469 L 0.871094 -1.453125 Z M 0.527344 -0.605469 "/></g></g></g></svg>