<svg xmlns="http://www.w3.org/2000/svg" xmlns:xlink="http://www.w3.org/1999/xlink" width="100" zoomAndPan="magnify" viewBox="0 0 75 37.5" height="50" preserveAspectRatio="xMidYMid meet" version="1.0"><defs><filter x="0%" y="0%" width="100%" height="100%" id="e104250412"><feColorMatrix values="0 0 0 0 1 0 0 0 0 1 0 0 0 0 1 0 0 0 1 0" color-interpolation-filters="sRGB"/></filter><g/><clipPath id="cb6cfeeeaa"><path d="M 0.492188 2.683594 L 31.714844 2.683594 L 31.714844 33.902344 L 0.492188 33.902344 Z M 0.492188 2.683594 " clip-rule="nonzero"/></clipPath><clipPath id="f7ee2bee46"><path d="M 1 4 L 31.714844 4 L 31.714844 30 L 1 30 Z M 1 4 " clip-rule="nonzero"/></clipPath><mask id="947b5917c6"><g filter="url(#e104250412)"><rect x="-7.5" width="90" fill="#000000" y="-3.75" height="45" fill-opacity="0.1"/></g></mask><clipPath id="5d845375ce"><path d="M 0.914062 20 L 30 20 L 30 25 L 0.914062 25 Z M 0.914062 20 " clip-rule="nonzero"/></clipPath><clipPath id="a8a4142b68"><path d="M 0.914062 10 L 30 10 L 30 15 L 0.914062 15 Z M 0.914062 10 " clip-rule="nonzero"/></clipPath><clipPath id="2ae19acd6d"><path d="M 0.914062 0.0273438 L 30 0.0273438 L 30 5 L 0.914062 5 Z M 0.914062 0.0273438 " clip-rule="nonzero"/></clipPath><clipPath id="90828e6e12"><rect x="0" width="31" y="0" height="26"/></clipPath><mask id="83a74b456a"><g filter="url(#e104250412)"><rect x="-7.5" width="90" fill="#000000" y="-3.75" height="45" fill-opacity="0.1"/></g></mask><clipPath id="d1463d769c"><path d="M 0.703125 0.15625 L 6 0.15625 L 6 25.738281 L 0.703125 25.738281 Z M 0.703125 0.15625 " clip-rule="nonzero"/></clipPath><clipPath id="8cd29df7e7"><rect x="0" width="7" y="0" height="26"/></clipPath></defs><g clip-path="url(#cb6cfeeeaa)"><path fill="#69247c" d="M 5.886719 4.03125 L 31.054688 4.03125 C 31.421875 4.03125 31.71875 3.734375 31.71875 3.371094 C 31.71875 3.003906 31.421875 2.707031 31.054688 2.707031 L 5.785156 2.707031 C 2.917969 2.707031 0.597656 5.03125 0.597656 7.894531 C 0.597656 10.757812 2.917969 13.082031 5.785156 13.082031 C 2.917969 13.082031 0.597656 15.402344 0.597656 18.269531 C 0.597656 21.132812 2.917969 23.453125 5.785156 23.453125 C 2.855469 23.453125 0.496094 25.878906 0.601562 28.832031 C 0.699219 31.640625 3.097656 33.828125 5.90625 33.828125 L 31.058594 33.828125 C 31.421875 33.828125 31.71875 33.53125 31.71875 33.167969 C 31.71875 32.800781 31.421875 32.507812 31.058594 32.507812 L 5.886719 32.507812 C 3.726562 32.507812 1.886719 30.738281 1.921875 28.578125 C 1.957031 26.476562 3.675781 24.78125 5.785156 24.78125 L 31.058594 24.78125 C 31.421875 24.78125 31.71875 24.484375 31.71875 24.117188 L 31.71875 22.796875 C 31.71875 22.429688 31.421875 22.136719 31.058594 22.136719 L 5.886719 22.136719 C 3.726562 22.136719 1.882812 20.367188 1.921875 18.207031 C 1.953125 16.105469 3.675781 14.410156 5.785156 14.410156 L 31.054688 14.410156 C 31.421875 14.410156 31.71875 14.113281 31.71875 13.746094 L 31.71875 12.421875 C 31.71875 12.058594 31.421875 11.761719 31.054688 11.761719 L 5.78125 11.761719 C 3.675781 11.761719 1.953125 10.0625 1.917969 7.964844 C 1.882812 5.800781 3.726562 4.03125 5.886719 4.03125 Z M 5.886719 4.03125 " fill-opacity="1" fill-rule="nonzero"/></g><path fill="#faf3e4" d="M 5.785156 11.757812 C 3.652344 11.757812 1.921875 10.023438 1.921875 7.894531 C 1.921875 5.765625 3.652344 4.03125 5.785156 4.03125 L 30.820312 4.03125 L 30.820312 11.757812 Z M 30.820312 22.132812 L 30.820312 14.40625 L 5.785156 14.40625 C 3.652344 14.40625 1.921875 16.136719 1.921875 18.269531 C 1.921875 20.398438 3.652344 22.132812 5.785156 22.132812 Z M 30.820312 32.507812 L 30.820312 24.777344 L 5.785156 24.777344 C 3.652344 24.777344 1.921875 26.511719 1.921875 28.644531 C 1.921875 30.773438 3.652344 32.507812 5.785156 32.507812 Z M 30.820312 32.507812 " fill-opacity="1" fill-rule="nonzero"/><g clip-path="url(#f7ee2bee46)"><g mask="url(#947b5917c6)"><g transform="matrix(1, 0, 0, 1, 1, 4)"><g clip-path="url(#90828e6e12)"><g clip-path="url(#5d845375ce)"><path fill="#000000" d="M 0.917969 24.644531 C 0.917969 24.746094 0.925781 24.847656 0.933594 24.945312 C 1.089844 22.957031 2.753906 21.386719 4.78125 21.386719 L 29.820312 21.386719 L 29.820312 20.777344 L 4.785156 20.777344 C 2.652344 20.777344 0.917969 22.511719 0.917969 24.644531 Z M 0.917969 24.644531 " fill-opacity="1" fill-rule="nonzero"/></g><g clip-path="url(#a8a4142b68)"><path fill="#000000" d="M 0.917969 14.269531 C 0.917969 14.371094 0.925781 14.472656 0.933594 14.574219 C 1.089844 12.585938 2.753906 11.011719 4.78125 11.011719 L 29.820312 11.011719 L 29.820312 10.40625 L 4.785156 10.40625 C 2.652344 10.40625 0.917969 12.136719 0.917969 14.269531 Z M 0.917969 14.269531 " fill-opacity="1" fill-rule="nonzero"/></g><g clip-path="url(#2ae19acd6d)"><path fill="#000000" d="M 4.785156 0.03125 C 2.652344 0.03125 0.921875 1.765625 0.921875 3.894531 C 0.921875 3.996094 0.925781 4.097656 0.933594 4.199219 C 1.089844 2.210938 2.757812 0.640625 4.785156 0.640625 L 29.820312 0.640625 L 29.820312 0.03125 Z M 4.785156 0.03125 " fill-opacity="1" fill-rule="nonzero"/></g></g></g></g></g><path fill="#e6b187" d="M 30.820312 6.328125 L 5.195312 6.328125 L 5.195312 6.195312 L 30.820312 6.195312 Z M 30.820312 7.828125 L 5.195312 7.828125 L 5.195312 7.960938 L 30.820312 7.960938 Z M 30.820312 9.460938 L 5.195312 9.460938 L 5.195312 9.59375 L 30.820312 9.59375 Z M 30.820312 16.570312 L 5.195312 16.570312 L 5.195312 16.703125 L 30.820312 16.703125 Z M 30.820312 18.203125 L 5.195312 18.203125 L 5.195312 18.335938 L 30.820312 18.335938 Z M 30.820312 19.835938 L 5.195312 19.835938 L 5.195312 19.96875 L 30.820312 19.96875 Z M 30.820312 26.945312 L 5.195312 26.945312 L 5.195312 27.074219 L 30.820312 27.074219 Z M 30.820312 28.578125 L 5.195312 28.578125 L 5.195312 28.707031 L 30.820312 28.707031 Z M 30.820312 30.210938 L 5.195312 30.210938 L 5.195312 30.339844 L 30.820312 30.339844 Z M 30.820312 30.210938 " fill-opacity="1" fill-rule="nonzero"/><g mask="url(#83a74b456a)"><g transform="matrix(1, 0, 0, 1, 23, 6)"><g clip-path="url(#8cd29df7e7)"><g clip-path="url(#d1463d769c)"><path fill="#000000" d="M 5.894531 25.558594 L 3.347656 23.355469 L 0.796875 25.558594 L 0.796875 0.195312 L 5.894531 0.195312 Z M 5.894531 25.558594 " fill-opacity="1" fill-rule="nonzero"/></g></g></g></g><path fill="#e6b187" d="M 28.328125 30.910156 L 25.78125 28.707031 L 23.230469 30.910156 L 23.230469 6.195312 L 28.328125 6.195312 Z M 28.328125 30.910156 " fill-opacity="1" fill-rule="nonzero"/><g fill="#69247c" fill-opacity="1"><g transform="translate(35.306885, 29.617998)"><g><path d="M 17.441406 -18.539062 C 17.515625 -18.027344 17.550781 -17.527344 17.550781 -17.039062 C 17.550781 -15.644531 17.269531 -14.328125 16.707031 -13.082031 C 16.390625 -12.46875 16.0625 -11.933594 15.71875 -11.46875 C 15.792969 -11.589844 15.828125 -11.738281 15.828125 -11.90625 C 15.828125 -12.105469 15.816406 -12.25 15.792969 -12.347656 C 15.769531 -12.445312 15.753906 -12.566406 15.753906 -12.714844 C 15.753906 -12.835938 15.78125 -12.898438 15.828125 -12.898438 L 15.792969 -12.898438 C 15.792969 -13.070312 15.78125 -13.191406 15.753906 -13.265625 C 15.753906 -13.410156 15.804688 -13.542969 15.902344 -13.667969 C 15.753906 -13.691406 15.707031 -13.753906 15.753906 -13.851562 C 15.753906 -13.949219 15.742188 -14.007812 15.71875 -14.035156 L 15.71875 -11.46875 C 15.132812 -10.664062 14.398438 -10.015625 13.519531 -9.527344 L 13.484375 -9.527344 C 12.3125 -8.890625 11.003906 -8.378906 9.5625 -7.988281 C 9.148438 -7.839844 8.574219 -7.707031 7.839844 -7.585938 L 7.511719 -7.511719 L 7.21875 -7.476562 L 7.179688 -7.476562 C 7.179688 -7.523438 7.15625 -7.546875 7.109375 -7.546875 C 6.984375 -7.546875 6.925781 -7.511719 6.925781 -7.4375 C 6.925781 -7.414062 6.9375 -7.402344 6.960938 -7.402344 L 5.824219 -7.253906 L 5.605469 -0.734375 C 5.605469 -0.246094 5.363281 0 4.875 0 L 0.367188 0 C 0.148438 0 -0.03125 -0.0742188 -0.164062 -0.21875 C -0.300781 -0.367188 -0.367188 -0.550781 -0.367188 -0.769531 L -0.21875 -3.515625 L -0.148438 -3.445312 C -0.0742188 -3.46875 0.0507812 -3.542969 0.21875 -3.664062 L 0.109375 -3.738281 L -0.0742188 -3.738281 L -0.21875 -3.628906 L -0.148438 -5.570312 L -0.0351562 -5.570312 C -0.0351562 -5.617188 -0.0625 -5.644531 -0.109375 -5.644531 L -0.148438 -5.679688 L 0.660156 -23.011719 C 0.707031 -23.375 0.902344 -23.597656 1.246094 -23.667969 C 5.765625 -24.597656 8.304688 -25.097656 8.867188 -25.171875 C 8.964844 -25.171875 9.097656 -25.179688 9.269531 -25.191406 C 9.441406 -25.203125 9.636719 -25.234375 9.855469 -25.28125 L 10.84375 -25.320312 L 10.882812 -25.320312 C 12.789062 -25.222656 14.300781 -24.5625 15.425781 -23.339844 C 16.550781 -22.117188 17.222656 -20.519531 17.441406 -18.539062 Z M 1.941406 -21.398438 L 1.941406 -21.507812 L 1.867188 -21.507812 L 1.867188 -21.398438 Z M 6.117188 -13.117188 C 6.902344 -13.214844 7.488281 -13.3125 7.878906 -13.410156 C 9.074219 -13.800781 9.976562 -14.253906 10.589844 -14.765625 C 11.054688 -15.15625 11.359375 -15.671875 11.503906 -16.304688 C 11.53125 -16.425781 11.542969 -16.609375 11.542969 -16.855469 C 11.542969 -17.5625 11.382812 -18.199219 11.066406 -18.761719 C 10.746094 -19.320312 10.296875 -19.601562 9.710938 -19.601562 C 9.5625 -19.601562 9.453125 -19.589844 9.378906 -19.566406 L 6.484375 -18.980469 Z M 13.628906 -19.382812 L 13.628906 -19.308594 L 13.777344 -19.308594 L 13.777344 -19.382812 Z M 11.652344 -19.089844 C 11.628906 -19.066406 11.613281 -19.039062 11.613281 -19.015625 C 11.613281 -18.992188 11.628906 -18.980469 11.652344 -18.980469 C 11.675781 -18.929688 11.710938 -18.90625 11.761719 -18.90625 C 11.808594 -18.90625 11.835938 -18.929688 11.835938 -18.980469 L 11.90625 -19.015625 Z M 1.503906 -18.722656 L 1.503906 -18.90625 L 1.429688 -18.90625 L 1.429688 -18.722656 Z M 12.75 -18.722656 L 12.75 -18.832031 L 12.640625 -18.832031 L 12.640625 -18.722656 Z M 12.972656 -17.515625 C 12.972656 -17.636719 12.875 -17.746094 12.675781 -17.84375 L 12.675781 -17.402344 C 12.773438 -17.402344 12.875 -17.441406 12.972656 -17.515625 Z M 13.042969 -16.78125 C 13.140625 -16.878906 13.191406 -16.941406 13.191406 -16.964844 L 13.117188 -17.148438 L 12.972656 -17.039062 C 12.972656 -17.039062 12.964844 -17.03125 12.953125 -17.019531 C 12.941406 -17.007812 12.933594 -17 12.933594 -17 L 12.898438 -17 C 12.800781 -16.953125 12.726562 -16.902344 12.675781 -16.855469 Z M 13.628906 -16.488281 C 13.558594 -16.660156 13.507812 -16.746094 13.484375 -16.746094 L 13.410156 -16.78125 L 13.335938 -16.746094 C 13.335938 -16.648438 13.386719 -16.597656 13.484375 -16.597656 Z M 12.3125 -15.9375 C 12.3125 -16.011719 12.300781 -16.0625 12.273438 -16.085938 L 12.203125 -16.121094 L 12.054688 -16.121094 L 12.054688 -15.9375 Z M 12.238281 -15.5 C 12.335938 -15.597656 12.382812 -15.683594 12.382812 -15.753906 C 12.285156 -15.753906 12.226562 -15.769531 12.203125 -15.792969 L 12.054688 -15.683594 C 11.980469 -15.609375 11.957031 -15.558594 11.980469 -15.535156 Z M 12.675781 -15.570312 C 12.875 -15.570312 12.972656 -15.632812 12.972656 -15.753906 L 12.675781 -15.753906 Z M 15.828125 -15.097656 C 15.851562 -15.121094 15.867188 -15.15625 15.867188 -15.207031 C 15.867188 -15.304688 15.816406 -15.414062 15.71875 -15.535156 C 15.671875 -15.488281 15.671875 -15.4375 15.71875 -15.390625 C 15.71875 -15.316406 15.707031 -15.265625 15.683594 -15.242188 L 15.425781 -15.242188 C 15.472656 -15.167969 15.449219 -15.132812 15.351562 -15.132812 C 15.351562 -15.132812 15.425781 -15.109375 15.570312 -15.058594 L 15.753906 -15.023438 C 15.753906 -15.023438 15.761719 -15.035156 15.773438 -15.058594 C 15.785156 -15.082031 15.804688 -15.097656 15.828125 -15.097656 Z M 12.457031 -15.242188 C 12.652344 -15.167969 12.824219 -15.132812 12.972656 -15.132812 C 12.824219 -15.253906 12.75 -15.316406 12.75 -15.316406 C 12.628906 -15.316406 12.554688 -15.304688 12.53125 -15.277344 Z M 12.675781 -15.097656 L 12.53125 -15.023438 L 12.75 -14.875 L 12.824219 -14.949219 Z M 15.683594 -14.949219 L 15.683594 -14.105469 L 15.792969 -14.105469 L 15.792969 -14.949219 Z M 11.980469 -13.921875 C 11.859375 -14.070312 11.726562 -14.167969 11.578125 -14.214844 Z M 12.273438 -12.53125 L 12.273438 -12.457031 L 12.640625 -12.457031 L 12.640625 -12.53125 Z M 11.652344 -12.054688 C 11.652344 -12.105469 11.621094 -12.144531 11.558594 -12.183594 C 11.5 -12.21875 11.445312 -12.238281 11.394531 -12.238281 L 11.320312 -12.019531 Z M 10.734375 -12.054688 L 10.957031 -12.054688 L 10.957031 -12.128906 L 10.734375 -12.128906 Z M 2.636719 -11.503906 C 2.589844 -11.578125 2.527344 -11.640625 2.453125 -11.6875 C 2.382812 -11.738281 2.34375 -11.785156 2.34375 -11.835938 C 2.273438 -11.761719 2.199219 -11.726562 2.125 -11.726562 C 2.125 -11.699219 2.101562 -11.6875 2.050781 -11.6875 C 2.246094 -11.664062 2.382812 -11.601562 2.453125 -11.503906 Z M 10.808594 -11.796875 C 10.761719 -11.75 10.734375 -11.726562 10.734375 -11.726562 L 10.699219 -11.726562 C 10.648438 -11.699219 10.625 -11.664062 10.625 -11.613281 C 10.625 -11.542969 10.636719 -11.503906 10.664062 -11.503906 L 10.699219 -11.503906 C 10.746094 -11.457031 10.808594 -11.433594 10.882812 -11.433594 C 11.003906 -11.433594 11.078125 -11.46875 11.101562 -11.542969 L 11.101562 -11.726562 Z M 1.867188 -11.503906 L 1.941406 -11.613281 C 1.964844 -11.640625 1.980469 -11.675781 1.980469 -11.726562 L 1.796875 -11.726562 L 1.796875 -11.652344 Z M 7.253906 -11.652344 L 7.144531 -11.652344 L 7.144531 -11.46875 L 7.253906 -11.46875 Z M 2.050781 -11.066406 C 2.148438 -11.066406 2.234375 -11.078125 2.308594 -11.101562 C 2.453125 -11.152344 2.539062 -11.175781 2.566406 -11.175781 L 2.382812 -11.320312 C 2.285156 -11.371094 2.222656 -11.394531 2.199219 -11.394531 C 2.148438 -11.394531 2.078125 -11.371094 1.980469 -11.320312 L 1.796875 -11.175781 C 1.84375 -11.152344 1.882812 -11.132812 1.90625 -11.121094 C 1.929688 -11.109375 1.929688 -11.101562 1.90625 -11.101562 Z M 11.613281 -11.359375 L 11.542969 -11.175781 L 11.6875 -11.140625 L 11.761719 -11.285156 Z M 9.234375 -10.808594 C 9.183594 -10.808594 9.136719 -10.789062 9.085938 -10.753906 C 9.039062 -10.71875 9.011719 -10.675781 9.011719 -10.625 L 9.269531 -10.589844 L 9.269531 -10.40625 L 9.488281 -10.40625 L 9.601562 -10.441406 C 9.503906 -10.539062 9.390625 -10.589844 9.269531 -10.589844 L 9.308594 -10.699219 C 9.308594 -10.722656 9.28125 -10.761719 9.234375 -10.808594 Z M 10.589844 -10.589844 C 10.589844 -10.613281 10.578125 -10.625 10.550781 -10.625 L 10.550781 -10.699219 C 10.550781 -10.699219 10.546875 -10.707031 10.535156 -10.71875 C 10.523438 -10.730469 10.515625 -10.734375 10.515625 -10.734375 L 10.296875 -10.589844 Z M 1.832031 -10.699219 L 1.757812 -10.699219 L 1.867188 -10.40625 L 1.941406 -10.40625 Z M 9.929688 -10.332031 C 9.976562 -10.382812 10.003906 -10.429688 10.003906 -10.480469 C 10.003906 -10.527344 9.976562 -10.578125 9.929688 -10.625 L 9.671875 -10.625 C 9.746094 -10.453125 9.832031 -10.355469 9.929688 -10.332031 Z M 1.867188 -10.332031 L 1.757812 -10.222656 L 1.832031 -10.1875 L 1.941406 -10.332031 Z M 7.585938 -10.332031 L 7.585938 -10.074219 L 7.878906 -10.113281 Z M 2.785156 -10.296875 L 2.785156 -10.113281 L 3.003906 -10.113281 L 3.003906 -10.296875 Z M 9.601562 -10.148438 C 9.476562 -10.074219 9.367188 -9.976562 9.269531 -9.855469 L 9.5625 -9.855469 L 10.113281 -9.746094 L 10.113281 -9.820312 L 10.074219 -9.855469 L 10.039062 -9.929688 L 10.003906 -9.929688 L 9.964844 -9.894531 L 9.820312 -9.855469 L 9.671875 -9.855469 Z M 10.371094 -9.5625 C 10.371094 -9.660156 10.308594 -9.746094 10.1875 -9.820312 C 10.113281 -9.722656 10.101562 -9.625 10.148438 -9.527344 L 10.296875 -9.527344 Z M 9.453125 -9.160156 C 9.527344 -9.160156 9.585938 -9.136719 9.636719 -9.085938 C 9.757812 -9.257812 9.820312 -9.355469 9.820312 -9.378906 L 9.78125 -9.527344 C 9.78125 -9.527344 9.746094 -9.5625 9.671875 -9.636719 L 9.601562 -9.601562 L 9.5625 -9.601562 C 9.5625 -9.601562 9.558594 -9.59375 9.542969 -9.582031 C 9.53125 -9.570312 9.527344 -9.5625 9.527344 -9.5625 L 9.453125 -9.527344 Z M 1.320312 -9.417969 L 1.503906 -9.417969 L 1.464844 -9.488281 C 1.464844 -9.488281 1.429688 -9.527344 1.355469 -9.601562 L 1.355469 -9.488281 Z M 10.589844 -9.269531 L 10.589844 -9.160156 L 10.882812 -9.234375 L 10.882812 -9.34375 Z M 7.109375 -9.125 C 6.984375 -9 6.925781 -8.914062 6.925781 -8.867188 L 7.109375 -8.757812 L 7.328125 -8.941406 Z M 9.929688 -8.976562 C 9.929688 -8.902344 9.992188 -8.867188 10.113281 -8.867188 L 10.1875 -8.867188 C 10.210938 -8.890625 10.222656 -8.941406 10.222656 -9.011719 L 10.222656 -9.125 C 10.027344 -9.125 9.929688 -9.074219 9.929688 -8.976562 Z M 2.453125 -9.085938 L 2.234375 -9.011719 L 2.234375 -8.941406 L 2.492188 -9.011719 Z M 10.371094 -8.609375 C 10.417969 -8.683594 10.417969 -8.746094 10.371094 -8.792969 C 10.246094 -8.746094 10.1875 -8.683594 10.1875 -8.609375 Z M 10.039062 -8.539062 C 10.039062 -8.609375 10.003906 -8.660156 9.929688 -8.683594 C 9.808594 -8.683594 9.746094 -8.636719 9.746094 -8.539062 Z M 1.613281 -8.464844 L 1.613281 -8.242188 L 1.683594 -8.242188 L 1.683594 -8.464844 Z M 6.816406 -8.0625 L 6.816406 -7.914062 L 7.035156 -7.914062 L 7.035156 -8.0625 Z M 1.648438 -8.023438 C 1.625 -7.925781 1.601562 -7.839844 1.574219 -7.769531 C 1.550781 -7.695312 1.527344 -7.621094 1.503906 -7.546875 C 1.476562 -7.476562 1.453125 -7.402344 1.429688 -7.328125 C 1.40625 -7.253906 1.390625 -7.179688 1.390625 -7.109375 C 1.390625 -7.058594 1.40625 -7.023438 1.429688 -7 C 1.476562 -6.949219 1.488281 -6.914062 1.464844 -6.886719 C 1.34375 -6.863281 1.308594 -6.789062 1.355469 -6.667969 C 1.40625 -6.523438 1.40625 -6.425781 1.355469 -6.375 C 1.355469 -6.375 1.332031 -6.351562 1.28125 -6.300781 C 1.28125 -6.300781 1.277344 -6.296875 1.265625 -6.285156 C 1.25 -6.273438 1.246094 -6.265625 1.246094 -6.265625 C 1.195312 -6.242188 1.171875 -6.203125 1.171875 -6.15625 C 1.171875 -6.105469 1.183594 -6.070312 1.210938 -6.046875 C 1.210938 -6.046875 1.214844 -6.027344 1.226562 -5.992188 C 1.238281 -5.953125 1.222656 -5.921875 1.171875 -5.898438 L 1.097656 -5.863281 L 1.0625 -5.863281 C 1.136719 -5.742188 1.160156 -5.644531 1.136719 -5.570312 C 1.039062 -5.300781 1.015625 -5.117188 1.0625 -5.019531 C 1.085938 -4.972656 1.09375 -4.929688 1.082031 -4.890625 C 1.070312 -4.855469 1.050781 -4.835938 1.027344 -4.835938 C 0.976562 -4.714844 0.953125 -4.566406 0.953125 -4.398438 C 0.953125 -4.226562 0.964844 -4.105469 0.988281 -4.03125 C 0.914062 -4.007812 0.867188 -3.957031 0.84375 -3.882812 L 0.695312 -3.699219 L 0.695312 -3.589844 C 0.695312 -3.25 0.683594 -3.015625 0.660156 -2.894531 C 0.609375 -2.722656 0.582031 -2.582031 0.566406 -2.472656 C 0.554688 -2.363281 0.550781 -2.273438 0.550781 -2.199219 C 0.550781 -2.125 0.539062 -2.0625 0.511719 -2.015625 L 0.441406 -1.867188 C 0.441406 -1.746094 0.457031 -1.5625 0.496094 -1.320312 C 0.53125 -1.074219 0.585938 -0.914062 0.660156 -0.84375 C 0.804688 -0.792969 0.976562 -0.769531 1.171875 -0.769531 L 1.648438 -0.695312 Z M 0.328125 -6.742188 L 0.328125 -6.851562 L 0.109375 -6.851562 L 0.109375 -6.742188 Z M 0.328125 -6.117188 C 0.28125 -6.167969 0.214844 -6.191406 0.128906 -6.191406 C 0.0429688 -6.191406 0 -6.167969 0 -6.117188 L 0.109375 -6.007812 C 0.183594 -6.007812 0.257812 -6.046875 0.328125 -6.117188 Z M 0.292969 -5.679688 C 0.34375 -5.679688 0.367188 -5.703125 0.367188 -5.753906 C 0.21875 -5.800781 0.0976562 -5.800781 0 -5.753906 L 0.183594 -5.644531 Z M 0.292969 -5.386719 C 0.171875 -5.460938 0.109375 -5.53125 0.109375 -5.605469 L 0.0742188 -5.496094 C 0.0742188 -5.445312 0.0625 -5.410156 0.0351562 -5.386719 Z M 3.554688 -5.054688 C 3.554688 -4.957031 3.578125 -4.859375 3.628906 -4.761719 L 3.628906 -5.167969 Z M -0.0742188 -4.652344 L -0.0742188 -4.542969 L 0.109375 -4.542969 L 0.109375 -4.652344 Z M 3.554688 -4.285156 L 3.515625 -4.175781 C 3.515625 -4.128906 3.503906 -4.105469 3.480469 -4.105469 C 3.554688 -3.980469 3.566406 -3.921875 3.515625 -3.921875 C 3.492188 -3.945312 3.476562 -3.949219 3.460938 -3.9375 C 3.449219 -3.925781 3.445312 -3.910156 3.445312 -3.882812 C 3.445312 -3.785156 3.457031 -3.707031 3.480469 -3.644531 C 3.503906 -3.585938 3.542969 -3.503906 3.589844 -3.40625 L 3.628906 -4.652344 Z M -0.109375 -3.113281 L -0.21875 -3.078125 L -0.21875 -3.042969 L -0.0742188 -3.078125 Z M 4.910156 -0.183594 L 4.835938 -0.183594 L 4.875 -0.0742188 L 4.945312 -0.0742188 Z M 4.910156 -0.183594 "/></g></g></g><g fill="#69247c" fill-opacity="1"><g transform="translate(54.797802, 29.617998)"><g><path d="M 17.257812 -3.738281 C 17.332031 -3.640625 17.367188 -3.515625 17.367188 -3.371094 C 17.367188 -3.152344 17.246094 -2.957031 17 -2.785156 L 12.972656 -0.148438 C 12.824219 -0.0234375 12.628906 0.0117188 12.382812 -0.0351562 C 12.140625 -0.109375 11.980469 -0.246094 11.90625 -0.441406 C 10.957031 -2.539062 10.308594 -3.859375 9.964844 -4.398438 L 9.964844 -4.433594 C 9.28125 -5.65625 8.757812 -6.570312 8.390625 -7.179688 L 7.769531 -8.207031 L 5.714844 -7.65625 L 5.605469 -0.988281 C 5.605469 -0.5 5.363281 -0.257812 4.875 -0.257812 L 0.367188 -0.257812 C 0.148438 -0.257812 -0.03125 -0.328125 -0.164062 -0.476562 C -0.300781 -0.621094 -0.367188 -0.804688 -0.367188 -1.027344 L 1.136719 -23.707031 C 1.160156 -24.097656 1.367188 -24.328125 1.757812 -24.402344 L 7.292969 -25.097656 L 7.328125 -25.097656 L 8.355469 -25.207031 C 9.332031 -25.304688 10.089844 -25.355469 10.625 -25.355469 C 11.699219 -25.355469 12.628906 -25.257812 13.410156 -25.0625 C 14.804688 -24.769531 15.867188 -24.023438 16.597656 -22.828125 C 17.332031 -21.628906 17.699219 -20.226562 17.699219 -18.613281 C 17.699219 -17.390625 17.488281 -16.160156 17.074219 -14.914062 C 16.660156 -13.738281 15.988281 -12.675781 15.058594 -11.726562 C 14.496094 -11.210938 14.019531 -10.820312 13.628906 -10.550781 Z M 9.308594 -23.195312 L 9.308594 -23.265625 L 8.976562 -23.265625 L 8.976562 -23.195312 Z M 9.011719 -22.9375 L 9.011719 -22.828125 L 9.195312 -22.828125 C 9.195312 -22.851562 9.222656 -22.886719 9.269531 -22.9375 L 9.308594 -22.972656 L 9.050781 -22.972656 Z M 10.84375 -22.789062 C 10.84375 -22.816406 10.820312 -22.828125 10.773438 -22.828125 C 10.722656 -22.828125 10.699219 -22.851562 10.699219 -22.898438 L 10.699219 -22.71875 Z M 10.1875 -22.644531 L 10.257812 -22.71875 L 10.1875 -22.71875 L 10.113281 -22.644531 Z M 9.417969 -22.570312 C 9.464844 -22.570312 9.488281 -22.558594 9.488281 -22.535156 C 9.488281 -22.507812 9.503906 -22.496094 9.527344 -22.496094 C 9.574219 -22.496094 9.601562 -22.507812 9.601562 -22.535156 L 9.601562 -22.570312 Z M 8.648438 -22.386719 C 8.5 -22.265625 8.476562 -22.144531 8.574219 -22.019531 L 8.832031 -22.019531 L 8.832031 -22.058594 C 8.832031 -22.15625 8.769531 -22.265625 8.648438 -22.386719 Z M 12.566406 -22.386719 C 12.542969 -22.363281 12.550781 -22.328125 12.585938 -22.277344 C 12.621094 -22.230469 12.664062 -22.203125 12.714844 -22.203125 C 12.738281 -22.203125 12.75 -22.230469 12.75 -22.277344 C 12.75 -22.277344 12.761719 -22.285156 12.789062 -22.296875 C 12.8125 -22.308594 12.824219 -22.328125 12.824219 -22.351562 Z M 11.90625 -22.3125 C 11.785156 -22.191406 11.710938 -22.105469 11.6875 -22.058594 L 11.726562 -22.058594 L 11.761719 -22.019531 L 11.796875 -22.019531 C 11.921875 -22.09375 11.980469 -22.15625 11.980469 -22.203125 C 11.980469 -22.230469 11.957031 -22.265625 11.90625 -22.3125 Z M 2.417969 -22.019531 L 2.417969 -22.203125 L 2.34375 -22.203125 L 2.34375 -22.019531 Z M 10.113281 -22.203125 C 10.113281 -22.203125 10.0625 -22.15625 9.964844 -22.058594 L 10.332031 -22.019531 L 10.40625 -22.132812 L 10.257812 -22.167969 C 10.257812 -22.191406 10.210938 -22.203125 10.113281 -22.203125 Z M 10.625 -22.132812 C 10.625 -22.082031 10.636719 -22.046875 10.664062 -22.019531 L 10.699219 -21.949219 L 10.917969 -21.949219 L 10.917969 -22.132812 Z M 13.703125 -22.019531 L 13.703125 -22.132812 L 13.558594 -22.132812 L 13.558594 -22.019531 Z M 8.574219 -21.765625 L 8.539062 -21.835938 L 8.425781 -21.765625 L 8.425781 -21.691406 Z M 11.285156 -21.691406 C 11.335938 -21.738281 11.335938 -21.765625 11.285156 -21.765625 L 11.210938 -21.835938 C 11.164062 -21.789062 11.140625 -21.765625 11.140625 -21.765625 L 11.140625 -21.691406 Z M 10.113281 -21.542969 L 10.1875 -21.542969 L 10.1875 -21.691406 L 10.113281 -21.691406 Z M 10.625 -21.398438 C 10.578125 -21.347656 10.503906 -21.300781 10.40625 -21.25 L 10.257812 -21.140625 L 10.625 -21.140625 Z M 11.433594 -21.289062 C 11.382812 -21.335938 11.261719 -21.363281 11.066406 -21.363281 C 11.066406 -21.335938 11.082031 -21.320312 11.121094 -21.304688 C 11.15625 -21.292969 11.1875 -21.277344 11.210938 -21.25 C 11.210938 -21.25 11.261719 -21.238281 11.359375 -21.214844 L 11.394531 -21.214844 L 11.394531 -21.25 Z M 11.980469 -21.179688 C 11.957031 -21.179688 11.933594 -21.171875 11.90625 -21.160156 C 11.882812 -21.148438 11.859375 -21.140625 11.835938 -21.140625 L 11.90625 -20.957031 L 12.054688 -21.03125 L 12.128906 -21.105469 Z M 13.851562 -20.8125 C 13.851562 -20.910156 13.789062 -21.007812 13.667969 -21.105469 L 13.667969 -20.738281 Z M 12.164062 -20.957031 C 12.066406 -20.910156 12.019531 -20.859375 12.019531 -20.8125 C 12.019531 -20.761719 12.066406 -20.738281 12.164062 -20.738281 L 12.347656 -20.703125 C 12.398438 -20.824219 12.398438 -20.945312 12.347656 -21.066406 Z M 7.476562 -20.8125 C 7.523438 -20.714844 7.546875 -20.640625 7.546875 -20.59375 L 7.621094 -20.371094 L 7.769531 -20.445312 L 7.730469 -20.554688 L 7.695312 -20.628906 L 7.695312 -20.738281 C 7.695312 -20.789062 7.730469 -20.8125 7.804688 -20.8125 Z M 12.382812 -20.554688 C 12.285156 -20.605469 12.214844 -20.628906 12.164062 -20.628906 L 12.128906 -20.445312 L 12.164062 -20.410156 L 12.3125 -20.410156 L 12.3125 -20.445312 L 12.382812 -20.445312 Z M 13.996094 -20.152344 C 14.070312 -20.175781 14.082031 -20.261719 14.035156 -20.410156 C 13.886719 -20.335938 13.777344 -20.261719 13.703125 -20.1875 Z M 14.289062 -20.078125 C 14.289062 -20.054688 14.3125 -20.019531 14.363281 -19.96875 C 14.410156 -19.921875 14.449219 -19.894531 14.472656 -19.894531 C 14.449219 -19.992188 14.410156 -20.042969 14.363281 -20.042969 Z M 6.046875 -13.851562 C 7.265625 -14.019531 8.300781 -14.300781 9.140625 -14.691406 C 9.984375 -15.082031 10.636719 -15.730469 11.101562 -16.636719 C 11.492188 -17.464844 11.6875 -18.089844 11.6875 -18.503906 C 11.6875 -18.773438 11.640625 -19.003906 11.542969 -19.199219 L 11.542969 -19.234375 C 11.445312 -19.503906 11.164062 -19.699219 10.699219 -19.824219 L 10.222656 -19.859375 C 9.878906 -19.859375 9.527344 -19.808594 9.160156 -19.710938 L 6.59375 -19.125 Z M 13.191406 -19.273438 C 13.191406 -19.320312 13.179688 -19.359375 13.152344 -19.382812 L 13.007812 -19.417969 L 13.007812 -19.273438 Z M 13.152344 -18.832031 C 13.226562 -18.90625 13.265625 -18.980469 13.265625 -19.054688 L 13.117188 -19.054688 L 12.972656 -18.980469 C 12.921875 -18.929688 12.910156 -18.90625 12.933594 -18.90625 Z M 13.667969 -18.90625 C 13.789062 -18.90625 13.851562 -18.957031 13.851562 -19.054688 L 13.667969 -19.054688 Z M 16.378906 -18.539062 C 16.378906 -18.46875 16.355469 -18.429688 16.304688 -18.429688 C 16.328125 -18.40625 16.359375 -18.394531 16.398438 -18.394531 C 16.433594 -18.394531 16.464844 -18.382812 16.488281 -18.355469 L 16.707031 -18.320312 C 16.707031 -18.367188 16.71875 -18.394531 16.746094 -18.394531 C 16.769531 -18.417969 16.78125 -18.453125 16.78125 -18.503906 C 16.78125 -18.601562 16.734375 -18.710938 16.636719 -18.832031 L 16.636719 -18.539062 Z M 13.519531 -18.613281 C 13.519531 -18.589844 13.496094 -18.578125 13.445312 -18.578125 L 13.703125 -18.503906 L 13.667969 -18.578125 C 13.640625 -18.601562 13.605469 -18.613281 13.558594 -18.613281 Z M 13.667969 -18.246094 L 13.703125 -18.246094 L 13.59375 -18.355469 L 13.558594 -18.320312 Z M 16.707031 -18.246094 L 16.636719 -18.246094 L 16.636719 -17.402344 L 16.707031 -17.402344 Z M 16.671875 -16.636719 C 16.671875 -16.757812 16.734375 -16.867188 16.855469 -16.964844 C 16.734375 -16.988281 16.671875 -17.050781 16.671875 -17.148438 C 16.695312 -17.195312 16.683594 -17.269531 16.636719 -17.367188 L 16.636719 -14.765625 C 16.734375 -14.914062 16.78125 -15.058594 16.78125 -15.207031 L 16.746094 -15.644531 C 16.71875 -15.742188 16.707031 -15.867188 16.707031 -16.011719 C 16.707031 -16.109375 16.71875 -16.171875 16.746094 -16.195312 C 16.746094 -16.292969 16.71875 -16.414062 16.671875 -16.5625 Z M 12.898438 -16.707031 C 12.824219 -16.878906 12.691406 -16.964844 12.496094 -16.964844 Z M 13.191406 -16.414062 L 13.191406 -16.304688 L 13.519531 -16.304688 L 13.519531 -16.414062 Z M 12.566406 -15.9375 C 12.566406 -15.964844 12.542969 -16 12.496094 -16.046875 C 12.421875 -16.097656 12.359375 -16.121094 12.3125 -16.121094 L 12.238281 -15.867188 Z M 3.515625 -15.390625 C 3.492188 -15.460938 3.445312 -15.535156 3.371094 -15.609375 C 3.320312 -15.632812 3.296875 -15.683594 3.296875 -15.753906 C 3.25 -15.683594 3.125 -15.621094 2.929688 -15.570312 L 3.222656 -15.5 C 3.320312 -15.449219 3.371094 -15.414062 3.371094 -15.390625 Z M 11.578125 -15.390625 C 11.601562 -15.390625 11.652344 -15.371094 11.726562 -15.335938 C 11.796875 -15.296875 11.859375 -15.292969 11.90625 -15.316406 C 11.957031 -15.339844 11.992188 -15.375 12.019531 -15.425781 L 12.019531 -15.609375 L 11.726562 -15.644531 C 11.675781 -15.621094 11.640625 -15.601562 11.613281 -15.589844 C 11.589844 -15.578125 11.589844 -15.570312 11.613281 -15.570312 C 11.566406 -15.570312 11.542969 -15.535156 11.542969 -15.460938 Z M 2.710938 -15.535156 C 2.710938 -15.511719 2.734375 -15.472656 2.785156 -15.425781 L 2.859375 -15.460938 L 2.859375 -15.5 C 2.90625 -15.546875 2.929688 -15.585938 2.929688 -15.609375 L 2.710938 -15.609375 Z M 3.515625 -15.058594 C 3.46875 -15.082031 3.402344 -15.125 3.316406 -15.1875 C 3.230469 -15.25 3.152344 -15.277344 3.078125 -15.277344 L 2.929688 -15.207031 C 2.832031 -15.15625 2.761719 -15.109375 2.710938 -15.058594 L 2.859375 -15.023438 C 2.90625 -14.972656 2.957031 -14.949219 3.003906 -14.949219 Z M 12.53125 -15.207031 L 12.457031 -15.058594 L 12.605469 -15.023438 L 12.675781 -15.167969 Z M 10.1875 -14.691406 C 10.136719 -14.691406 10.089844 -14.675781 10.039062 -14.636719 C 9.992188 -14.601562 9.964844 -14.558594 9.964844 -14.507812 C 10.015625 -14.460938 10.089844 -14.4375 10.1875 -14.4375 L 10.1875 -14.253906 C 10.234375 -14.253906 10.355469 -14.289062 10.550781 -14.363281 C 10.453125 -14.4375 10.332031 -14.472656 10.1875 -14.472656 L 10.1875 -14.546875 C 10.234375 -14.59375 10.234375 -14.644531 10.1875 -14.691406 Z M 11.503906 -14.507812 L 11.433594 -14.65625 L 11.210938 -14.4375 L 11.503906 -14.4375 Z M 2.785156 -14.582031 L 2.710938 -14.582031 L 2.785156 -14.328125 L 2.859375 -14.328125 Z M 10.84375 -14.179688 C 10.917969 -14.300781 10.917969 -14.410156 10.84375 -14.507812 L 10.625 -14.507812 C 10.722656 -14.3125 10.796875 -14.203125 10.84375 -14.179688 Z M 2.785156 -14.253906 L 2.710938 -14.105469 L 2.785156 -14.070312 L 2.859375 -14.214844 Z M 3.738281 -14.179688 L 3.738281 -14.035156 L 3.921875 -14.035156 L 3.921875 -14.179688 Z M 8.574219 -14.144531 L 8.574219 -13.996094 L 8.757812 -14.035156 Z M 10.550781 -14.035156 C 10.40625 -13.960938 10.285156 -13.875 10.1875 -13.777344 L 10.480469 -13.777344 L 11.066406 -13.628906 L 11.027344 -13.667969 L 10.992188 -13.738281 L 10.992188 -13.777344 L 10.625 -13.777344 Z M 11.210938 -13.410156 C 11.261719 -13.410156 11.285156 -13.421875 11.285156 -13.445312 C 11.285156 -13.519531 11.273438 -13.570312 11.25 -13.59375 L 11.140625 -13.703125 C 11.015625 -13.558594 10.992188 -13.445312 11.066406 -13.375 Z M 10.40625 -13.042969 C 10.453125 -13.042969 10.503906 -13.019531 10.550781 -12.972656 C 10.699219 -13.09375 10.773438 -13.191406 10.773438 -13.265625 L 10.734375 -13.335938 L 10.699219 -13.375 C 10.675781 -13.398438 10.648438 -13.460938 10.625 -13.558594 L 10.550781 -13.484375 L 10.480469 -13.484375 L 10.40625 -13.410156 Z M 2.273438 -13.375 C 2.246094 -13.375 2.234375 -13.347656 2.234375 -13.300781 L 2.417969 -13.300781 C 2.417969 -13.324219 2.371094 -13.386719 2.273438 -13.484375 Z M 11.796875 -13.082031 L 11.796875 -13.226562 L 11.503906 -13.152344 L 11.503906 -13.042969 Z M 11.140625 -13.007812 C 10.941406 -13.007812 10.84375 -12.957031 10.84375 -12.859375 C 10.84375 -12.789062 10.917969 -12.75 11.066406 -12.75 L 11.140625 -12.75 Z M 3.371094 -12.972656 L 3.152344 -12.898438 L 3.152344 -12.859375 L 3.445312 -12.933594 Z M 8.0625 -12.675781 C 8.0625 -12.675781 8.109375 -12.726562 8.207031 -12.824219 L 8.0625 -12.933594 C 7.964844 -12.910156 7.914062 -12.847656 7.914062 -12.75 Z M 11.285156 -12.75 C 11.140625 -12.675781 11.066406 -12.59375 11.066406 -12.496094 L 11.285156 -12.496094 C 11.382812 -12.566406 11.382812 -12.652344 11.285156 -12.75 Z M 10.992188 -12.421875 C 10.992188 -12.496094 10.941406 -12.554688 10.84375 -12.605469 C 10.796875 -12.605469 10.746094 -12.585938 10.699219 -12.550781 C 10.648438 -12.511719 10.625 -12.480469 10.625 -12.457031 C 10.675781 -12.433594 10.746094 -12.421875 10.84375 -12.421875 Z M 11.90625 -12.347656 C 11.90625 -12.371094 11.882812 -12.382812 11.835938 -12.382812 C 11.835938 -12.382812 11.828125 -12.390625 11.816406 -12.402344 C 11.804688 -12.414062 11.796875 -12.421875 11.796875 -12.421875 L 11.726562 -12.457031 L 11.46875 -12.457031 C 11.515625 -12.359375 11.542969 -12.261719 11.542969 -12.164062 C 11.613281 -12.140625 11.675781 -12.140625 11.726562 -12.164062 L 11.90625 -12.164062 Z M 7.914062 -11.871094 L 7.769531 -11.871094 L 7.769531 -11.796875 L 7.914062 -11.796875 Z M 11.503906 -11.652344 C 11.601562 -11.652344 11.664062 -11.664062 11.6875 -11.6875 C 11.738281 -11.738281 11.761719 -11.773438 11.761719 -11.796875 C 11.710938 -11.847656 11.601562 -11.871094 11.433594 -11.871094 Z M 7.914062 -11.285156 C 7.914062 -11.238281 7.925781 -11.210938 7.949219 -11.210938 L 8.0625 -11.210938 C 8.085938 -11.335938 8.085938 -11.394531 8.0625 -11.394531 C 7.964844 -11.394531 7.914062 -11.359375 7.914062 -11.285156 Z M 11.46875 -11.210938 C 11.347656 -11.089844 11.285156 -10.980469 11.285156 -10.882812 L 11.359375 -10.84375 L 11.613281 -10.84375 L 11.542969 -11.066406 Z M 11.652344 -10.808594 L 11.542969 -10.664062 L 11.6875 -10.625 L 11.796875 -10.773438 Z M 11.980469 -10.480469 C 12.105469 -10.480469 12.214844 -10.515625 12.3125 -10.589844 L 11.980469 -10.664062 C 11.933594 -10.566406 11.933594 -10.503906 11.980469 -10.480469 Z M 11.46875 -10.589844 C 11.347656 -10.664062 11.238281 -10.648438 11.140625 -10.550781 C 11.1875 -10.503906 11.273438 -10.480469 11.394531 -10.480469 C 11.445312 -10.480469 11.46875 -10.503906 11.46875 -10.550781 Z M 8.132812 -9.929688 L 8.0625 -9.894531 L 8.097656 -9.820312 L 8.171875 -9.820312 Z M 12.054688 -8.5 C 12.054688 -8.574219 12.042969 -8.621094 12.019531 -8.648438 C 12.019531 -8.648438 12.011719 -8.640625 12 -8.628906 C 11.988281 -8.617188 11.980469 -8.609375 11.980469 -8.609375 L 11.945312 -8.574219 L 11.90625 -8.574219 Z M 15.097656 -6.851562 C 15.144531 -6.851562 15.167969 -6.886719 15.167969 -6.960938 L 14.984375 -6.960938 Z M 15.277344 -6.632812 L 15.097656 -6.632812 L 15.097656 -6.410156 C 15.167969 -6.339844 15.265625 -6.300781 15.390625 -6.300781 C 15.339844 -6.375 15.316406 -6.449219 15.316406 -6.523438 Z M 15.460938 -5.863281 L 15.390625 -5.753906 L 15.460938 -5.714844 L 15.535156 -5.824219 Z M 16.011719 -4.359375 C 16.011719 -4.457031 15.9375 -4.519531 15.792969 -4.542969 C 15.71875 -4.46875 15.683594 -4.421875 15.683594 -4.398438 C 15.683594 -4.324219 15.710938 -4.257812 15.773438 -4.195312 C 15.835938 -4.132812 15.890625 -4.105469 15.9375 -4.105469 L 15.976562 -4.214844 Z M 15.023438 -3.8125 C 15.070312 -3.8125 15.136719 -3.824219 15.222656 -3.847656 C 15.308594 -3.871094 15.375 -3.910156 15.425781 -3.957031 L 15.316406 -3.992188 L 15.207031 -4.066406 C 15.15625 -4.089844 15.070312 -4.105469 14.949219 -4.105469 C 14.902344 -4.105469 14.851562 -4.089844 14.804688 -4.066406 C 14.753906 -4.042969 14.730469 -4.007812 14.730469 -3.957031 C 14.828125 -3.859375 14.925781 -3.8125 15.023438 -3.8125 Z M 2.417969 -1.683594 C 2.539062 -1.683594 2.613281 -1.734375 2.636719 -1.832031 L 2.492188 -1.832031 C 2.492188 -1.734375 2.46875 -1.683594 2.417969 -1.683594 Z M 2.417969 -1.683594 "/></g></g></g></svg>