<svg xmlns="http://www.w3.org/2000/svg" xmlns:xlink="http://www.w3.org/1999/xlink" width="100" zoomAndPan="magnify" viewBox="0 0 75 37.5" height="50" preserveAspectRatio="xMidYMid meet" version="1.0"><defs><filter x="0%" y="0%" width="100%" height="100%" id="8c8e26797b"><feColorMatrix values="0 0 0 0 1 0 0 0 0 1 0 0 0 0 1 0 0 0 1 0" color-interpolation-filters="sRGB"/></filter><g/><clipPath id="0a9b3f8fc8"><path d="M 3.132812 4.238281 L 30.492188 4.238281 L 30.492188 31.597656 L 3.132812 31.597656 Z M 3.132812 4.238281 " clip-rule="nonzero"/></clipPath><mask id="08d9fdb0e8"><g filter="url(#8c8e26797b)"><rect x="-7.5" width="90" fill="#000000" y="-3.75" height="45" fill-opacity="0.1"/></g></mask><clipPath id="6971919eeb"><path d="M 0.28125 18 L 25.863281 18 L 25.863281 22.472656 L 0.28125 22.472656 Z M 0.28125 18 " clip-rule="nonzero"/></clipPath><clipPath id="85c1ad16d7"><path d="M 0.28125 9 L 25.863281 9 L 25.863281 14 L 0.28125 14 Z M 0.28125 9 " clip-rule="nonzero"/></clipPath><clipPath id="ec4b4a2ed5"><path d="M 0.28125 0.210938 L 25.863281 0.210938 L 25.863281 5 L 0.28125 5 Z M 0.28125 0.210938 " clip-rule="nonzero"/></clipPath><clipPath id="ba0c7f371c"><rect x="0" width="26" y="0" height="23"/></clipPath><mask id="92d386dab0"><g filter="url(#8c8e26797b)"><rect x="-7.5" width="90" fill="#000000" y="-3.75" height="45" fill-opacity="0.1"/></g></mask><clipPath id="3f6feb17f1"><path d="M 0.46875 0.105469 L 5.203125 0.105469 L 5.203125 22.605469 L 0.46875 22.605469 Z M 0.46875 0.105469 " clip-rule="nonzero"/></clipPath><clipPath id="642da7cbc7"><rect x="0" width="6" y="0" height="23"/></clipPath></defs><g clip-path="url(#0a9b3f8fc8)"><path fill="#69247c" d="M 7.859375 5.421875 L 29.917969 5.421875 C 30.238281 5.421875 30.496094 5.160156 30.496094 4.839844 C 30.496094 4.519531 30.238281 4.261719 29.917969 4.261719 L 7.769531 4.261719 C 5.257812 4.261719 3.222656 6.296875 3.222656 8.804688 C 3.222656 11.316406 5.257812 13.351562 7.769531 13.351562 C 5.257812 13.351562 3.222656 15.386719 3.222656 17.898438 C 3.222656 20.40625 5.257812 22.441406 7.769531 22.441406 C 5.203125 22.441406 3.132812 24.566406 3.226562 27.15625 C 3.3125 29.617188 5.414062 31.535156 7.878906 31.535156 L 29.917969 31.535156 C 30.238281 31.535156 30.496094 31.273438 30.496094 30.957031 C 30.496094 30.632812 30.238281 30.375 29.917969 30.375 L 7.859375 30.375 C 5.964844 30.375 4.351562 28.824219 4.382812 26.933594 C 4.414062 25.09375 5.921875 23.605469 7.769531 23.605469 L 29.917969 23.605469 C 30.238281 23.605469 30.496094 23.34375 30.496094 23.023438 L 30.496094 21.867188 C 30.496094 21.546875 30.238281 21.285156 29.917969 21.285156 L 7.859375 21.285156 C 5.964844 21.285156 4.351562 19.738281 4.382812 17.84375 C 4.414062 16.003906 5.921875 14.515625 7.769531 14.515625 L 29.917969 14.515625 C 30.238281 14.515625 30.496094 14.253906 30.496094 13.933594 L 30.496094 12.777344 C 30.496094 12.453125 30.238281 12.195312 29.917969 12.195312 L 7.765625 12.195312 C 5.917969 12.195312 4.410156 10.707031 4.382812 8.867188 C 4.351562 6.96875 5.964844 5.421875 7.859375 5.421875 Z M 7.859375 5.421875 " fill-opacity="1" fill-rule="nonzero"/></g><path fill="#faf3e4" d="M 7.769531 12.191406 C 5.902344 12.191406 4.382812 10.671875 4.382812 8.808594 C 4.382812 6.941406 5.902344 5.421875 7.769531 5.421875 L 29.707031 5.421875 L 29.707031 12.195312 L 7.769531 12.195312 Z M 29.707031 21.285156 L 29.707031 14.511719 L 7.769531 14.511719 C 5.902344 14.511719 4.382812 16.03125 4.382812 17.898438 C 4.382812 19.765625 5.902344 21.28125 7.769531 21.28125 L 29.707031 21.28125 Z M 29.707031 30.375 L 29.707031 23.601562 L 7.769531 23.601562 C 5.902344 23.601562 4.382812 25.121094 4.382812 26.988281 C 4.382812 28.855469 5.902344 30.375 7.769531 30.375 Z M 29.707031 30.375 " fill-opacity="1" fill-rule="nonzero"/><g mask="url(#08d9fdb0e8)"><g transform="matrix(1, 0, 0, 1, 4, 5)"><g clip-path="url(#ba0c7f371c)"><g clip-path="url(#6971919eeb)"><path fill="#000000" d="M 0.382812 21.988281 C 0.382812 22.078125 0.386719 22.167969 0.394531 22.257812 C 0.53125 20.511719 1.992188 19.136719 3.765625 19.136719 L 25.707031 19.136719 L 25.707031 18.601562 L 3.769531 18.601562 C 1.902344 18.601562 0.382812 20.121094 0.382812 21.988281 Z M 0.382812 21.988281 " fill-opacity="1" fill-rule="nonzero"/></g><g clip-path="url(#85c1ad16d7)"><path fill="#000000" d="M 0.382812 12.898438 C 0.382812 12.988281 0.386719 13.078125 0.394531 13.164062 C 0.53125 11.421875 1.992188 10.046875 3.765625 10.046875 L 25.707031 10.046875 L 25.707031 9.511719 L 3.769531 9.511719 C 1.902344 9.511719 0.382812 11.03125 0.382812 12.898438 Z M 0.382812 12.898438 " fill-opacity="1" fill-rule="nonzero"/></g><g clip-path="url(#ec4b4a2ed5)"><path fill="#000000" d="M 3.769531 0.421875 C 1.902344 0.421875 0.382812 1.941406 0.382812 3.808594 C 0.382812 3.898438 0.390625 3.984375 0.394531 4.074219 C 0.53125 2.332031 1.992188 0.953125 3.769531 0.953125 L 25.707031 0.953125 L 25.707031 0.421875 Z M 3.769531 0.421875 " fill-opacity="1" fill-rule="nonzero"/></g></g></g></g><path fill="#e6b187" d="M 29.707031 7.433594 L 7.253906 7.433594 L 7.253906 7.320312 L 29.707031 7.320312 Z M 29.707031 8.75 L 7.253906 8.75 L 7.253906 8.863281 L 29.707031 8.863281 Z M 29.707031 10.179688 L 7.253906 10.179688 L 7.253906 10.296875 L 29.707031 10.296875 Z M 29.707031 16.410156 L 7.253906 16.410156 L 7.253906 16.523438 L 29.707031 16.523438 Z M 29.707031 17.839844 L 7.253906 17.839844 L 7.253906 17.957031 L 29.707031 17.957031 Z M 29.707031 19.269531 L 7.253906 19.269531 L 7.253906 19.386719 L 29.707031 19.386719 Z M 29.707031 25.5 L 7.253906 25.5 L 7.253906 25.617188 L 29.707031 25.617188 Z M 29.707031 26.929688 L 7.253906 26.929688 L 7.253906 27.046875 L 29.707031 27.046875 Z M 29.707031 28.363281 L 7.253906 28.363281 L 7.253906 28.476562 L 29.707031 28.476562 Z M 29.707031 28.363281 " fill-opacity="1" fill-rule="nonzero"/><g mask="url(#92d386dab0)"><g transform="matrix(1, 0, 0, 1, 23, 7)"><g clip-path="url(#642da7cbc7)"><g clip-path="url(#3f6feb17f1)"><path fill="#000000" d="M 5.023438 22.542969 L 2.789062 20.613281 L 0.554688 22.542969 L 0.554688 0.320312 L 5.023438 0.320312 Z M 5.023438 22.542969 " fill-opacity="1" fill-rule="nonzero"/></g></g></g></g><path fill="#e6b187" d="M 27.523438 28.976562 L 25.292969 27.046875 L 23.058594 28.976562 L 23.058594 7.320312 L 27.523438 7.320312 Z M 27.523438 28.976562 " fill-opacity="1" fill-rule="nonzero"/><g fill="#69247c" fill-opacity="1"><g transform="translate(33.640993, 27.843866)"><g><path d="M 15.285156 -16.246094 C 15.347656 -15.796875 15.378906 -15.359375 15.378906 -14.929688 C 15.378906 -13.710938 15.132812 -12.554688 14.640625 -11.464844 C 14.363281 -10.929688 14.074219 -10.457031 13.773438 -10.050781 C 13.839844 -10.15625 13.871094 -10.285156 13.871094 -10.4375 C 13.871094 -10.605469 13.859375 -10.734375 13.839844 -10.820312 C 13.816406 -10.90625 13.808594 -11.015625 13.808594 -11.140625 C 13.808594 -11.25 13.828125 -11.300781 13.871094 -11.300781 L 13.839844 -11.300781 C 13.839844 -11.453125 13.828125 -11.558594 13.808594 -11.625 C 13.808594 -11.753906 13.851562 -11.871094 13.9375 -11.976562 C 13.808594 -12 13.765625 -12.050781 13.808594 -12.136719 C 13.808594 -12.222656 13.796875 -12.277344 13.773438 -12.296875 L 13.773438 -10.050781 C 13.261719 -9.34375 12.621094 -8.777344 11.847656 -8.347656 L 11.816406 -8.347656 C 10.789062 -7.792969 9.644531 -7.34375 8.378906 -7 C 8.015625 -6.871094 7.515625 -6.753906 6.871094 -6.648438 L 6.582031 -6.582031 L 6.324219 -6.550781 L 6.292969 -6.550781 C 6.292969 -6.59375 6.273438 -6.613281 6.230469 -6.613281 C 6.121094 -6.613281 6.070312 -6.582031 6.070312 -6.519531 C 6.070312 -6.496094 6.078125 -6.484375 6.101562 -6.484375 L 5.105469 -6.359375 L 4.914062 -0.640625 C 4.914062 -0.214844 4.699219 0 4.269531 0 L 0.320312 0 C 0.128906 0 -0.0273438 -0.0625 -0.144531 -0.191406 C -0.261719 -0.320312 -0.320312 -0.480469 -0.320312 -0.675781 L -0.191406 -3.082031 L -0.128906 -3.019531 C -0.0625 -3.039062 0.0429688 -3.105469 0.191406 -3.210938 L 0.0976562 -3.273438 L -0.0625 -3.273438 L -0.191406 -3.179688 L -0.128906 -4.878906 L -0.03125 -4.878906 C -0.03125 -4.921875 -0.0546875 -4.945312 -0.0976562 -4.945312 L -0.128906 -4.976562 L 0.578125 -20.164062 C 0.621094 -20.484375 0.792969 -20.679688 1.089844 -20.742188 C 5.050781 -21.554688 7.277344 -21.996094 7.769531 -22.058594 C 7.855469 -22.058594 7.972656 -22.066406 8.125 -22.074219 C 8.273438 -22.085938 8.445312 -22.113281 8.636719 -22.15625 L 9.503906 -22.1875 L 9.535156 -22.1875 C 11.207031 -22.101562 12.535156 -21.523438 13.519531 -20.453125 C 14.503906 -19.382812 15.089844 -17.980469 15.285156 -16.246094 Z M 1.703125 -18.753906 L 1.703125 -18.847656 L 1.636719 -18.847656 L 1.636719 -18.753906 Z M 5.363281 -11.496094 C 6.046875 -11.582031 6.5625 -11.667969 6.902344 -11.753906 C 7.953125 -12.09375 8.746094 -12.492188 9.28125 -12.941406 C 9.6875 -13.28125 9.953125 -13.730469 10.082031 -14.289062 C 10.105469 -14.394531 10.113281 -14.554688 10.113281 -14.769531 C 10.113281 -15.390625 9.976562 -15.949219 9.695312 -16.441406 C 9.417969 -16.933594 9.023438 -17.179688 8.507812 -17.179688 C 8.378906 -17.179688 8.285156 -17.167969 8.21875 -17.148438 L 5.683594 -16.632812 Z M 11.945312 -16.984375 L 11.945312 -16.921875 L 12.074219 -16.921875 L 12.074219 -16.984375 Z M 10.210938 -16.730469 C 10.191406 -16.707031 10.179688 -16.6875 10.179688 -16.664062 C 10.179688 -16.644531 10.191406 -16.632812 10.210938 -16.632812 C 10.230469 -16.589844 10.265625 -16.570312 10.308594 -16.570312 C 10.351562 -16.570312 10.371094 -16.589844 10.371094 -16.632812 L 10.4375 -16.664062 Z M 1.316406 -16.40625 L 1.316406 -16.570312 L 1.253906 -16.570312 L 1.253906 -16.40625 Z M 11.175781 -16.40625 L 11.175781 -16.503906 L 11.078125 -16.503906 L 11.078125 -16.40625 Z M 11.367188 -15.347656 C 11.367188 -15.457031 11.28125 -15.550781 11.109375 -15.636719 L 11.109375 -15.253906 C 11.195312 -15.253906 11.28125 -15.285156 11.367188 -15.347656 Z M 11.429688 -14.707031 C 11.515625 -14.792969 11.558594 -14.84375 11.558594 -14.867188 L 11.496094 -15.027344 L 11.367188 -14.929688 C 11.367188 -14.929688 11.363281 -14.925781 11.351562 -14.914062 C 11.339844 -14.90625 11.335938 -14.898438 11.335938 -14.898438 L 11.300781 -14.898438 C 11.21875 -14.855469 11.152344 -14.8125 11.109375 -14.769531 Z M 11.945312 -14.449219 C 11.878906 -14.597656 11.835938 -14.675781 11.816406 -14.675781 L 11.753906 -14.707031 L 11.6875 -14.675781 C 11.6875 -14.589844 11.730469 -14.546875 11.816406 -14.546875 Z M 10.789062 -13.96875 C 10.789062 -14.03125 10.777344 -14.074219 10.757812 -14.097656 L 10.691406 -14.128906 L 10.5625 -14.128906 L 10.5625 -13.96875 Z M 10.726562 -13.582031 C 10.808594 -13.667969 10.851562 -13.742188 10.851562 -13.808594 C 10.765625 -13.808594 10.714844 -13.816406 10.691406 -13.839844 L 10.5625 -13.742188 C 10.5 -13.679688 10.480469 -13.636719 10.5 -13.613281 Z M 11.109375 -13.648438 C 11.28125 -13.648438 11.367188 -13.699219 11.367188 -13.808594 L 11.109375 -13.808594 Z M 13.871094 -13.230469 C 13.894531 -13.25 13.902344 -13.28125 13.902344 -13.324219 C 13.902344 -13.410156 13.859375 -13.507812 13.773438 -13.613281 C 13.730469 -13.570312 13.730469 -13.527344 13.773438 -13.484375 C 13.773438 -13.421875 13.765625 -13.378906 13.742188 -13.359375 L 13.519531 -13.359375 C 13.5625 -13.292969 13.539062 -13.261719 13.453125 -13.261719 C 13.453125 -13.261719 13.519531 -13.238281 13.648438 -13.195312 L 13.808594 -13.164062 C 13.808594 -13.164062 13.8125 -13.175781 13.824219 -13.195312 C 13.835938 -13.21875 13.851562 -13.230469 13.871094 -13.230469 Z M 10.917969 -13.359375 C 11.089844 -13.292969 11.238281 -13.261719 11.367188 -13.261719 C 11.238281 -13.367188 11.175781 -13.421875 11.175781 -13.421875 C 11.066406 -13.421875 11.003906 -13.410156 10.980469 -13.390625 Z M 11.109375 -13.230469 L 10.980469 -13.164062 L 11.175781 -13.035156 L 11.238281 -13.101562 Z M 13.742188 -13.101562 L 13.742188 -12.363281 L 13.839844 -12.363281 L 13.839844 -13.101562 Z M 10.5 -12.203125 C 10.394531 -12.332031 10.273438 -12.414062 10.148438 -12.457031 Z M 10.757812 -10.980469 L 10.757812 -10.917969 L 11.078125 -10.917969 L 11.078125 -10.980469 Z M 10.210938 -10.5625 C 10.210938 -10.605469 10.183594 -10.644531 10.128906 -10.675781 C 10.078125 -10.707031 10.027344 -10.726562 9.984375 -10.726562 L 9.921875 -10.53125 Z M 9.410156 -10.5625 L 9.601562 -10.5625 L 9.601562 -10.628906 L 9.410156 -10.628906 Z M 2.3125 -10.082031 C 2.269531 -10.148438 2.214844 -10.199219 2.152344 -10.242188 C 2.085938 -10.285156 2.054688 -10.328125 2.054688 -10.371094 C 1.992188 -10.308594 1.925781 -10.273438 1.863281 -10.273438 C 1.863281 -10.253906 1.839844 -10.242188 1.796875 -10.242188 C 1.96875 -10.222656 2.085938 -10.167969 2.152344 -10.082031 Z M 9.472656 -10.339844 C 9.429688 -10.296875 9.410156 -10.273438 9.410156 -10.273438 L 9.375 -10.273438 C 9.332031 -10.253906 9.3125 -10.222656 9.3125 -10.179688 C 9.3125 -10.113281 9.324219 -10.082031 9.34375 -10.082031 L 9.375 -10.082031 C 9.417969 -10.039062 9.472656 -10.019531 9.535156 -10.019531 C 9.644531 -10.019531 9.707031 -10.050781 9.730469 -10.113281 L 9.730469 -10.273438 Z M 1.636719 -10.082031 L 1.703125 -10.179688 C 1.722656 -10.199219 1.734375 -10.230469 1.734375 -10.273438 L 1.574219 -10.273438 L 1.574219 -10.210938 Z M 6.359375 -10.210938 L 6.261719 -10.210938 L 6.261719 -10.050781 L 6.359375 -10.050781 Z M 1.796875 -9.695312 C 1.882812 -9.695312 1.957031 -9.707031 2.023438 -9.730469 C 2.152344 -9.773438 2.226562 -9.792969 2.246094 -9.792969 L 2.085938 -9.921875 C 2 -9.964844 1.949219 -9.984375 1.925781 -9.984375 C 1.882812 -9.984375 1.820312 -9.964844 1.734375 -9.921875 L 1.574219 -9.792969 C 1.617188 -9.773438 1.648438 -9.757812 1.667969 -9.746094 C 1.691406 -9.734375 1.691406 -9.730469 1.667969 -9.730469 Z M 10.179688 -9.953125 L 10.113281 -9.792969 L 10.242188 -9.761719 L 10.308594 -9.890625 Z M 8.089844 -9.472656 C 8.050781 -9.472656 8.007812 -9.457031 7.964844 -9.425781 C 7.921875 -9.390625 7.898438 -9.355469 7.898438 -9.3125 L 8.125 -9.28125 L 8.125 -9.121094 L 8.316406 -9.121094 L 8.414062 -9.152344 C 8.328125 -9.238281 8.230469 -9.28125 8.125 -9.28125 L 8.15625 -9.375 C 8.15625 -9.398438 8.132812 -9.429688 8.089844 -9.472656 Z M 9.28125 -9.28125 C 9.28125 -9.300781 9.269531 -9.3125 9.246094 -9.3125 L 9.246094 -9.375 C 9.246094 -9.375 9.242188 -9.382812 9.230469 -9.390625 C 9.222656 -9.402344 9.214844 -9.410156 9.214844 -9.410156 L 9.023438 -9.28125 Z M 1.605469 -9.375 L 1.542969 -9.375 L 1.636719 -9.121094 L 1.703125 -9.121094 Z M 8.703125 -9.054688 C 8.746094 -9.097656 8.765625 -9.140625 8.765625 -9.183594 C 8.765625 -9.226562 8.746094 -9.269531 8.703125 -9.3125 L 8.476562 -9.3125 C 8.542969 -9.160156 8.617188 -9.078125 8.703125 -9.054688 Z M 1.636719 -9.054688 L 1.542969 -8.957031 L 1.605469 -8.925781 L 1.703125 -9.054688 Z M 6.648438 -9.054688 L 6.648438 -8.832031 L 6.902344 -8.863281 Z M 2.441406 -9.023438 L 2.441406 -8.863281 L 2.632812 -8.863281 L 2.632812 -9.023438 Z M 8.414062 -8.894531 C 8.304688 -8.832031 8.210938 -8.746094 8.125 -8.636719 L 8.378906 -8.636719 L 8.863281 -8.542969 L 8.863281 -8.605469 L 8.832031 -8.636719 L 8.796875 -8.703125 L 8.765625 -8.703125 L 8.734375 -8.667969 L 8.605469 -8.636719 L 8.476562 -8.636719 Z M 9.085938 -8.378906 C 9.085938 -8.464844 9.035156 -8.542969 8.925781 -8.605469 C 8.863281 -8.519531 8.851562 -8.433594 8.894531 -8.347656 L 9.023438 -8.347656 Z M 8.285156 -8.027344 C 8.347656 -8.027344 8.402344 -8.007812 8.445312 -7.964844 C 8.550781 -8.113281 8.605469 -8.199219 8.605469 -8.21875 L 8.574219 -8.347656 C 8.574219 -8.347656 8.542969 -8.378906 8.476562 -8.445312 L 8.414062 -8.414062 L 8.378906 -8.414062 C 8.378906 -8.414062 8.375 -8.40625 8.363281 -8.398438 C 8.355469 -8.386719 8.347656 -8.378906 8.347656 -8.378906 L 8.285156 -8.347656 Z M 1.15625 -8.253906 L 1.316406 -8.253906 L 1.285156 -8.316406 C 1.285156 -8.316406 1.253906 -8.347656 1.1875 -8.414062 L 1.1875 -8.316406 Z M 9.28125 -8.125 L 9.28125 -8.027344 L 9.535156 -8.089844 L 9.535156 -8.1875 Z M 6.230469 -7.996094 C 6.121094 -7.886719 6.070312 -7.8125 6.070312 -7.769531 L 6.230469 -7.675781 L 6.421875 -7.835938 Z M 8.703125 -7.867188 C 8.703125 -7.800781 8.753906 -7.769531 8.863281 -7.769531 L 8.925781 -7.769531 C 8.949219 -7.792969 8.957031 -7.835938 8.957031 -7.898438 L 8.957031 -7.996094 C 8.789062 -7.996094 8.703125 -7.953125 8.703125 -7.867188 Z M 2.152344 -7.964844 L 1.957031 -7.898438 L 1.957031 -7.835938 L 2.183594 -7.898438 Z M 9.085938 -7.546875 C 9.128906 -7.609375 9.128906 -7.664062 9.085938 -7.707031 C 8.980469 -7.664062 8.925781 -7.609375 8.925781 -7.546875 Z M 8.796875 -7.480469 C 8.796875 -7.546875 8.765625 -7.589844 8.703125 -7.609375 C 8.59375 -7.609375 8.542969 -7.566406 8.542969 -7.480469 Z M 1.414062 -7.417969 L 1.414062 -7.226562 L 1.476562 -7.226562 L 1.476562 -7.417969 Z M 5.972656 -7.0625 L 5.972656 -6.9375 L 6.164062 -6.9375 L 6.164062 -7.0625 Z M 1.445312 -7.03125 C 1.421875 -6.945312 1.402344 -6.871094 1.378906 -6.808594 C 1.359375 -6.742188 1.339844 -6.679688 1.316406 -6.613281 C 1.296875 -6.550781 1.273438 -6.484375 1.253906 -6.421875 C 1.230469 -6.359375 1.21875 -6.292969 1.21875 -6.230469 C 1.21875 -6.1875 1.230469 -6.15625 1.253906 -6.132812 C 1.296875 -6.089844 1.304688 -6.058594 1.285156 -6.035156 C 1.175781 -6.015625 1.144531 -5.949219 1.1875 -5.84375 C 1.230469 -5.714844 1.230469 -5.628906 1.1875 -5.585938 C 1.1875 -5.585938 1.167969 -5.566406 1.125 -5.523438 C 1.125 -5.523438 1.117188 -5.515625 1.109375 -5.507812 C 1.097656 -5.496094 1.089844 -5.492188 1.089844 -5.492188 C 1.050781 -5.46875 1.027344 -5.4375 1.027344 -5.394531 C 1.027344 -5.351562 1.039062 -5.320312 1.058594 -5.296875 C 1.058594 -5.296875 1.066406 -5.28125 1.074219 -5.25 C 1.085938 -5.21875 1.070312 -5.191406 1.027344 -5.167969 L 0.964844 -5.136719 L 0.929688 -5.136719 C 0.996094 -5.03125 1.015625 -4.945312 0.996094 -4.878906 C 0.910156 -4.644531 0.886719 -4.484375 0.929688 -4.398438 C 0.953125 -4.355469 0.957031 -4.320312 0.945312 -4.285156 C 0.9375 -4.253906 0.921875 -4.238281 0.898438 -4.238281 C 0.855469 -4.132812 0.835938 -4.003906 0.835938 -3.851562 C 0.835938 -3.703125 0.84375 -3.597656 0.867188 -3.53125 C 0.804688 -3.511719 0.761719 -3.46875 0.738281 -3.402344 L 0.609375 -3.242188 L 0.609375 -3.148438 C 0.609375 -2.847656 0.597656 -2.644531 0.578125 -2.535156 C 0.535156 -2.386719 0.507812 -2.265625 0.496094 -2.167969 C 0.488281 -2.070312 0.480469 -1.992188 0.480469 -1.925781 C 0.480469 -1.863281 0.472656 -1.808594 0.449219 -1.765625 L 0.386719 -1.636719 C 0.386719 -1.53125 0.402344 -1.371094 0.433594 -1.15625 C 0.464844 -0.941406 0.515625 -0.804688 0.578125 -0.738281 C 0.707031 -0.695312 0.855469 -0.675781 1.027344 -0.675781 L 1.445312 -0.609375 Z M 0.289062 -5.910156 L 0.289062 -6.003906 L 0.0976562 -6.003906 L 0.0976562 -5.910156 Z M 0.289062 -5.363281 C 0.246094 -5.40625 0.1875 -5.425781 0.113281 -5.425781 C 0.0390625 -5.425781 0 -5.40625 0 -5.363281 L 0.0976562 -5.265625 C 0.160156 -5.265625 0.226562 -5.296875 0.289062 -5.363281 Z M 0.257812 -4.976562 C 0.300781 -4.976562 0.320312 -5 0.320312 -5.042969 C 0.191406 -5.085938 0.0859375 -5.085938 0 -5.042969 L 0.160156 -4.945312 Z M 0.257812 -4.71875 C 0.148438 -4.785156 0.0976562 -4.847656 0.0976562 -4.914062 L 0.0625 -4.816406 C 0.0625 -4.773438 0.0546875 -4.742188 0.03125 -4.71875 Z M 3.113281 -4.429688 C 3.113281 -4.34375 3.136719 -4.261719 3.179688 -4.175781 L 3.179688 -4.527344 Z M -0.0625 -4.078125 L -0.0625 -3.980469 L 0.0976562 -3.980469 L 0.0976562 -4.078125 Z M 3.113281 -3.757812 L 3.082031 -3.660156 C 3.082031 -3.617188 3.070312 -3.597656 3.050781 -3.597656 C 3.113281 -3.488281 3.125 -3.4375 3.082031 -3.4375 C 3.0625 -3.457031 3.046875 -3.460938 3.035156 -3.453125 C 3.023438 -3.441406 3.019531 -3.425781 3.019531 -3.402344 C 3.019531 -3.316406 3.027344 -3.25 3.050781 -3.195312 C 3.070312 -3.140625 3.105469 -3.070312 3.148438 -2.984375 L 3.179688 -4.078125 Z M -0.0976562 -2.730469 L -0.191406 -2.695312 L -0.191406 -2.664062 L -0.0625 -2.695312 Z M 4.300781 -0.160156 L 4.238281 -0.160156 L 4.269531 -0.0625 L 4.335938 -0.0625 Z M 4.300781 -0.160156 "/></g></g></g><g fill="#69247c" fill-opacity="1"><g transform="translate(50.721854, 27.843866)"><g><path d="M 15.125 -3.273438 C 15.1875 -3.191406 15.21875 -3.082031 15.21875 -2.953125 C 15.21875 -2.761719 15.113281 -2.589844 14.898438 -2.441406 L 11.367188 -0.128906 C 11.238281 -0.0195312 11.066406 0.0117188 10.851562 -0.03125 C 10.640625 -0.0976562 10.5 -0.214844 10.4375 -0.386719 C 9.601562 -2.226562 9.035156 -3.382812 8.734375 -3.851562 L 8.734375 -3.886719 C 8.132812 -4.957031 7.675781 -5.757812 7.351562 -6.292969 L 6.808594 -7.191406 L 5.007812 -6.710938 L 4.914062 -0.867188 C 4.914062 -0.4375 4.699219 -0.226562 4.269531 -0.226562 L 0.320312 -0.226562 C 0.128906 -0.226562 -0.0273438 -0.289062 -0.144531 -0.417969 C -0.261719 -0.546875 -0.320312 -0.707031 -0.320312 -0.898438 L 0.996094 -20.773438 C 1.015625 -21.117188 1.199219 -21.320312 1.542969 -21.386719 L 6.390625 -21.996094 L 6.421875 -21.996094 L 7.320312 -22.089844 C 8.175781 -22.175781 8.839844 -22.21875 9.3125 -22.21875 C 10.253906 -22.21875 11.066406 -22.132812 11.753906 -21.964844 C 12.972656 -21.707031 13.902344 -21.054688 14.546875 -20.003906 C 15.1875 -18.957031 15.507812 -17.726562 15.507812 -16.3125 C 15.507812 -15.242188 15.328125 -14.160156 14.964844 -13.070312 C 14.597656 -12.042969 14.011719 -11.109375 13.195312 -10.273438 C 12.703125 -9.824219 12.289062 -9.484375 11.945312 -9.246094 Z M 8.15625 -20.324219 L 8.15625 -20.390625 L 7.867188 -20.390625 L 7.867188 -20.324219 Z M 7.898438 -20.101562 L 7.898438 -20.003906 L 8.058594 -20.003906 C 8.058594 -20.027344 8.082031 -20.058594 8.125 -20.101562 L 8.15625 -20.132812 L 7.929688 -20.132812 Z M 9.503906 -19.972656 C 9.503906 -19.992188 9.484375 -20.003906 9.441406 -20.003906 C 9.398438 -20.003906 9.375 -20.027344 9.375 -20.070312 L 9.375 -19.90625 Z M 8.925781 -19.84375 L 8.992188 -19.90625 L 8.925781 -19.90625 L 8.863281 -19.84375 Z M 8.253906 -19.78125 C 8.296875 -19.78125 8.316406 -19.769531 8.316406 -19.746094 C 8.316406 -19.726562 8.328125 -19.714844 8.347656 -19.714844 C 8.390625 -19.714844 8.414062 -19.726562 8.414062 -19.746094 L 8.414062 -19.78125 Z M 7.578125 -19.621094 C 7.449219 -19.511719 7.429688 -19.40625 7.515625 -19.296875 L 7.738281 -19.296875 L 7.738281 -19.332031 C 7.738281 -19.414062 7.683594 -19.511719 7.578125 -19.621094 Z M 11.015625 -19.621094 C 10.992188 -19.597656 10.996094 -19.566406 11.03125 -19.523438 C 11.0625 -19.480469 11.097656 -19.457031 11.140625 -19.457031 C 11.164062 -19.457031 11.175781 -19.480469 11.175781 -19.523438 C 11.175781 -19.523438 11.183594 -19.527344 11.207031 -19.539062 C 11.226562 -19.550781 11.238281 -19.566406 11.238281 -19.585938 Z M 10.4375 -19.554688 C 10.328125 -19.449219 10.265625 -19.371094 10.242188 -19.332031 L 10.273438 -19.332031 L 10.308594 -19.296875 L 10.339844 -19.296875 C 10.445312 -19.363281 10.5 -19.414062 10.5 -19.457031 C 10.5 -19.480469 10.480469 -19.511719 10.4375 -19.554688 Z M 2.121094 -19.296875 L 2.121094 -19.457031 L 2.054688 -19.457031 L 2.054688 -19.296875 Z M 8.863281 -19.457031 C 8.863281 -19.457031 8.820312 -19.414062 8.734375 -19.332031 L 9.054688 -19.296875 L 9.121094 -19.394531 L 8.992188 -19.425781 C 8.992188 -19.449219 8.949219 -19.457031 8.863281 -19.457031 Z M 9.3125 -19.394531 C 9.3125 -19.351562 9.324219 -19.320312 9.34375 -19.296875 L 9.375 -19.234375 L 9.570312 -19.234375 L 9.570312 -19.394531 Z M 12.007812 -19.296875 L 12.007812 -19.394531 L 11.878906 -19.394531 L 11.878906 -19.296875 Z M 7.515625 -19.074219 L 7.480469 -19.136719 L 7.386719 -19.074219 L 7.386719 -19.007812 Z M 9.890625 -19.007812 C 9.933594 -19.050781 9.933594 -19.074219 9.890625 -19.074219 L 9.824219 -19.136719 C 9.78125 -19.09375 9.761719 -19.074219 9.761719 -19.074219 L 9.761719 -19.007812 Z M 8.863281 -18.878906 L 8.925781 -18.878906 L 8.925781 -19.007812 L 8.863281 -19.007812 Z M 9.3125 -18.753906 C 9.269531 -18.710938 9.203125 -18.667969 9.121094 -18.625 L 8.992188 -18.527344 L 9.3125 -18.527344 Z M 10.019531 -18.65625 C 9.976562 -18.699219 9.867188 -18.71875 9.695312 -18.71875 C 9.695312 -18.699219 9.714844 -18.683594 9.746094 -18.671875 C 9.777344 -18.660156 9.804688 -18.644531 9.824219 -18.625 C 9.824219 -18.625 9.867188 -18.613281 9.953125 -18.589844 L 9.984375 -18.589844 L 9.984375 -18.625 Z M 10.5 -18.558594 C 10.480469 -18.558594 10.457031 -18.554688 10.4375 -18.542969 C 10.414062 -18.53125 10.394531 -18.527344 10.371094 -18.527344 L 10.4375 -18.367188 L 10.5625 -18.429688 L 10.628906 -18.496094 Z M 12.136719 -18.238281 C 12.136719 -18.324219 12.085938 -18.410156 11.976562 -18.496094 L 11.976562 -18.175781 Z M 10.660156 -18.367188 C 10.574219 -18.324219 10.53125 -18.28125 10.53125 -18.238281 C 10.53125 -18.195312 10.574219 -18.175781 10.660156 -18.175781 L 10.820312 -18.140625 C 10.863281 -18.25 10.863281 -18.355469 10.820312 -18.464844 Z M 6.550781 -18.238281 C 6.59375 -18.152344 6.613281 -18.089844 6.613281 -18.046875 L 6.679688 -17.851562 L 6.808594 -17.917969 L 6.773438 -18.015625 L 6.742188 -18.078125 L 6.742188 -18.175781 C 6.742188 -18.21875 6.773438 -18.238281 6.839844 -18.238281 Z M 10.851562 -18.015625 C 10.765625 -18.054688 10.703125 -18.078125 10.660156 -18.078125 L 10.628906 -17.917969 L 10.660156 -17.886719 L 10.789062 -17.886719 L 10.789062 -17.917969 L 10.851562 -17.917969 Z M 12.265625 -17.660156 C 12.332031 -17.683594 12.339844 -17.757812 12.296875 -17.886719 C 12.167969 -17.820312 12.074219 -17.757812 12.007812 -17.691406 Z M 12.523438 -17.597656 C 12.523438 -17.574219 12.542969 -17.542969 12.585938 -17.5 C 12.628906 -17.457031 12.660156 -17.4375 12.683594 -17.4375 C 12.660156 -17.519531 12.628906 -17.5625 12.585938 -17.5625 Z M 5.296875 -12.136719 C 6.367188 -12.289062 7.273438 -12.535156 8.011719 -12.875 C 8.75 -13.21875 9.324219 -13.785156 9.730469 -14.578125 C 10.070312 -15.304688 10.242188 -15.851562 10.242188 -16.214844 C 10.242188 -16.449219 10.199219 -16.65625 10.113281 -16.824219 L 10.113281 -16.859375 C 10.027344 -17.09375 9.78125 -17.265625 9.375 -17.371094 L 8.957031 -17.402344 C 8.660156 -17.402344 8.347656 -17.359375 8.027344 -17.273438 L 5.78125 -16.761719 Z M 11.558594 -16.890625 C 11.558594 -16.933594 11.550781 -16.964844 11.527344 -16.984375 L 11.398438 -17.019531 L 11.398438 -16.890625 Z M 11.527344 -16.503906 C 11.589844 -16.570312 11.625 -16.632812 11.625 -16.695312 L 11.496094 -16.695312 L 11.367188 -16.632812 C 11.324219 -16.589844 11.3125 -16.570312 11.335938 -16.570312 Z M 11.976562 -16.570312 C 12.085938 -16.570312 12.136719 -16.613281 12.136719 -16.695312 L 11.976562 -16.695312 Z M 14.351562 -16.246094 C 14.351562 -16.183594 14.332031 -16.152344 14.289062 -16.152344 C 14.308594 -16.128906 14.335938 -16.121094 14.371094 -16.121094 C 14.402344 -16.121094 14.429688 -16.109375 14.449219 -16.085938 L 14.640625 -16.054688 C 14.640625 -16.097656 14.652344 -16.121094 14.675781 -16.121094 C 14.695312 -16.140625 14.707031 -16.171875 14.707031 -16.214844 C 14.707031 -16.300781 14.664062 -16.398438 14.578125 -16.503906 L 14.578125 -16.246094 Z M 11.847656 -16.3125 C 11.847656 -16.289062 11.828125 -16.28125 11.785156 -16.28125 L 12.007812 -16.214844 L 11.976562 -16.28125 C 11.957031 -16.300781 11.921875 -16.3125 11.878906 -16.3125 Z M 11.976562 -15.992188 L 12.007812 -15.992188 L 11.914062 -16.085938 L 11.878906 -16.054688 Z M 14.640625 -15.992188 L 14.578125 -15.992188 L 14.578125 -15.253906 L 14.640625 -15.253906 Z M 14.609375 -14.578125 C 14.609375 -14.683594 14.664062 -14.78125 14.769531 -14.867188 C 14.664062 -14.886719 14.609375 -14.941406 14.609375 -15.027344 C 14.632812 -15.070312 14.621094 -15.132812 14.578125 -15.21875 L 14.578125 -12.941406 C 14.664062 -13.070312 14.707031 -13.195312 14.707031 -13.324219 L 14.675781 -13.710938 C 14.652344 -13.796875 14.640625 -13.902344 14.640625 -14.03125 C 14.640625 -14.117188 14.652344 -14.171875 14.675781 -14.191406 C 14.675781 -14.277344 14.652344 -14.386719 14.609375 -14.515625 Z M 11.300781 -14.640625 C 11.238281 -14.792969 11.121094 -14.867188 10.949219 -14.867188 Z M 11.558594 -14.386719 L 11.558594 -14.289062 L 11.847656 -14.289062 L 11.847656 -14.386719 Z M 11.015625 -13.96875 C 11.015625 -13.988281 10.992188 -14.019531 10.949219 -14.0625 C 10.886719 -14.105469 10.832031 -14.128906 10.789062 -14.128906 L 10.726562 -13.902344 Z M 3.082031 -13.484375 C 3.0625 -13.550781 3.019531 -13.613281 2.953125 -13.679688 C 2.910156 -13.699219 2.890625 -13.742188 2.890625 -13.808594 C 2.847656 -13.742188 2.738281 -13.691406 2.570312 -13.648438 L 2.824219 -13.582031 C 2.910156 -13.539062 2.953125 -13.507812 2.953125 -13.484375 Z M 10.148438 -13.484375 C 10.167969 -13.484375 10.210938 -13.46875 10.273438 -13.4375 C 10.339844 -13.40625 10.394531 -13.402344 10.4375 -13.421875 C 10.480469 -13.445312 10.511719 -13.476562 10.53125 -13.519531 L 10.53125 -13.679688 L 10.273438 -13.710938 C 10.230469 -13.691406 10.199219 -13.671875 10.179688 -13.664062 C 10.15625 -13.652344 10.15625 -13.648438 10.179688 -13.648438 C 10.136719 -13.648438 10.113281 -13.613281 10.113281 -13.550781 Z M 2.375 -13.613281 C 2.375 -13.59375 2.398438 -13.5625 2.441406 -13.519531 L 2.503906 -13.550781 L 2.503906 -13.582031 C 2.546875 -13.625 2.570312 -13.65625 2.570312 -13.679688 L 2.375 -13.679688 Z M 3.082031 -13.195312 C 3.039062 -13.21875 2.980469 -13.257812 2.90625 -13.308594 C 2.832031 -13.363281 2.761719 -13.390625 2.695312 -13.390625 L 2.570312 -13.324219 C 2.484375 -13.28125 2.417969 -13.238281 2.375 -13.195312 L 2.503906 -13.164062 C 2.546875 -13.121094 2.589844 -13.101562 2.632812 -13.101562 Z M 10.980469 -13.324219 L 10.917969 -13.195312 L 11.046875 -13.164062 L 11.109375 -13.292969 Z M 8.925781 -12.875 C 8.882812 -12.875 8.839844 -12.859375 8.796875 -12.828125 C 8.753906 -12.796875 8.734375 -12.757812 8.734375 -12.714844 C 8.777344 -12.671875 8.839844 -12.652344 8.925781 -12.652344 L 8.925781 -12.492188 C 8.96875 -12.492188 9.078125 -12.523438 9.246094 -12.585938 C 9.160156 -12.652344 9.054688 -12.683594 8.925781 -12.683594 L 8.925781 -12.746094 C 8.96875 -12.789062 8.96875 -12.832031 8.925781 -12.875 Z M 10.082031 -12.714844 L 10.019531 -12.84375 L 9.824219 -12.652344 L 10.082031 -12.652344 Z M 2.441406 -12.78125 L 2.375 -12.78125 L 2.441406 -12.554688 L 2.503906 -12.554688 Z M 9.503906 -12.425781 C 9.570312 -12.535156 9.570312 -12.628906 9.503906 -12.714844 L 9.3125 -12.714844 C 9.398438 -12.542969 9.460938 -12.449219 9.503906 -12.425781 Z M 2.441406 -12.492188 L 2.375 -12.363281 L 2.441406 -12.332031 L 2.503906 -12.457031 Z M 3.273438 -12.425781 L 3.273438 -12.296875 L 3.4375 -12.296875 L 3.4375 -12.425781 Z M 7.515625 -12.394531 L 7.515625 -12.265625 L 7.675781 -12.296875 Z M 9.246094 -12.296875 C 9.121094 -12.234375 9.011719 -12.160156 8.925781 -12.074219 L 9.183594 -12.074219 L 9.695312 -11.945312 L 9.664062 -11.976562 L 9.632812 -12.042969 L 9.632812 -12.074219 L 9.3125 -12.074219 Z M 9.824219 -11.753906 C 9.867188 -11.753906 9.890625 -11.761719 9.890625 -11.785156 C 9.890625 -11.847656 9.878906 -11.890625 9.859375 -11.914062 L 9.761719 -12.007812 C 9.65625 -11.878906 9.632812 -11.785156 9.695312 -11.71875 Z M 9.121094 -11.429688 C 9.160156 -11.429688 9.203125 -11.410156 9.246094 -11.367188 C 9.375 -11.472656 9.441406 -11.558594 9.441406 -11.625 L 9.410156 -11.6875 L 9.375 -11.71875 C 9.355469 -11.742188 9.332031 -11.796875 9.3125 -11.878906 L 9.246094 -11.816406 L 9.183594 -11.816406 L 9.121094 -11.753906 Z M 1.992188 -11.71875 C 1.96875 -11.71875 1.957031 -11.699219 1.957031 -11.65625 L 2.121094 -11.65625 C 2.121094 -11.675781 2.078125 -11.730469 1.992188 -11.816406 Z M 10.339844 -11.464844 L 10.339844 -11.589844 L 10.082031 -11.527344 L 10.082031 -11.429688 Z M 9.761719 -11.398438 C 9.589844 -11.398438 9.503906 -11.355469 9.503906 -11.269531 C 9.503906 -11.207031 9.570312 -11.175781 9.695312 -11.175781 L 9.761719 -11.175781 Z M 2.953125 -11.367188 L 2.761719 -11.300781 L 2.761719 -11.269531 L 3.019531 -11.335938 Z M 7.0625 -11.109375 C 7.0625 -11.109375 7.105469 -11.152344 7.191406 -11.238281 L 7.0625 -11.335938 C 6.980469 -11.3125 6.9375 -11.261719 6.9375 -11.175781 Z M 9.890625 -11.175781 C 9.761719 -11.109375 9.695312 -11.035156 9.695312 -10.949219 L 9.890625 -10.949219 C 9.976562 -11.015625 9.976562 -11.089844 9.890625 -11.175781 Z M 9.632812 -10.886719 C 9.632812 -10.949219 9.589844 -11.003906 9.503906 -11.046875 C 9.460938 -11.046875 9.417969 -11.03125 9.375 -10.996094 C 9.332031 -10.964844 9.3125 -10.9375 9.3125 -10.917969 C 9.355469 -10.894531 9.417969 -10.886719 9.503906 -10.886719 Z M 10.4375 -10.820312 C 10.4375 -10.84375 10.414062 -10.851562 10.371094 -10.851562 C 10.371094 -10.851562 10.367188 -10.859375 10.355469 -10.871094 C 10.34375 -10.878906 10.339844 -10.886719 10.339844 -10.886719 L 10.273438 -10.917969 L 10.050781 -10.917969 C 10.09375 -10.832031 10.113281 -10.746094 10.113281 -10.660156 C 10.179688 -10.640625 10.230469 -10.640625 10.273438 -10.660156 L 10.4375 -10.660156 Z M 6.9375 -10.402344 L 6.808594 -10.402344 L 6.808594 -10.339844 L 6.9375 -10.339844 Z M 10.082031 -10.210938 C 10.167969 -10.210938 10.222656 -10.222656 10.242188 -10.242188 C 10.285156 -10.285156 10.308594 -10.316406 10.308594 -10.339844 C 10.265625 -10.382812 10.167969 -10.402344 10.019531 -10.402344 Z M 6.9375 -9.890625 C 6.9375 -9.847656 6.945312 -9.824219 6.96875 -9.824219 L 7.0625 -9.824219 C 7.085938 -9.933594 7.085938 -9.984375 7.0625 -9.984375 C 6.980469 -9.984375 6.9375 -9.953125 6.9375 -9.890625 Z M 10.050781 -9.824219 C 9.945312 -9.71875 9.890625 -9.621094 9.890625 -9.535156 L 9.953125 -9.503906 L 10.179688 -9.503906 L 10.113281 -9.695312 Z M 10.210938 -9.472656 L 10.113281 -9.34375 L 10.242188 -9.3125 L 10.339844 -9.441406 Z M 10.5 -9.183594 C 10.605469 -9.183594 10.703125 -9.214844 10.789062 -9.28125 L 10.5 -9.34375 C 10.457031 -9.257812 10.457031 -9.203125 10.5 -9.183594 Z M 10.050781 -9.28125 C 9.945312 -9.34375 9.847656 -9.332031 9.761719 -9.246094 C 9.804688 -9.203125 9.878906 -9.183594 9.984375 -9.183594 C 10.027344 -9.183594 10.050781 -9.203125 10.050781 -9.246094 Z M 7.128906 -8.703125 L 7.0625 -8.667969 L 7.097656 -8.605469 L 7.160156 -8.605469 Z M 10.5625 -7.449219 C 10.5625 -7.515625 10.554688 -7.554688 10.53125 -7.578125 C 10.53125 -7.578125 10.527344 -7.574219 10.515625 -7.5625 C 10.503906 -7.550781 10.5 -7.546875 10.5 -7.546875 L 10.46875 -7.515625 L 10.4375 -7.515625 Z M 13.230469 -6.003906 C 13.273438 -6.003906 13.292969 -6.035156 13.292969 -6.101562 L 13.132812 -6.101562 Z M 13.390625 -5.8125 L 13.230469 -5.8125 L 13.230469 -5.621094 C 13.292969 -5.554688 13.378906 -5.523438 13.484375 -5.523438 C 13.445312 -5.585938 13.421875 -5.652344 13.421875 -5.714844 Z M 13.550781 -5.136719 L 13.484375 -5.042969 L 13.550781 -5.007812 L 13.613281 -5.105469 Z M 14.03125 -3.820312 C 14.03125 -3.90625 13.96875 -3.960938 13.839844 -3.980469 C 13.773438 -3.917969 13.742188 -3.875 13.742188 -3.851562 C 13.742188 -3.789062 13.769531 -3.730469 13.824219 -3.675781 C 13.875 -3.625 13.925781 -3.597656 13.96875 -3.597656 L 14 -3.691406 Z M 13.164062 -3.339844 C 13.207031 -3.339844 13.265625 -3.351562 13.339844 -3.371094 C 13.417969 -3.394531 13.476562 -3.425781 13.519531 -3.46875 L 13.421875 -3.5 L 13.324219 -3.5625 C 13.28125 -3.585938 13.207031 -3.597656 13.101562 -3.597656 C 13.058594 -3.597656 13.015625 -3.585938 12.972656 -3.5625 C 12.929688 -3.542969 12.90625 -3.511719 12.90625 -3.46875 C 12.992188 -3.382812 13.078125 -3.339844 13.164062 -3.339844 Z M 2.121094 -1.476562 C 2.226562 -1.476562 2.289062 -1.519531 2.3125 -1.605469 L 2.183594 -1.605469 C 2.183594 -1.519531 2.160156 -1.476562 2.121094 -1.476562 Z M 2.121094 -1.476562 "/></g></g></g></svg>