<svg width="90" height="176" viewBox="0 0 90 176" fill="none" xmlns="http://www.w3.org/2000/svg">
<path d="M2.71265 3.45809C33.8816 10.7611 28.1792 8.8238 52.4499 28.3829C57.9931 32.8501 66.4404 38.6547 68.0204 44.7901C70.3522 53.8443 50.7385 75.4277 39.7041 63.5084C32.5729 55.8053 34.7491 45.7162 46.4273 45.4662C65.5787 45.0563 79.7994 61.6993 84.8561 74.5055C90.4233 88.6044 84.0453 101.312 68.2619 106.479C61.0514 108.839 49.9755 104.646 56.6879 97.761C70.4942 83.5986 83.6826 107.299 80.9251 118.106C75.9582 137.57 44.0605 157.613 16.2348 147.271C7.53481 144.038 10.6123 141.723 14.4526 140.351C18.3493 138.958 28.3217 132.946 25.5821 135.457C20.7928 139.847 15.0383 140.779 8.55879 142.558C0.201458 144.853 16.9103 157.483 21.7094 161.738C24.2288 163.971 27.7987 168.522 28.3236 171.384C29.3601 177.035 20.1711 160.858 18.7173 155.213" stroke="black" stroke-width="5" stroke-linecap="round" stroke-linejoin="round"/>
</svg>
